<?xml version="1.0" encoding="utf-8"?>
<!-- Generator: Adobe Illustrator 26.0.2, SVG Export Plug-In . SVG Version: 6.00 Build 0)  -->
<svg version="1.1" xmlns="http://www.w3.org/2000/svg" xmlns:xlink="http://www.w3.org/1999/xlink" x="0px" y="0px"
	 viewBox="0 0 3837.7 2190.4" style="enable-background:new 0 0 3837.7 2190.4;" xml:space="preserve">
<style type="text/css">
	.st0{display:none;}
	.st1{display:inline;}
	.st2{fill:#E8ACB5;}
	.st3{fill:#E6E6E6;}
	.st4{fill:none;stroke:#000000;stroke-width:6;stroke-miterlimit:10;}
	.st5{fill:#E6ABC9;}
	.st6{fill:#A3C493;}
	.st7{fill:#7EC7D0;}
	.st8{fill:#BDB7E7;}
	.st9{font-family:'ArialMT';}
	.st10{font-size:47.6px;}
	.st11{fill:none;stroke:#FFFFFF;stroke-width:6;stroke-linejoin:round;stroke-miterlimit:10;}
	.st12{fill:none;stroke:#000000;stroke-width:7.375;stroke-linejoin:round;stroke-miterlimit:10;}
	.st13{fill:#FCA1BD;}
	.st14{fill:#FEA1B6;}
	.st15{fill:#FFA1B0;}
	.st16{fill:#FFA2A9;}
	.st17{fill:#FFA3A3;}
	.st18{fill:#FEA49D;}
	.st19{fill:#FDA597;}
	.st20{fill:#FBA792;}
	.st21{fill:#F8A88D;}
	.st22{fill:#F5AA88;}
	.st23{fill:#F1AC84;}
	.st24{fill:#EDAE80;}
	.st25{fill:#E9B17D;}
	.st26{fill:#E4B37B;}
	.st27{fill:#DEB579;}
	.st28{fill:#D9B777;}
	.st29{fill:#D3B977;}
	.st30{fill:#CCBC77;}
	.st31{fill:#C6BE78;}
	.st32{fill:#BFC079;}
	.st33{fill:#B8C17B;}
	.st34{fill:#B1C37E;}
	.st35{fill:#AAC582;}
	.st36{fill:#A3C686;}
	.st37{fill:#9BC88A;}
	.st38{fill:#94C98F;}
	.st39{fill:#8CCA94;}
	.st40{fill:#84CB9A;}
	.st41{fill:#7CCCA0;}
	.st42{fill:#74CDA7;}
	.st43{fill:#6CCDAD;}
	.st44{fill:#64CEB4;}
	.st45{fill:#5CCEBA;}
	.st46{fill:#55CEC1;}
	.st47{fill:#4ECEC8;}
	.st48{fill:#48CECE;}
	.st49{fill:#43CED4;}
	.st50{fill:#40CDDB;}
	.st51{fill:#3FCDE0;}
	.st52{fill:#40CCE6;}
	.st53{fill:#44CBEB;}
	.st54{fill:#4ACAEF;}
	.st55{fill:#51C9F3;}
	.st56{fill:#5AC8F7;}
	.st57{fill:#63C6FA;}
	.st58{fill:#6DC5FC;}
	.st59{fill:#77C3FE;}
	.st60{fill:#82C1FF;}
	.st61{fill:#8CBFFF;}
	.st62{fill:#96BDFF;}
	.st63{fill:#A0BAFE;}
	.st64{fill:#AAB8FD;}
	.st65{fill:#B4B6FB;}
	.st66{fill:#BDB4F8;}
	.st67{fill:#C6B1F4;}
	.st68{fill:#CEAFF0;}
	.st69{fill:#D5ADEC;}
	.st70{fill:#DCABE7;}
	.st71{fill:#E3A9E2;}
	.st72{fill:#E9A7DC;}
	.st73{fill:#EEA5D6;}
	.st74{fill:#F2A4D0;}
	.st75{fill:#F6A3CA;}
	.st76{fill:#F9A2C3;}
	.st77{fill:none;stroke:#000000;stroke-width:4;stroke-miterlimit:10;}
	.st78{fill:none;stroke:#000000;stroke-width:4;stroke-linejoin:round;}
	.st79{fill:#FFFFFF;}
	.st80{fill:none;stroke:#262626;stroke-width:4;stroke-linecap:square;stroke-linejoin:round;stroke-miterlimit:10;}
	.st81{fill:none;stroke:#262626;stroke-width:0.5003;stroke-linecap:square;stroke-linejoin:round;stroke-miterlimit:10;}
	.st82{fill:#262626;}
	.st83{font-size:10.2255px;}
	.st84{font-size:41.7231px;}
	.st85{fill:#D79BA6;}
	.st86{fill:#D69CA2;}
	.st87{fill:#D59D9E;}
	.st88{fill:#D49E99;}
	.st89{fill:#D39F95;}
	.st90{fill:#D1A091;}
	.st91{fill:#CFA18D;}
	.st92{fill:#CCA389;}
	.st93{fill:#C9A486;}
	.st94{fill:#C6A583;}
	.st95{fill:#C3A780;}
	.st96{fill:#C0A87E;}
	.st97{fill:#BCAA7C;}
	.st98{fill:#B8AB7B;}
	.st99{fill:#B4AC7A;}
	.st100{fill:#AFAE7A;}
	.st101{fill:#ABAF7A;}
	.st102{fill:#A6B07B;}
	.st103{fill:#A1B27D;}
	.st104{fill:#9CB37F;}
	.st105{fill:#97B481;}
	.st106{fill:#92B584;}
	.st107{fill:#8DB687;}
	.st108{fill:#88B78A;}
	.st109{fill:#83B78E;}
	.st110{fill:#7EB892;}
	.st111{fill:#79B896;}
	.st112{fill:#75B99A;}
	.st113{fill:#71B99E;}
	.st114{fill:#6DB9A3;}
	.st115{fill:#6BB9A7;}
	.st116{fill:#68B9AB;}
	.st117{fill:#67B9AF;}
	.st118{fill:#67B9B4;}
	.st119{fill:#68B8B8;}
	.st120{fill:#69B8BB;}
	.st121{fill:#6CB7BF;}
	.st122{fill:#6FB6C2;}
	.st123{fill:#73B5C6;}
	.st124{fill:#78B4C9;}
	.st125{fill:#7DB3CB;}
	.st126{fill:#82B1CD;}
	.st127{fill:#88B0CF;}
	.st128{fill:#8EAED1;}
	.st129{fill:#94ADD2;}
	.st130{fill:#9AABD3;}
	.st131{fill:#A0A9D4;}
	.st132{fill:#A6A8D4;}
	.st133{fill:#ABA6D4;}
	.st134{fill:#B1A4D4;}
	.st135{fill:#B6A3D3;}
	.st136{fill:#BBA1D1;}
	.st137{fill:#BFA0D0;}
	.st138{fill:#C39FCE;}
	.st139{fill:#C79DCB;}
	.st140{fill:#CA9CC9;}
	.st141{fill:#CD9CC6;}
	.st142{fill:#D09BC2;}
	.st143{fill:#D29ABF;}
	.st144{fill:#D49ABB;}
	.st145{fill:#D59AB7;}
	.st146{fill:#D69AB3;}
	.st147{fill:#D79AAF;}
	.st148{fill:#D79BAB;}
	.st149{fill:none;stroke:#000000;stroke-width:4;stroke-linejoin:round;stroke-miterlimit:10;}
	.st150{opacity:0.702;fill:none;stroke:#262626;stroke-width:0.5003;stroke-linejoin:round;stroke-miterlimit:10;}
</style>
<g id="original_paradigm" class="st0">
	<g class="st1">
		<g>
			<g>
				<path class="st2" d="M100.7,239.9c1.9,0,1.9-3,0-3S98.8,239.9,100.7,239.9L100.7,239.9z"/>
			</g>
		</g>
		<g>
			<g>
				<g>
					<path class="st3" d="M327.3,324.3H55c-0.7,0-1.2-0.6-1.2-1.2V50.9c0-0.7,0.5-1.2,1.2-1.2h272.2c0.7,0,1.2,0.6,1.2,1.2v272.2
						C328.5,323.8,328,324.3,327.3,324.3z"/>
				</g>
				<g>
					<line class="st4" x1="186.8" y1="179.2" x2="207.9" y2="200.4"/>
					<line class="st4" x1="207.9" y1="179.2" x2="186.8" y2="200.4"/>
				</g>
			</g>
		</g>
	</g>
	<g class="st1">
		<g>
			<path class="st3" d="M988.9,321.2H716.7c-0.7,0-1.2-0.6-1.2-1.2V47.7c0-0.7,0.5-1.2,1.2-1.2h272.2c0.7,0,1.2,0.6,1.2,1.2v272.2
				C990.1,320.6,989.6,321.2,988.9,321.2z"/>
		</g>
		<g>
			<line class="st4" x1="842.2" y1="176.1" x2="863.3" y2="197.2"/>
			<line class="st4" x1="863.3" y1="176.1" x2="842.2" y2="197.2"/>
		</g>
	</g>
	<g class="st1">
		<g>
			<path class="st3" d="M1319.8,323.6h-272.2c-0.7,0-1.2-0.6-1.2-1.2V50.2c0-0.7,0.6-1.2,1.2-1.2h272.2c0.7,0,1.2,0.6,1.2,1.2v272.2
				C1320.9,323,1320.4,323.6,1319.8,323.6z"/>
		</g>
		<g>
			<line class="st4" x1="1173.1" y1="178.5" x2="1194.2" y2="199.6"/>
			<line class="st4" x1="1194.2" y1="178.5" x2="1173.1" y2="199.6"/>
		</g>
		<circle class="st5" cx="1194.2" cy="275" r="23.2"/>
		<circle class="st6" cx="1269.2" cy="242.6" r="23.2"/>
		<circle class="st7" cx="1278.6" cy="163.1" r="23.2"/>
		<circle class="st8" cx="1228.3" cy="106.3" r="23.2"/>
	</g>
	<g class="st1">
		<g>
			<path class="st3" d="M1377.2,47.8h274.1c0.3,0,0.6,0.4,0.6,0.9v273c0,0.5-0.3,0.9-0.6,0.9h-274.1"/>
		</g>
		<g>
			<path class="st4" d="M1524.6,177.5"/>
		</g>
		<circle class="st5" cx="1524.6" cy="274" r="23.2"/>
		<circle class="st6" cx="1599.7" cy="241.6" r="23.2"/>
		<circle class="st7" cx="1608.9" cy="162" r="23.2"/>
		<circle class="st8" cx="1558.8" cy="105.3" r="23.2"/>
	</g>
	<g class="st1">
		<g>
			<path class="st3" d="M384.6,48h274.3c0.2,0,0.4,0.2,0.4,0.5v273.7c0,0.3-0.2,0.5-0.4,0.5H384.6"/>
		</g>
		<g>
			<line class="st4" x1="511.1" y1="177.6" x2="532.3" y2="198.7"/>
			<line class="st4" x1="532.3" y1="177.6" x2="511.1" y2="198.7"/>
		</g>
		<path class="st7" d="M437.6,151.7c0-12.8,10.4-23.2,23.2-23.2s23.2,10.4,23.2,23.2s-10.4,23.2-23.2,23.2S437.6,164.5,437.6,151.7"
			/>
	</g>
</g>
<g id="Layer_3">
	<g>
		<g>
			<g>
				<path class="st3" d="M347.8,112.9h203.7c0.2,0,0.4,0.3,0.4,0.7v202.9c0,0.4-0.2,0.7-0.4,0.7H347.8"/>
			</g>
			<g>
				<path class="st4" d="M457.4,209.3"/>
			</g>
			<circle class="st5" cx="457.4" cy="281" r="17.2"/>
			<circle class="st6" cx="513.2" cy="256.9" r="17.2"/>
			<circle class="st7" cx="520.1" cy="197.7" r="17.2"/>
			<circle class="st8" cx="482.8" cy="155.6" r="17.2"/>
		</g>
		<g>
			<g>
				<path class="st3" d="M111.9,112.9h203.9c0.1,0,0.3,0.1,0.3,0.4v203.5c0,0.2-0.1,0.4-0.3,0.4H111.9"/>
			</g>
			<g>
				<line class="st4" x1="205.9" y1="209.2" x2="221.7" y2="224.9"/>
				<line class="st4" x1="221.7" y1="209.2" x2="205.9" y2="224.9"/>
			</g>
			<path class="st7" d="M151.3,190c0-9.5,7.7-17.2,17.2-17.2c9.5,0,17.2,7.7,17.2,17.2s-7.7,17.2-17.2,17.2
				C159,207.2,151.3,199.5,151.3,190"/>
		</g>
	</g>
	<text transform="matrix(1 0 0 1 111.9113 99.7596)" class="st9 st10">Cue</text>
	<text transform="matrix(1 0 0 1 348.2932 99.7592)" class="st9 st10">Choices</text>
	<g>
		<g>
			<g>
				<path class="st3" d="M347.8,340.8h203.7c0.2,0,0.4,0.3,0.4,0.7v202.9c0,0.4-0.2,0.7-0.4,0.7H347.8"/>
			</g>
			<g>
				<path class="st4" d="M457.4,437.2"/>
			</g>
			<circle class="st5" cx="457.4" cy="508.9" r="17.2"/>
			<circle class="st6" cx="513.2" cy="484.8" r="17.2"/>
			<circle class="st7" cx="520.1" cy="425.7" r="17.2"/>
			<circle class="st8" cx="482.8" cy="383.5" r="17.2"/>
		</g>
		<g>
			<g>
				<path class="st3" d="M111.9,340.8h203.9c0.1,0,0.3,0.1,0.3,0.4v203.5c0,0.2-0.1,0.4-0.3,0.4H111.9"/>
			</g>
			<g>
				<line class="st4" x1="205.9" y1="437.2" x2="221.7" y2="452.8"/>
				<line class="st4" x1="221.7" y1="437.2" x2="205.9" y2="452.8"/>
			</g>
			<path class="st7" d="M151.3,417.9c0-9.5,7.7-17.2,17.2-17.2c9.5,0,17.2,7.7,17.2,17.2c0,9.5-7.7,17.2-17.2,17.2
				C159,435.1,151.3,427.4,151.3,417.9"/>
		</g>
	</g>
	<g>
		<g>
			<g>
				<path class="st3" d="M347.8,568.7h203.7c0.2,0,0.4,0.3,0.4,0.7v202.9c0,0.4-0.2,0.7-0.4,0.7H347.8"/>
			</g>
			<g>
				<path class="st4" d="M457.4,665.1"/>
			</g>
			<circle class="st5" cx="457.4" cy="736.9" r="17.2"/>
			<circle class="st6" cx="513.2" cy="712.8" r="17.2"/>
			<circle class="st7" cx="520.1" cy="653.6" r="17.2"/>
			<circle class="st8" cx="482.8" cy="611.5" r="17.2"/>
		</g>
		<g>
			<g>
				<path class="st3" d="M111.9,568.7h203.9c0.1,0,0.3,0.1,0.3,0.4v203.5c0,0.2-0.1,0.4-0.3,0.4H111.9"/>
			</g>
			<g>
				<line class="st4" x1="205.9" y1="665.1" x2="221.7" y2="680.8"/>
				<line class="st4" x1="221.7" y1="665.1" x2="205.9" y2="680.8"/>
			</g>
			<path class="st7" d="M151.3,645.8c0-9.5,7.7-17.2,17.2-17.2c9.5,0,17.2,7.7,17.2,17.2s-7.7,17.2-17.2,17.2
				C159,663.1,151.3,655.3,151.3,645.8"/>
		</g>
	</g>
	<g>
		<g>
			<g>
				<path class="st3" d="M347.8,796.6h203.7c0.2,0,0.4,0.3,0.4,0.7v202.9c0,0.4-0.2,0.7-0.4,0.7H347.8"/>
			</g>
			<g>
				<path class="st4" d="M457.4,893"/>
			</g>
			<circle class="st5" cx="457.4" cy="964.8" r="17.2"/>
			<circle class="st6" cx="513.2" cy="940.7" r="17.2"/>
			<circle class="st7" cx="520.1" cy="881.5" r="17.2"/>
			<circle class="st8" cx="482.8" cy="839.4" r="17.2"/>
		</g>
		<g>
			<g>
				<path class="st3" d="M111.9,796.7h203.9c0.1,0,0.3,0.1,0.3,0.4v203.5c0,0.2-0.1,0.4-0.3,0.4H111.9"/>
			</g>
			<g>
				<line class="st4" x1="205.9" y1="893" x2="221.7" y2="908.7"/>
				<line class="st4" x1="221.7" y1="893" x2="205.9" y2="908.7"/>
			</g>
			<path class="st7" d="M151.3,873.8c0-9.5,7.7-17.2,17.2-17.2c9.5,0,17.2,7.7,17.2,17.2c0,9.5-7.7,17.2-17.2,17.2
				C159,891,151.3,883.3,151.3,873.8"/>
		</g>
	</g>
</g>
<g id="Layer_2">
	<g>
		<line class="st11" x1="1130.5" y1="572.6" x2="1130.5" y2="185.4"/>
		<line class="st11" x1="1130.5" y1="572.6" x2="1144.1" y2="185.7"/>
		<line class="st11" x1="1130.5" y1="572.6" x2="1157.6" y2="186.4"/>
		<line class="st11" x1="1130.5" y1="572.6" x2="1171.2" y2="187.6"/>
		<line class="st11" x1="1130.5" y1="572.6" x2="1184.6" y2="189.2"/>
		<line class="st11" x1="1130.5" y1="572.6" x2="1198.1" y2="191.4"/>
		<line class="st11" x1="1130.5" y1="572.6" x2="1211.4" y2="194"/>
		<line class="st11" x1="1130.5" y1="572.6" x2="1224.6" y2="197.1"/>
		<line class="st11" x1="1130.5" y1="572.6" x2="1237.8" y2="200.6"/>
		<line class="st11" x1="1130.5" y1="572.6" x2="1250.7" y2="204.6"/>
		<line class="st11" x1="1130.5" y1="572.6" x2="1263.6" y2="209"/>
		<line class="st11" x1="1130.5" y1="572.6" x2="1276.3" y2="213.9"/>
		<line class="st11" x1="1130.5" y1="572.6" x2="1288.8" y2="219.3"/>
		<line class="st11" x1="1130.5" y1="572.6" x2="1301.1" y2="225"/>
		<line class="st11" x1="1130.5" y1="572.6" x2="1313.2" y2="231.2"/>
		<line class="st11" x1="1130.5" y1="572.6" x2="1325" y2="237.9"/>
		<line class="st11" x1="1130.5" y1="572.6" x2="1336.7" y2="244.9"/>
		<line class="st11" x1="1130.5" y1="572.6" x2="1348" y2="252.3"/>
		<line class="st11" x1="1130.5" y1="572.6" x2="1359.1" y2="260.2"/>
		<line class="st11" x1="1130.5" y1="572.6" x2="1370" y2="268.4"/>
		<line class="st11" x1="1130.5" y1="572.6" x2="1380.5" y2="277"/>
		<line class="st11" x1="1130.5" y1="572.6" x2="1390.7" y2="285.9"/>
		<line class="st11" x1="1130.5" y1="572.6" x2="1400.6" y2="295.2"/>
		<line class="st11" x1="1130.5" y1="572.6" x2="1410.2" y2="304.9"/>
		<line class="st11" x1="1130.5" y1="572.6" x2="1419.4" y2="314.9"/>
		<line class="st11" x1="1130.5" y1="572.6" x2="1428.3" y2="325.2"/>
		<line class="st11" x1="1130.5" y1="572.6" x2="1436.8" y2="335.8"/>
		<line class="st11" x1="1130.5" y1="572.6" x2="1444.9" y2="346.7"/>
		<line class="st11" x1="1130.5" y1="572.6" x2="1452.6" y2="357.8"/>
		<line class="st11" x1="1130.5" y1="572.6" x2="1459.9" y2="369.3"/>
		<line class="st11" x1="1130.5" y1="572.6" x2="1466.9" y2="381"/>
		<line class="st11" x1="1130.5" y1="572.6" x2="1473.4" y2="392.9"/>
		<line class="st11" x1="1130.5" y1="572.6" x2="1479.5" y2="405"/>
		<line class="st11" x1="1130.5" y1="572.6" x2="1485.2" y2="417.4"/>
		<line class="st11" x1="1130.5" y1="572.6" x2="1490.4" y2="429.9"/>
		<line class="st11" x1="1130.5" y1="572.6" x2="1495.2" y2="442.7"/>
		<line class="st11" x1="1130.5" y1="572.6" x2="1499.5" y2="455.5"/>
		<line class="st11" x1="1130.5" y1="572.6" x2="1503.4" y2="468.6"/>
		<line class="st11" x1="1130.5" y1="572.6" x2="1506.8" y2="481.7"/>
		<line class="st11" x1="1130.5" y1="572.6" x2="1509.8" y2="495"/>
		<line class="st11" x1="1130.5" y1="572.6" x2="1512.3" y2="508.3"/>
		<line class="st11" x1="1130.5" y1="572.6" x2="1514.3" y2="521.8"/>
		<line class="st11" x1="1130.5" y1="572.6" x2="1515.8" y2="535.3"/>
		<line class="st11" x1="1130.5" y1="572.6" x2="1516.9" y2="548.8"/>
		<line class="st11" x1="1130.5" y1="572.6" x2="1517.5" y2="562.4"/>
		<line class="st11" x1="1130.5" y1="572.6" x2="1517.6" y2="576"/>
		<line class="st11" x1="1130.5" y1="572.6" x2="1517.2" y2="589.6"/>
		<line class="st11" x1="1130.5" y1="572.6" x2="1516.4" y2="603.1"/>
		<line class="st11" x1="1130.5" y1="572.6" x2="1515.1" y2="616.7"/>
		<line class="st11" x1="1130.5" y1="572.6" x2="1513.3" y2="630.1"/>
		<line class="st11" x1="1130.5" y1="572.6" x2="1511.1" y2="643.5"/>
		<line class="st11" x1="1130.5" y1="572.6" x2="1508.3" y2="656.8"/>
		<line class="st11" x1="1130.5" y1="572.6" x2="1505.2" y2="670.1"/>
		<line class="st11" x1="1130.5" y1="572.6" x2="1501.5" y2="683.1"/>
		<line class="st11" x1="1130.5" y1="572.6" x2="1497.4" y2="696.1"/>
		<line class="st11" x1="1130.5" y1="572.6" x2="1492.8" y2="708.9"/>
		<line class="st11" x1="1130.5" y1="572.6" x2="1487.8" y2="721.5"/>
		<line class="st11" x1="1130.5" y1="572.6" x2="1482.4" y2="734"/>
		<line class="st11" x1="1130.5" y1="572.6" x2="1476.5" y2="746.2"/>
		<line class="st11" x1="1130.5" y1="572.6" x2="1470.2" y2="758.3"/>
		<line class="st11" x1="1130.5" y1="572.6" x2="1463.5" y2="770.1"/>
		<line class="st11" x1="1130.5" y1="572.6" x2="1456.3" y2="781.6"/>
		<line class="st11" x1="1130.5" y1="572.6" x2="1448.8" y2="792.9"/>
		<line class="st11" x1="1130.5" y1="572.6" x2="1440.9" y2="804"/>
		<line class="st11" x1="1130.5" y1="572.6" x2="1432.6" y2="814.7"/>
		<line class="st11" x1="1130.5" y1="572.6" x2="1423.9" y2="825.2"/>
		<line class="st11" x1="1130.5" y1="572.6" x2="1414.8" y2="835.3"/>
		<line class="st11" x1="1130.5" y1="572.6" x2="1405.4" y2="845.1"/>
		<line class="st11" x1="1130.5" y1="572.6" x2="1395.7" y2="854.6"/>
		<line class="st11" x1="1130.5" y1="572.6" x2="1385.6" y2="863.8"/>
		<line class="st11" x1="1130.5" y1="572.6" x2="1375.3" y2="872.5"/>
		<line class="st11" x1="1130.5" y1="572.6" x2="1364.6" y2="880.9"/>
		<line class="st11" x1="1130.5" y1="572.6" x2="1353.6" y2="889"/>
		<line class="st11" x1="1130.5" y1="572.6" x2="1342.4" y2="896.6"/>
		<line class="st11" x1="1130.5" y1="572.6" x2="1330.9" y2="903.8"/>
		<line class="st11" x1="1130.5" y1="572.6" x2="1319.1" y2="910.7"/>
		<line class="st11" x1="1130.5" y1="572.6" x2="1307.1" y2="917.1"/>
		<line class="st11" x1="1130.5" y1="572.6" x2="1294.9" y2="923.1"/>
		<line class="st11" x1="1130.5" y1="572.6" x2="1282.5" y2="928.6"/>
		<line class="st11" x1="1130.5" y1="572.6" x2="1269.9" y2="933.7"/>
		<line class="st11" x1="1130.5" y1="572.6" x2="1257.2" y2="938.4"/>
		<line class="st11" x1="1130.5" y1="572.6" x2="1244.3" y2="942.6"/>
		<line class="st11" x1="1130.5" y1="572.6" x2="1231.2" y2="946.4"/>
		<line class="st11" x1="1130.5" y1="572.6" x2="1218" y2="949.7"/>
		<line class="st11" x1="1130.5" y1="572.6" x2="1204.7" y2="952.5"/>
		<line class="st11" x1="1130.5" y1="572.6" x2="1191.4" y2="954.9"/>
		<line class="st11" x1="1130.5" y1="572.6" x2="1177.9" y2="956.8"/>
		<line class="st11" x1="1130.5" y1="572.6" x2="1164.4" y2="958.3"/>
		<line class="st11" x1="1130.5" y1="572.6" x2="1150.8" y2="959.2"/>
		<line class="st11" x1="1130.5" y1="572.6" x2="1137.3" y2="959.7"/>
		<line class="st11" x1="1130.5" y1="572.6" x2="1123.7" y2="959.7"/>
		<line class="st11" x1="1130.5" y1="572.6" x2="1110.1" y2="959.2"/>
		<line class="st11" x1="1130.5" y1="572.6" x2="1096.5" y2="958.3"/>
		<line class="st11" x1="1130.5" y1="572.6" x2="1083" y2="956.8"/>
		<line class="st11" x1="1130.5" y1="572.6" x2="1069.6" y2="954.9"/>
		<line class="st11" x1="1130.5" y1="572.6" x2="1056.2" y2="952.5"/>
		<line class="st11" x1="1130.5" y1="572.6" x2="1042.9" y2="949.7"/>
		<line class="st11" x1="1130.5" y1="572.6" x2="1029.7" y2="946.4"/>
		<line class="st11" x1="1130.5" y1="572.6" x2="1016.7" y2="942.6"/>
		<line class="st11" x1="1130.5" y1="572.6" x2="1003.7" y2="938.4"/>
		<line class="st11" x1="1130.5" y1="572.6" x2="991" y2="933.7"/>
		<line class="st11" x1="1130.5" y1="572.6" x2="978.4" y2="928.6"/>
		<line class="st11" x1="1130.5" y1="572.6" x2="966" y2="923.1"/>
		<line class="st11" x1="1130.5" y1="572.6" x2="953.8" y2="917.1"/>
		<line class="st11" x1="1130.5" y1="572.6" x2="941.8" y2="910.7"/>
		<line class="st11" x1="1130.5" y1="572.6" x2="930.1" y2="903.8"/>
		<line class="st11" x1="1130.5" y1="572.6" x2="918.6" y2="896.6"/>
		<line class="st11" x1="1130.5" y1="572.6" x2="907.3" y2="889"/>
		<line class="st11" x1="1130.5" y1="572.6" x2="896.4" y2="880.9"/>
		<line class="st11" x1="1130.5" y1="572.6" x2="885.7" y2="872.5"/>
		<line class="st11" x1="1130.5" y1="572.6" x2="875.3" y2="863.8"/>
		<line class="st11" x1="1130.5" y1="572.6" x2="865.2" y2="854.6"/>
		<line class="st11" x1="1130.5" y1="572.6" x2="855.5" y2="845.1"/>
		<line class="st11" x1="1130.5" y1="572.6" x2="846.1" y2="835.3"/>
		<line class="st11" x1="1130.5" y1="572.6" x2="837.1" y2="825.2"/>
		<line class="st11" x1="1130.5" y1="572.6" x2="828.4" y2="814.7"/>
		<line class="st11" x1="1130.5" y1="572.6" x2="820.1" y2="804"/>
		<line class="st11" x1="1130.5" y1="572.6" x2="812.1" y2="792.9"/>
		<line class="st11" x1="1130.5" y1="572.6" x2="804.6" y2="781.6"/>
		<line class="st11" x1="1130.5" y1="572.6" x2="797.5" y2="770.1"/>
		<line class="st11" x1="1130.5" y1="572.6" x2="790.7" y2="758.3"/>
		<line class="st11" x1="1130.5" y1="572.6" x2="784.4" y2="746.2"/>
		<line class="st11" x1="1130.5" y1="572.6" x2="778.5" y2="734"/>
		<line class="st11" x1="1130.5" y1="572.6" x2="773.1" y2="721.5"/>
		<line class="st11" x1="1130.5" y1="572.6" x2="768.1" y2="708.9"/>
		<line class="st11" x1="1130.5" y1="572.6" x2="763.5" y2="696.1"/>
		<line class="st11" x1="1130.5" y1="572.6" x2="759.4" y2="683.1"/>
		<line class="st11" x1="1130.5" y1="572.6" x2="755.8" y2="670.1"/>
		<line class="st11" x1="1130.5" y1="572.6" x2="752.6" y2="656.8"/>
		<line class="st11" x1="1130.5" y1="572.6" x2="749.9" y2="643.5"/>
		<line class="st11" x1="1130.5" y1="572.6" x2="747.6" y2="630.1"/>
		<line class="st11" x1="1130.5" y1="572.6" x2="745.8" y2="616.7"/>
		<line class="st11" x1="1130.5" y1="572.6" x2="744.5" y2="603.1"/>
		<line class="st11" x1="1130.5" y1="572.6" x2="743.7" y2="589.6"/>
		<line class="st11" x1="1130.5" y1="572.6" x2="743.3" y2="576"/>
		<line class="st11" x1="1130.5" y1="572.6" x2="743.4" y2="562.4"/>
		<line class="st11" x1="1130.5" y1="572.6" x2="744" y2="548.8"/>
		<line class="st11" x1="1130.5" y1="572.6" x2="745.1" y2="535.3"/>
		<line class="st11" x1="1130.5" y1="572.6" x2="746.7" y2="521.8"/>
		<line class="st11" x1="1130.5" y1="572.6" x2="748.7" y2="508.3"/>
		<line class="st11" x1="1130.5" y1="572.6" x2="751.2" y2="495"/>
		<line class="st11" x1="1130.5" y1="572.6" x2="754.1" y2="481.7"/>
		<line class="st11" x1="1130.5" y1="572.6" x2="757.5" y2="468.6"/>
		<line class="st11" x1="1130.5" y1="572.6" x2="761.4" y2="455.5"/>
		<line class="st11" x1="1130.5" y1="572.6" x2="765.8" y2="442.7"/>
		<line class="st11" x1="1130.5" y1="572.6" x2="770.5" y2="429.9"/>
		<line class="st11" x1="1130.5" y1="572.6" x2="775.8" y2="417.4"/>
		<line class="st11" x1="1130.5" y1="572.6" x2="781.4" y2="405"/>
		<line class="st11" x1="1130.5" y1="572.6" x2="787.5" y2="392.9"/>
		<line class="st11" x1="1130.5" y1="572.6" x2="794" y2="381"/>
		<line class="st11" x1="1130.5" y1="572.6" x2="801" y2="369.3"/>
		<line class="st11" x1="1130.5" y1="572.6" x2="808.3" y2="357.8"/>
		<line class="st11" x1="1130.5" y1="572.6" x2="816.1" y2="346.7"/>
		<line class="st11" x1="1130.5" y1="572.6" x2="824.2" y2="335.8"/>
		<line class="st11" x1="1130.5" y1="572.6" x2="832.7" y2="325.2"/>
		<line class="st11" x1="1130.5" y1="572.6" x2="841.5" y2="314.9"/>
		<line class="st11" x1="1130.5" y1="572.6" x2="850.8" y2="304.9"/>
		<line class="st11" x1="1130.5" y1="572.6" x2="860.3" y2="295.2"/>
		<line class="st11" x1="1130.5" y1="572.6" x2="870.2" y2="285.9"/>
		<line class="st11" x1="1130.5" y1="572.6" x2="880.4" y2="277"/>
		<line class="st11" x1="1130.5" y1="572.6" x2="891" y2="268.4"/>
		<line class="st11" x1="1130.5" y1="572.6" x2="901.8" y2="260.2"/>
		<line class="st11" x1="1130.5" y1="572.6" x2="912.9" y2="252.3"/>
		<line class="st11" x1="1130.5" y1="572.6" x2="924.3" y2="244.9"/>
		<line class="st11" x1="1130.5" y1="572.6" x2="935.9" y2="237.9"/>
		<line class="st11" x1="1130.5" y1="572.6" x2="947.8" y2="231.2"/>
		<line class="st11" x1="1130.5" y1="572.6" x2="959.9" y2="225"/>
		<line class="st11" x1="1130.5" y1="572.6" x2="972.2" y2="219.3"/>
		<line class="st11" x1="1130.5" y1="572.6" x2="984.7" y2="213.9"/>
		<line class="st11" x1="1130.5" y1="572.6" x2="997.3" y2="209"/>
		<line class="st11" x1="1130.5" y1="572.6" x2="1010.2" y2="204.6"/>
		<line class="st11" x1="1130.5" y1="572.6" x2="1023.2" y2="200.6"/>
		<line class="st11" x1="1130.5" y1="572.6" x2="1036.3" y2="197.1"/>
		<line class="st11" x1="1130.5" y1="572.6" x2="1049.5" y2="194"/>
		<line class="st11" x1="1130.5" y1="572.6" x2="1062.9" y2="191.4"/>
		<line class="st11" x1="1130.5" y1="572.6" x2="1076.3" y2="189.2"/>
		<line class="st11" x1="1130.5" y1="572.6" x2="1089.8" y2="187.6"/>
		<line class="st11" x1="1130.5" y1="572.6" x2="1103.3" y2="186.4"/>
		<line class="st11" x1="1130.5" y1="572.6" x2="1116.9" y2="185.7"/>
		<line class="st12" x1="1111.5" y1="185.9" x2="1110.2" y2="160.1"/>
		<line class="st12" x1="1073.7" y1="189.6" x2="1068.2" y2="152.7"/>
		<line class="st12" x1="1036.4" y1="197" x2="1027" y2="159.5"/>
		<line class="st12" x1="1000" y1="208.1" x2="985.1" y2="166.2"/>
		<line class="st12" x1="964.9" y1="222.6" x2="939.8" y2="169.5"/>
		<line class="st12" x1="931.4" y1="240.5" x2="909.3" y2="203.6"/>
		<line class="st12" x1="899.8" y1="261.6" x2="853.7" y2="199.4"/>
		<line class="st12" x1="870.5" y1="285.7" x2="818.5" y2="228.3"/>
		<line class="st12" x1="843.6" y1="312.6" x2="800" y2="273.1"/>
		<line class="st12" x1="819.5" y1="342" x2="772.3" y2="306.9"/>
		<line class="st12" x1="798.4" y1="373.5" x2="746.7" y2="342.6"/>
		<line class="st12" x1="780.5" y1="407.1" x2="724.7" y2="380.7"/>
		<line class="st12" x1="765.9" y1="442.2" x2="695.7" y2="417"/>
		<line class="st12" x1="754.9" y1="478.5" x2="709" y2="467"/>
		<line class="st12" x1="747.5" y1="515.8" x2="673.7" y2="504.8"/>
		<line class="st12" x1="743.8" y1="553.6" x2="685.1" y2="550.7"/>
		<line class="st12" x1="743.8" y1="591.6" x2="683.6" y2="594.5"/>
		<line class="st12" x1="747.5" y1="629.4" x2="697.9" y2="636.8"/>
		<line class="st12" x1="754.9" y1="666.7" x2="721.5" y2="675"/>
		<line class="st12" x1="765.9" y1="703" x2="722.7" y2="718.5"/>
		<line class="st12" x1="780.5" y1="738.1" x2="758.4" y2="748.5"/>
		<line class="st12" x1="798.4" y1="771.6" x2="767.6" y2="790.1"/>
		<line class="st12" x1="819.5" y1="803.2" x2="804.5" y2="814.3"/>
		<line class="st12" x1="843.6" y1="832.6" x2="833" y2="842.2"/>
		<line class="st12" x1="870.5" y1="859.4" x2="860.8" y2="870.1"/>
		<line class="st12" x1="899.8" y1="883.6" x2="891.3" y2="895.1"/>
		<line class="st12" x1="931.4" y1="904.7" x2="925.5" y2="914.5"/>
		<line class="st12" x1="964.9" y1="922.6" x2="961.9" y2="929.1"/>
		<line class="st12" x1="1000" y1="937.1" x2="995.2" y2="950.6"/>
		<line class="st12" x1="1036.4" y1="948.1" x2="1035" y2="953.7"/>
		<line class="st12" x1="1073.7" y1="955.6" x2="1072.8" y2="961.2"/>
		<line class="st12" x1="1111.5" y1="959.3" x2="1111.3" y2="962.1"/>
		<line class="st12" x1="1149.5" y1="959.3" x2="1149.7" y2="963.6"/>
		<line class="st12" x1="1187.3" y1="955.6" x2="1187.5" y2="957"/>
		<line class="st12" x1="1224.5" y1="948.1" x2="1224.9" y2="949.5"/>
		<line class="st12" x1="1260.9" y1="937.1" x2="1261.9" y2="939.8"/>
		<line class="st12" x1="1296" y1="922.6" x2="1297.2" y2="925.2"/>
		<line class="st12" x1="1329.5" y1="904.7" x2="1330.2" y2="905.9"/>
		<line class="st12" x1="1361.1" y1="883.6" x2="1362.8" y2="885.9"/>
		<line class="st12" x1="1390.5" y1="859.4" x2="1391.4" y2="860.5"/>
		<line class="st12" x1="1417.3" y1="832.6" x2="1419.5" y2="834.5"/>
		<line class="st12" x1="1441.4" y1="803.2" x2="1442.6" y2="804.1"/>
		<line class="st12" x1="1462.5" y1="771.6" x2="1465" y2="773.1"/>
		<line class="st12" x1="1480.5" y1="738.1" x2="1481.7" y2="738.7"/>
		<line class="st12" x1="1495" y1="703" x2="1497.7" y2="704"/>
		<line class="st12" x1="1506" y1="666.7" x2="1507.4" y2="667"/>
		<line class="st12" x1="1517.2" y1="591.6" x2="1518.6" y2="591.7"/>
		<line class="st12" x1="1517.2" y1="553.6" x2="1518.6" y2="553.5"/>
		<line class="st12" x1="1513.4" y1="515.8" x2="1514.9" y2="515.6"/>
		<line class="st12" x1="1506" y1="478.5" x2="1511.6" y2="477.1"/>
		<line class="st12" x1="1495" y1="442.2" x2="1496.3" y2="441.7"/>
		<line class="st12" x1="1480.5" y1="407.1" x2="1483" y2="405.8"/>
		<line class="st12" x1="1462.5" y1="373.5" x2="1465" y2="372.1"/>
		<line class="st12" x1="1441.4" y1="342" x2="1443.7" y2="340.2"/>
		<line class="st12" x1="1417.3" y1="312.6" x2="1421.6" y2="308.7"/>
		<line class="st12" x1="1390.5" y1="285.7" x2="1396.2" y2="279.3"/>
		<line class="st12" x1="1361.1" y1="261.6" x2="1368.8" y2="251.2"/>
		<line class="st12" x1="1329.5" y1="240.5" x2="1336.9" y2="228.2"/>
		<line class="st12" x1="1296" y1="222.6" x2="1297.2" y2="220"/>
		<line class="st12" x1="1260.9" y1="208.1" x2="1267.2" y2="190.5"/>
		<line class="st12" x1="1224.5" y1="197" x2="1229.1" y2="178.9"/>
		<line class="st12" x1="1149.5" y1="185.9" x2="1150.8" y2="158.7"/>
	</g>
	<g transform="translate(609,324.285)">
		<circle class="st13" cx="885" cy="266.2" r="16.1"/>
		<circle class="st14" cx="885" cy="230.4" r="16.1"/>
		<circle class="st15" cx="881.5" cy="194.9" r="16.1"/>
		<circle class="st16" cx="874.5" cy="159.9" r="16.1"/>
		<circle class="st17" cx="864.2" cy="125.7" r="16.1"/>
		<circle class="st18" cx="850.5" cy="92.7" r="16.1"/>
		<circle class="st19" cx="833.7" cy="61.2" r="16.1"/>
		<circle class="st20" cx="813.8" cy="31.5" r="16.1"/>
		<circle class="st21" cx="791.2" cy="3.9" r="16.1"/>
		<circle class="st22" cx="765.9" cy="-21.4" r="16.1"/>
		<circle class="st23" cx="738.3" cy="-44.1" r="16.1"/>
		<circle class="st24" cx="708.6" cy="-63.9" r="16.1"/>
		<circle class="st25" cx="677.1" cy="-80.7" r="16.1"/>
		<circle class="st26" cx="644.1" cy="-94.4" r="16.1"/>
		<circle class="st27" cx="609.9" cy="-104.8" r="16.1"/>
		<circle class="st28" cx="574.9" cy="-111.8" r="16.1"/>
		<circle class="st29" cx="539.3" cy="-115.3" r="16.1"/>
		<circle class="st30" cx="503.6" cy="-115.3" r="16.1"/>
		<circle class="st31" cx="468.1" cy="-111.8" r="16.1"/>
		<circle class="st32" cx="433" cy="-104.8" r="16.1"/>
		<circle class="st33" cx="398.8" cy="-94.4" r="16.1"/>
		<circle class="st34" cx="365.8" cy="-80.7" r="16.1"/>
		<circle class="st35" cx="334.3" cy="-63.9" r="16.1"/>
		<circle class="st36" cx="304.6" cy="-44.1" r="16.1"/>
		<circle class="st37" cx="277" cy="-21.4" r="16.1"/>
		<circle class="st38" cx="251.8" cy="3.9" r="16.1"/>
		<circle class="st39" cx="229.1" cy="31.5" r="16.1"/>
		<circle class="st40" cx="209.3" cy="61.2" r="16.1"/>
		<circle class="st41" cx="192.4" cy="92.7" r="16.1"/>
		<circle class="st42" cx="178.8" cy="125.7" r="16.1"/>
		<circle class="st43" cx="168.4" cy="159.9" r="16.1"/>
		<circle class="st44" cx="161.4" cy="194.9" r="16.1"/>
		<circle class="st45" cx="157.9" cy="230.4" r="16.1"/>
		<circle class="st46" cx="157.9" cy="266.2" r="16.1"/>
		<circle class="st47" cx="161.4" cy="301.7" r="16.1"/>
		<circle class="st48" cx="168.4" cy="336.7" r="16.1"/>
		<circle class="st49" cx="178.8" cy="370.9" r="16.1"/>
		<circle class="st50" cx="192.4" cy="403.9" r="16.1"/>
		<circle class="st51" cx="209.3" cy="435.4" r="16.1"/>
		<circle class="st52" cx="229.1" cy="465.1" r="16.1"/>
		<circle class="st53" cx="251.8" cy="492.7" r="16.1"/>
		<circle class="st54" cx="277" cy="518" r="16.1"/>
		<circle class="st55" cx="304.6" cy="540.7" r="16.1"/>
		<circle class="st56" cx="334.3" cy="560.5" r="16.1"/>
		<circle class="st57" cx="365.8" cy="577.3" r="16.1"/>
		<circle class="st58" cx="398.8" cy="591" r="16.1"/>
		<circle class="st59" cx="433" cy="601.4" r="16.1"/>
		<circle class="st60" cx="468.1" cy="608.3" r="16.1"/>
		<circle class="st61" cx="503.6" cy="611.9" r="16.1"/>
		<circle class="st62" cx="539.3" cy="611.9" r="16.1"/>
		<circle class="st63" cx="574.9" cy="608.3" r="16.1"/>
		<circle class="st64" cx="609.9" cy="601.4" r="16.1"/>
		<circle class="st65" cx="644.1" cy="591" r="16.1"/>
		<circle class="st66" cx="677.1" cy="577.3" r="16.1"/>
		<circle class="st67" cx="708.6" cy="560.5" r="16.1"/>
		<circle class="st68" cx="738.3" cy="540.7" r="16.1"/>
		<circle class="st69" cx="765.9" cy="518" r="16.1"/>
		<circle class="st70" cx="791.2" cy="492.7" r="16.1"/>
		<circle class="st71" cx="813.8" cy="465.1" r="16.1"/>
		<circle class="st72" cx="833.7" cy="435.4" r="16.1"/>
		<circle class="st73" cx="850.5" cy="403.9" r="16.1"/>
		<circle class="st74" cx="864.2" cy="370.9" r="16.1"/>
		<circle class="st75" cx="874.5" cy="336.7" r="16.1"/>
		<circle class="st76" cx="881.5" cy="301.7" r="16.1"/>
	</g>
	<path class="st77" d="M1157.4,378l-1.9-0.3l-1.9-0.3l-1.9-0.2l-1.9-0.2l-1.9-0.2l-1.9-0.2l-1.9-0.2l-1.9-0.1l-1.9-0.1l-1.9-0.1
		l-1.9-0.1l-2-0.1l-2,0l-2,0l-2,0l-2,0l-2,0l-2,0.1l-1.9,0.1l-1.9,0.1l-1.9,0.1l-1.9,0.1l-1.9,0.1l-1.9,0.2l-1.9,0.2l-1.9,0.2
		l-1.9,0.2l-1.9,0.2l-1.9,0.3l-1.9,0.3l-1.9,0.3l-1.9,0.3l-1.9,0.3l-1.9,0.4l-1.9,0.4l-1.9,0.4l-1.9,0.4l-1.9,0.4l-1.9,0.5l-1.9,0.5
		l-1.9,0.5l-1.9,0.5l-1.9,0.5l-1.9,0.5l-1.9,0.6l-1.9,0.6l-1.9,0.6l-1.8,0.6l-1.8,0.6l-1.8,0.7l-1.8,0.7l-1.8,0.7l-1.8,0.7l-1.8,0.7
		l-1.8,0.7l-1.8,0.8l-1.8,0.8l-1.8,0.8l-1.8,0.8l-1.8,0.8l-1.8,0.9l-1.7,0.9l-1.7,0.9l-1.7,0.9l-1.7,0.9l-1.7,0.9l-1.7,1l-1.7,1
		l-1.7,1l-1.7,1l-1.7,1l-1.7,1l-1.6,1.1l-1.6,1.1l-1.6,1.1l-1.6,1.1l-1.6,1.1l-1.6,1.1l-1.6,1.2l-1.6,1.2l-1.6,1.2l-1.5,1.2
		l-1.5,1.2l-1.5,1.2l-1.5,1.2l-1.5,1.3l-1.5,1.3l-1.5,1.3l-1.5,1.3l-1.4,1.3l-1.4,1.3l-1.4,1.3l-1.4,1.4l-1.4,1.4l-1.4,1.4l-1.4,1.4
		l-1.3,1.4l-1.3,1.4l-1.3,1.4"/>
	<g>
		<g>
			<g>
				<line class="st78" x1="1127.8" y1="572.6" x2="1174.9" y2="254.7"/>
				<g>
					<polygon points="1182.1,261.3 1178.5,230.5 1166.2,258.9 					"/>
				</g>
			</g>
		</g>
		<g>
			<g>
				<line class="st78" x1="1127.8" y1="572.6" x2="889.7" y2="356.8"/>
				<g>
					<polygon points="899.1,354.5 871.6,340.4 888.3,366.4 					"/>
				</g>
			</g>
		</g>
	</g>
	<g transform="translate(420,315)">
		<circle cx="708.2" cy="258.2" r="4.5"/>
	</g>
</g>
<g id="Layer_4">
	<rect x="1763.9" y="94.2" class="st79" width="759.9" height="379.4"/>
	<line class="st80" x1="1763.9" y1="473.6" x2="2523.9" y2="473.6"/>
	<line class="st81" x1="1763.9" y1="473.6" x2="1763.9" y2="492.6"/>
	<line class="st81" x1="1890.6" y1="473.6" x2="1890.6" y2="492.6"/>
	<line class="st81" x1="2017.2" y1="473.6" x2="2017.2" y2="492.6"/>
	<line class="st81" x1="2143.9" y1="473.6" x2="2143.9" y2="492.6"/>
	<line class="st81" x1="2270.6" y1="473.6" x2="2270.6" y2="492.6"/>
	<line class="st81" x1="2397.2" y1="473.6" x2="2397.2" y2="492.6"/>
	<line class="st81" x1="2523.9" y1="473.6" x2="2523.9" y2="492.6"/>
	<text transform="matrix(0.9989 0 0 1 1760.8613 507.4033)" class="st82 st9 st83">0</text>
	<text transform="matrix(0.9989 0 0 1 1884.709 507.4033)" class="st82 st9 st83">60</text>
	<text transform="matrix(0.9989 0 0 1 2008.5576 507.4033)" class="st82 st9 st83">120</text>
	<text transform="matrix(0.9989 0 0 1 2135.2148 507.4033)" class="st82 st9 st83">180</text>
	<text transform="matrix(0.9989 0 0 1 2261.873 507.4033)" class="st82 st9 st83">240</text>
	<text transform="matrix(0.9989 0 0 1 2388.5293 507.4033)" class="st82 st9 st83">300</text>
	<text transform="matrix(0.9989 0 0 1 2515.1875 507.4033)" class="st82 st9 st83">360</text>
	<text transform="matrix(0.9989 0 0 1 2031.9238 555.1992)" class="st82 st9 st84">Hue Angle (</text>
	<text transform="matrix(0.5824 0 0 0.583 2252.0117 541.3057)" class="st82 st9 st84">o</text>
	<text transform="matrix(0.9989 0 0 1 2265.5244 555.1992)" class="st82 st9 st84">)</text>
	<line class="st80" x1="1763.9" y1="473.6" x2="1763.9" y2="94.2"/>
	<line class="st80" x1="1763.9" y1="473.6" x2="1744.9" y2="473.6"/>
	<line class="st80" x1="1763.9" y1="378.7" x2="1744.9" y2="378.7"/>
	<line class="st80" x1="1763.9" y1="283.9" x2="1744.9" y2="283.9"/>
	<line class="st80" x1="1763.9" y1="189" x2="1744.9" y2="189"/>
	<line class="st80" x1="1763.9" y1="94.2" x2="1744.9" y2="94.2"/>
	<text transform="matrix(0.9989 0 0 1 1726.0303 477.6465)" class="st82 st9 st83">-50</text>
	<text transform="matrix(0.9989 0 0 1 1726.0303 382.8047)" class="st82 st9 st83">-25</text>
	<text transform="matrix(0.9989 0 0 1 1734.7129 287.9634)" class="st82 st9 st83">0</text>
	<text transform="matrix(0.9989 0 0 1 1729.0947 193.1211)" class="st82 st9 st83">25</text>
	<text transform="matrix(0.9989 0 0 1 1729.0947 98.2798)" class="st82 st9 st83">50</text>
	<text transform="matrix(-4.250000e-08 -1.0011 1 -4.500000e-08 1721.0345 342.1212)" class="st82 st9 st84">Bias (</text>
	<text transform="matrix(-2.477750e-08 -0.5836 0.583 -2.623500e-08 1707.141 235.3536)" class="st82 st9 st84">o</text>
	<text transform="matrix(-4.250000e-08 -1.0011 1 -4.500000e-08 1721.0345 221.8106)" class="st82 st9 st84">)</text>
	<ellipse class="st85" cx="1763.9" cy="236.1" rx="5.1" ry="5.1"/>
	<ellipse class="st86" cx="1775.8" cy="223.4" rx="5.1" ry="5.1"/>
	<ellipse class="st87" cx="1787.7" cy="235.3" rx="5.1" ry="5.1"/>
	<ellipse class="st88" cx="1799.5" cy="255.3" rx="5.1" ry="5.1"/>
	<ellipse class="st89" cx="1811.4" cy="248" rx="5.1" ry="5.1"/>
	<ellipse class="st90" cx="1823.3" cy="257.9" rx="5.1" ry="5.1"/>
	<ellipse class="st91" cx="1835.2" cy="261.5" rx="5.1" ry="5.1"/>
	<ellipse class="st92" cx="1847" cy="263.8" rx="5.1" ry="5.1"/>
	<ellipse class="st93" cx="1858.9" cy="285.5" rx="5.1" ry="5.1"/>
	<ellipse class="st94" cx="1870.8" cy="310.1" rx="5.1" ry="5.1"/>
	<ellipse class="st95" cx="1882.7" cy="294.9" rx="5.1" ry="5.1"/>
	<ellipse class="st96" cx="1894.5" cy="290.7" rx="5.1" ry="5.1"/>
	<ellipse class="st97" cx="1906.4" cy="296.7" rx="5.1" ry="5.1"/>
	<ellipse class="st98" cx="1918.3" cy="303.3" rx="5.1" ry="5.1"/>
	<ellipse class="st99" cx="1930.2" cy="309.1" rx="5.1" ry="5.1"/>
	<ellipse class="st100" cx="1942" cy="300.2" rx="5.1" ry="5.1"/>
	<ellipse class="st101" cx="1953.9" cy="286.5" rx="5.1" ry="5.1"/>
	<ellipse class="st102" cx="1965.8" cy="298.2" rx="5.1" ry="5.1"/>
	<ellipse class="st103" cx="1977.7" cy="280.8" rx="5.1" ry="5.1"/>
	<ellipse class="st104" cx="1989.5" cy="270.5" rx="5.1" ry="5.1"/>
	<ellipse class="st105" cx="2001.4" cy="273.7" rx="5.1" ry="5.1"/>
	<ellipse class="st106" cx="2013.3" cy="254.8" rx="5.1" ry="5.1"/>
	<ellipse class="st107" cx="2025.2" cy="262.9" rx="5.1" ry="5.1"/>
	<ellipse class="st108" cx="2037" cy="230.2" rx="5.1" ry="5.1"/>
	<ellipse class="st109" cx="2048.9" cy="258.3" rx="5.1" ry="5.1"/>
	<ellipse class="st110" cx="2060.8" cy="172.1" rx="5.1" ry="5.1"/>
	
		<ellipse transform="matrix(1.384275e-03 -1 1 1.384275e-03 1911.0631 2231.1511)" class="st111" cx="2072.7" cy="158.7" rx="5.1" ry="5.1"/>
	
		<ellipse transform="matrix(1.384275e-03 -1 1 1.384275e-03 1919.8936 2246.0483)" class="st112" cx="2084.5" cy="161.7" rx="5.1" ry="5.1"/>
	<ellipse class="st113" cx="2096.4" cy="170.3" rx="5.1" ry="5.1"/>
	
		<ellipse transform="matrix(1.384275e-03 -1 1 1.384275e-03 1945.6428 2267.7654)" class="st114" cx="2108.3" cy="159.7" rx="5.1" ry="5.1"/>
	<ellipse class="st115" cx="2120.1" cy="212.9" rx="5.1" ry="5.1"/>
	<ellipse class="st116" cx="2132" cy="213.3" rx="5.1" ry="5.1"/>
	<ellipse class="st117" cx="2143.9" cy="225.7" rx="5.1" ry="5.1"/>
	<ellipse class="st118" cx="2155.8" cy="243.6" rx="5.1" ry="5.1"/>
	<ellipse class="st119" cx="2167.6" cy="248.9" rx="5.1" ry="5.1"/>
	<ellipse class="st120" cx="2179.5" cy="256.6" rx="5.1" ry="5.1"/>
	<ellipse class="st121" cx="2191.4" cy="268.8" rx="5.1" ry="5.1"/>
	<ellipse class="st122" cx="2203.3" cy="295.7" rx="5.1" ry="5.1"/>
	<ellipse class="st123" cx="2215.1" cy="317.1" rx="5.1" ry="5.1"/>
	<ellipse class="st124" cx="2227" cy="337" rx="5.1" ry="5.1"/>
	<ellipse class="st125" cx="2238.9" cy="349.7" rx="5.1" ry="5.1"/>
	<ellipse class="st126" cx="2250.8" cy="372.1" rx="5.1" ry="5.1"/>
	<ellipse class="st127" cx="2262.6" cy="385.4" rx="5.1" ry="5.1"/>
	<ellipse class="st128" cx="2274.5" cy="384.4" rx="5.1" ry="5.1"/>
	<ellipse class="st129" cx="2286.4" cy="417.9" rx="5.1" ry="5.1"/>
	<ellipse class="st130" cx="2298.3" cy="420.8" rx="5.1" ry="5.1"/>
	<ellipse class="st131" cx="2310.1" cy="439.4" rx="5.1" ry="5.1"/>
	<ellipse class="st132" cx="2322" cy="444.5" rx="5.1" ry="5.1"/>
	<ellipse class="st133" cx="2333.9" cy="396.7" rx="5.1" ry="5.1"/>
	<ellipse class="st134" cx="2345.8" cy="331.1" rx="5.1" ry="5.1"/>
	<ellipse class="st135" cx="2357.6" cy="308.9" rx="5.1" ry="5.1"/>
	<ellipse class="st136" cx="2369.5" cy="292.6" rx="5.1" ry="5.1"/>
	<ellipse class="st137" cx="2381.4" cy="276.8" rx="5.1" ry="5.1"/>
	<ellipse class="st138" cx="2393.3" cy="284.3" rx="5.1" ry="5.1"/>
	<ellipse class="st139" cx="2405.1" cy="274.8" rx="5.1" ry="5.1"/>
	<ellipse class="st140" cx="2417" cy="260.9" rx="5.1" ry="5.1"/>
	<ellipse class="st141" cx="2428.9" cy="267.6" rx="5.1" ry="5.1"/>
	<ellipse class="st142" cx="2440.8" cy="244.4" rx="5.1" ry="5.1"/>
	<ellipse class="st143" cx="2452.6" cy="222.3" rx="5.1" ry="5.1"/>
	<ellipse class="st144" cx="2464.5" cy="222.2" rx="5.1" ry="5.1"/>
	<ellipse class="st145" cx="2476.4" cy="243.8" rx="5.1" ry="5.1"/>
	<ellipse class="st146" cx="2488.2" cy="246.3" rx="5.1" ry="5.1"/>
	<ellipse class="st147" cx="2500.1" cy="274.5" rx="5.1" ry="5.1"/>
	<ellipse class="st148" cx="2512" cy="263" rx="5.1" ry="5.1"/>
	<polyline class="st149" points="1763.9,246.5 1775.8,242.6 1787.7,239.6 1799.5,244 1811.4,251.6 1823.3,257.3 1835.2,263.4 
		1847,275.8 1858.9,283.2 1870.8,289 1882.7,295.6 1894.5,299.1 1906.4,298.9 1918.3,300 1930.2,299.2 1942,299.4 1953.9,294.9 
		1965.8,287.2 1977.7,281.9 1989.5,275.6 2001.4,268.6 2013.3,258.4 2025.2,256 2037,235.7 2048.9,216.4 2060.8,196.2 2072.7,184.2 
		2084.5,164.5 2096.4,172.7 2108.3,183.6 2120.1,196.4 2132,211.1 2143.9,228.9 2155.8,237.6 2167.6,248.7 2179.5,262.7 
		2191.4,277.4 2203.3,295 2215.1,313.6 2227,334.3 2238.9,352.3 2250.8,365.7 2262.6,381.9 2274.5,396.1 2286.4,409.6 2298.3,421.4 
		2310.1,423.8 2322,406.5 2333.9,384.1 2345.8,354.7 2357.6,321.2 2369.5,298.8 2381.4,287.5 2393.3,277.9 2405.1,272.9 2417,266.4 
		2428.9,254 2440.8,243.5 2452.6,240.1 2464.5,235.8 2476.4,241.8 2488.2,250 2500.1,252.7 2512,248.7 	"/>
	<line class="st150" x1="1763.9" y1="283.9" x2="2523.9" y2="283.9"/>
</g>
</svg>
