<?xml version="1.0" encoding="utf-8"?>
<!-- Generator: Adobe Illustrator 26.0.2, SVG Export Plug-In . SVG Version: 6.00 Build 0)  -->
<svg version="1.1" id="Layer_1" xmlns="http://www.w3.org/2000/svg" xmlns:xlink="http://www.w3.org/1999/xlink" x="0px" y="0px"
	 viewBox="0 0 840 630" style="enable-background:new 0 0 840 630;" xml:space="preserve">
<style type="text/css">
	.st0{fill:none;stroke:#FFFFFF;stroke-width:6;stroke-linejoin:round;stroke-miterlimit:10;}
	.st1{fill:none;stroke:#000000;stroke-width:7.375;stroke-linejoin:round;stroke-miterlimit:10;}
	.st2{fill:#FCA1BD;}
	.st3{fill:#FEA1B6;}
	.st4{fill:#FFA1B0;}
	.st5{fill:#FFA2A9;}
	.st6{fill:#FFA3A3;}
	.st7{fill:#FEA49D;}
	.st8{fill:#FDA597;}
	.st9{fill:#FBA792;}
	.st10{fill:#F8A88D;}
	.st11{fill:#F5AA88;}
	.st12{fill:#F1AC84;}
	.st13{fill:#EDAE80;}
	.st14{fill:#E9B17D;}
	.st15{fill:#E4B37B;}
	.st16{fill:#DEB579;}
	.st17{fill:#D9B777;}
	.st18{fill:#D3B977;}
	.st19{fill:#CCBC77;}
	.st20{fill:#C6BE78;}
	.st21{fill:#BFC079;}
	.st22{fill:#B8C17B;}
	.st23{fill:#B1C37E;}
	.st24{fill:#AAC582;}
	.st25{fill:#A3C686;}
	.st26{fill:#9BC88A;}
	.st27{fill:#94C98F;}
	.st28{fill:#8CCA94;}
	.st29{fill:#84CB9A;}
	.st30{fill:#7CCCA0;}
	.st31{fill:#74CDA7;}
	.st32{fill:#6CCDAD;}
	.st33{fill:#64CEB4;}
	.st34{fill:#5CCEBA;}
	.st35{fill:#55CEC1;}
	.st36{fill:#4ECEC8;}
	.st37{fill:#48CECE;}
	.st38{fill:#43CED4;}
	.st39{fill:#40CDDB;}
	.st40{fill:#3FCDE0;}
	.st41{fill:#40CCE6;}
	.st42{fill:#44CBEB;}
	.st43{fill:#4ACAEF;}
	.st44{fill:#51C9F3;}
	.st45{fill:#5AC8F7;}
	.st46{fill:#63C6FA;}
	.st47{fill:#6DC5FC;}
	.st48{fill:#77C3FE;}
	.st49{fill:#82C1FF;}
	.st50{fill:#8CBFFF;}
	.st51{fill:#96BDFF;}
	.st52{fill:#A0BAFE;}
	.st53{fill:#AAB8FD;}
	.st54{fill:#B4B6FB;}
	.st55{fill:#BDB4F8;}
	.st56{fill:#C6B1F4;}
	.st57{fill:#CEAFF0;}
	.st58{fill:#D5ADEC;}
	.st59{fill:#DCABE7;}
	.st60{fill:#E3A9E2;}
	.st61{fill:#E9A7DC;}
	.st62{fill:#EEA5D6;}
	.st63{fill:#F2A4D0;}
	.st64{fill:#F6A3CA;}
	.st65{fill:#F9A2C3;}
	.st66{fill:#B3B3B3;}
	.st67{fill:none;stroke:#000000;stroke-width:4;stroke-linejoin:round;stroke-miterlimit:10;}
</style>
<g>
	<line class="st0" x1="423.5" y1="315.9" x2="423.5" y2="114.6"/>
	<line class="st0" x1="423.5" y1="315.9" x2="430.6" y2="114.7"/>
	<line class="st0" x1="423.5" y1="315.9" x2="437.7" y2="115.1"/>
	<line class="st0" x1="423.5" y1="315.9" x2="444.7" y2="115.7"/>
	<line class="st0" x1="423.5" y1="315.9" x2="451.7" y2="116.6"/>
	<line class="st0" x1="423.5" y1="315.9" x2="458.7" y2="117.7"/>
	<line class="st0" x1="423.5" y1="315.9" x2="465.6" y2="119.1"/>
	<line class="st0" x1="423.5" y1="315.9" x2="472.5" y2="120.7"/>
	<line class="st0" x1="423.5" y1="315.9" x2="479.3" y2="122.5"/>
	<line class="st0" x1="423.5" y1="315.9" x2="486.1" y2="124.6"/>
	<line class="st0" x1="423.5" y1="315.9" x2="492.7" y2="126.9"/>
	<line class="st0" x1="423.5" y1="315.9" x2="499.3" y2="129.4"/>
	<line class="st0" x1="423.5" y1="315.9" x2="505.8" y2="132.2"/>
	<line class="st0" x1="423.5" y1="315.9" x2="512.2" y2="135.2"/>
	<line class="st0" x1="423.5" y1="315.9" x2="518.5" y2="138.4"/>
	<line class="st0" x1="423.5" y1="315.9" x2="524.7" y2="141.9"/>
	<line class="st0" x1="423.5" y1="315.9" x2="530.7" y2="145.5"/>
	<line class="st0" x1="423.5" y1="315.9" x2="536.6" y2="149.4"/>
	<line class="st0" x1="423.5" y1="315.9" x2="542.4" y2="153.5"/>
	<line class="st0" x1="423.5" y1="315.9" x2="548" y2="157.7"/>
	<line class="st0" x1="423.5" y1="315.9" x2="553.5" y2="162.2"/>
	<line class="st0" x1="423.5" y1="315.9" x2="558.8" y2="166.9"/>
	<line class="st0" x1="423.5" y1="315.9" x2="564" y2="171.7"/>
	<line class="st0" x1="423.5" y1="315.9" x2="568.9" y2="176.7"/>
	<line class="st0" x1="423.5" y1="315.9" x2="573.7" y2="181.9"/>
	<line class="st0" x1="423.5" y1="315.9" x2="578.3" y2="187.3"/>
	<line class="st0" x1="423.5" y1="315.9" x2="582.8" y2="192.8"/>
	<line class="st0" x1="423.5" y1="315.9" x2="587" y2="198.4"/>
	<line class="st0" x1="423.5" y1="315.9" x2="591" y2="204.2"/>
	<line class="st0" x1="423.5" y1="315.9" x2="594.8" y2="210.2"/>
	<line class="st0" x1="423.5" y1="315.9" x2="598.4" y2="216.3"/>
	<line class="st0" x1="423.5" y1="315.9" x2="601.8" y2="222.5"/>
	<line class="st0" x1="423.5" y1="315.9" x2="605" y2="228.8"/>
	<line class="st0" x1="423.5" y1="315.9" x2="607.9" y2="235.2"/>
	<line class="st0" x1="423.5" y1="315.9" x2="610.6" y2="241.7"/>
	<line class="st0" x1="423.5" y1="315.9" x2="613.1" y2="248.3"/>
	<line class="st0" x1="423.5" y1="315.9" x2="615.4" y2="255"/>
	<line class="st0" x1="423.5" y1="315.9" x2="617.4" y2="261.8"/>
	<line class="st0" x1="423.5" y1="315.9" x2="619.2" y2="268.6"/>
	<line class="st0" x1="423.5" y1="315.9" x2="620.7" y2="275.5"/>
	<line class="st0" x1="423.5" y1="315.9" x2="622" y2="282.5"/>
	<line class="st0" x1="423.5" y1="315.9" x2="623.1" y2="289.5"/>
	<line class="st0" x1="423.5" y1="315.9" x2="623.9" y2="296.5"/>
	<line class="st0" x1="423.5" y1="315.9" x2="624.4" y2="303.5"/>
	<line class="st0" x1="423.5" y1="315.9" x2="624.7" y2="310.6"/>
	<line class="st0" x1="423.5" y1="315.9" x2="624.8" y2="317.6"/>
	<line class="st0" x1="423.5" y1="315.9" x2="624.6" y2="324.7"/>
	<line class="st0" x1="423.5" y1="315.9" x2="624.2" y2="331.8"/>
	<line class="st0" x1="423.5" y1="315.9" x2="623.5" y2="338.8"/>
	<line class="st0" x1="423.5" y1="315.9" x2="622.6" y2="345.8"/>
	<line class="st0" x1="423.5" y1="315.9" x2="621.4" y2="352.8"/>
	<line class="st0" x1="423.5" y1="315.9" x2="620" y2="359.7"/>
	<line class="st0" x1="423.5" y1="315.9" x2="618.3" y2="366.6"/>
	<line class="st0" x1="423.5" y1="315.9" x2="616.4" y2="373.4"/>
	<line class="st0" x1="423.5" y1="315.9" x2="614.3" y2="380.1"/>
	<line class="st0" x1="423.5" y1="315.9" x2="611.9" y2="386.7"/>
	<line class="st0" x1="423.5" y1="315.9" x2="609.3" y2="393.3"/>
	<line class="st0" x1="423.5" y1="315.9" x2="606.5" y2="399.8"/>
	<line class="st0" x1="423.5" y1="315.9" x2="603.4" y2="406.2"/>
	<line class="st0" x1="423.5" y1="315.9" x2="600.1" y2="412.4"/>
	<line class="st0" x1="423.5" y1="315.9" x2="596.6" y2="418.6"/>
	<line class="st0" x1="423.5" y1="315.9" x2="592.9" y2="424.6"/>
	<line class="st0" x1="423.5" y1="315.9" x2="589" y2="430.4"/>
	<line class="st0" x1="423.5" y1="315.9" x2="584.9" y2="436.2"/>
	<line class="st0" x1="423.5" y1="315.9" x2="580.6" y2="441.8"/>
	<line class="st0" x1="423.5" y1="315.9" x2="576.1" y2="447.2"/>
	<line class="st0" x1="423.5" y1="315.9" x2="571.4" y2="452.5"/>
	<line class="st0" x1="423.5" y1="315.9" x2="566.5" y2="457.6"/>
	<line class="st0" x1="423.5" y1="315.9" x2="561.4" y2="462.5"/>
	<line class="st0" x1="423.5" y1="315.9" x2="556.2" y2="467.3"/>
	<line class="st0" x1="423.5" y1="315.9" x2="550.8" y2="471.8"/>
	<line class="st0" x1="423.5" y1="315.9" x2="545.2" y2="476.2"/>
	<line class="st0" x1="423.5" y1="315.9" x2="539.5" y2="480.4"/>
	<line class="st0" x1="423.5" y1="315.9" x2="533.7" y2="484.3"/>
	<line class="st0" x1="423.5" y1="315.9" x2="527.7" y2="488.1"/>
	<line class="st0" x1="423.5" y1="315.9" x2="521.6" y2="491.6"/>
	<line class="st0" x1="423.5" y1="315.9" x2="515.4" y2="495"/>
	<line class="st0" x1="423.5" y1="315.9" x2="509" y2="498.1"/>
	<line class="st0" x1="423.5" y1="315.9" x2="502.6" y2="501"/>
	<line class="st0" x1="423.5" y1="315.9" x2="496" y2="503.6"/>
	<line class="st0" x1="423.5" y1="315.9" x2="489.4" y2="506.1"/>
	<line class="st0" x1="423.5" y1="315.9" x2="482.7" y2="508.3"/>
	<line class="st0" x1="423.5" y1="315.9" x2="475.9" y2="510.2"/>
	<line class="st0" x1="423.5" y1="315.9" x2="469.1" y2="511.9"/>
	<line class="st0" x1="423.5" y1="315.9" x2="462.1" y2="513.4"/>
	<line class="st0" x1="423.5" y1="315.9" x2="455.2" y2="514.7"/>
	<line class="st0" x1="423.5" y1="315.9" x2="448.2" y2="515.6"/>
	<line class="st0" x1="423.5" y1="315.9" x2="441.2" y2="516.4"/>
	<line class="st0" x1="423.5" y1="315.9" x2="434.1" y2="516.9"/>
	<line class="st0" x1="423.5" y1="315.9" x2="427.1" y2="517.1"/>
	<line class="st0" x1="423.5" y1="315.9" x2="420" y2="517.1"/>
	<line class="st0" x1="423.5" y1="315.9" x2="412.9" y2="516.9"/>
	<line class="st0" x1="423.5" y1="315.9" x2="405.9" y2="516.4"/>
	<line class="st0" x1="423.5" y1="315.9" x2="398.9" y2="515.6"/>
	<line class="st0" x1="423.5" y1="315.9" x2="391.9" y2="514.7"/>
	<line class="st0" x1="423.5" y1="315.9" x2="384.9" y2="513.4"/>
	<line class="st0" x1="423.5" y1="315.9" x2="378" y2="511.9"/>
	<line class="st0" x1="423.5" y1="315.9" x2="371.2" y2="510.2"/>
	<line class="st0" x1="423.5" y1="315.9" x2="364.4" y2="508.3"/>
	<line class="st0" x1="423.5" y1="315.9" x2="357.7" y2="506.1"/>
	<line class="st0" x1="423.5" y1="315.9" x2="351" y2="503.6"/>
	<line class="st0" x1="423.5" y1="315.9" x2="344.5" y2="501"/>
	<line class="st0" x1="423.5" y1="315.9" x2="338" y2="498.1"/>
	<line class="st0" x1="423.5" y1="315.9" x2="331.7" y2="495"/>
	<line class="st0" x1="423.5" y1="315.9" x2="325.5" y2="491.6"/>
	<line class="st0" x1="423.5" y1="315.9" x2="319.3" y2="488.1"/>
	<line class="st0" x1="423.5" y1="315.9" x2="313.4" y2="484.3"/>
	<line class="st0" x1="423.5" y1="315.9" x2="307.5" y2="480.4"/>
	<line class="st0" x1="423.5" y1="315.9" x2="301.8" y2="476.2"/>
	<line class="st0" x1="423.5" y1="315.9" x2="296.3" y2="471.8"/>
	<line class="st0" x1="423.5" y1="315.9" x2="290.9" y2="467.3"/>
	<line class="st0" x1="423.5" y1="315.9" x2="285.6" y2="462.5"/>
	<line class="st0" x1="423.5" y1="315.9" x2="280.6" y2="457.6"/>
	<line class="st0" x1="423.5" y1="315.9" x2="275.7" y2="452.5"/>
	<line class="st0" x1="423.5" y1="315.9" x2="271" y2="447.2"/>
	<line class="st0" x1="423.5" y1="315.9" x2="266.5" y2="441.8"/>
	<line class="st0" x1="423.5" y1="315.9" x2="262.2" y2="436.2"/>
	<line class="st0" x1="423.5" y1="315.9" x2="258" y2="430.4"/>
	<line class="st0" x1="423.5" y1="315.9" x2="254.1" y2="424.6"/>
	<line class="st0" x1="423.5" y1="315.9" x2="250.4" y2="418.6"/>
	<line class="st0" x1="423.5" y1="315.9" x2="246.9" y2="412.4"/>
	<line class="st0" x1="423.5" y1="315.9" x2="243.6" y2="406.2"/>
	<line class="st0" x1="423.5" y1="315.9" x2="240.6" y2="399.8"/>
	<line class="st0" x1="423.5" y1="315.9" x2="237.7" y2="393.3"/>
	<line class="st0" x1="423.5" y1="315.9" x2="235.1" y2="386.7"/>
	<line class="st0" x1="423.5" y1="315.9" x2="232.8" y2="380.1"/>
	<line class="st0" x1="423.5" y1="315.9" x2="230.6" y2="373.4"/>
	<line class="st0" x1="423.5" y1="315.9" x2="228.7" y2="366.6"/>
	<line class="st0" x1="423.5" y1="315.9" x2="227.1" y2="359.7"/>
	<line class="st0" x1="423.5" y1="315.9" x2="225.7" y2="352.8"/>
	<line class="st0" x1="423.5" y1="315.9" x2="224.5" y2="345.8"/>
	<line class="st0" x1="423.5" y1="315.9" x2="223.6" y2="338.8"/>
	<line class="st0" x1="423.5" y1="315.9" x2="222.9" y2="331.8"/>
	<line class="st0" x1="423.5" y1="315.9" x2="222.5" y2="324.7"/>
	<line class="st0" x1="423.5" y1="315.9" x2="222.3" y2="317.6"/>
	<line class="st0" x1="423.5" y1="315.9" x2="222.3" y2="310.6"/>
	<line class="st0" x1="423.5" y1="315.9" x2="222.6" y2="303.5"/>
	<line class="st0" x1="423.5" y1="315.9" x2="223.2" y2="296.5"/>
	<line class="st0" x1="423.5" y1="315.9" x2="224" y2="289.5"/>
	<line class="st0" x1="423.5" y1="315.9" x2="225.1" y2="282.5"/>
	<line class="st0" x1="423.5" y1="315.9" x2="226.3" y2="275.5"/>
	<line class="st0" x1="423.5" y1="315.9" x2="227.9" y2="268.6"/>
	<line class="st0" x1="423.5" y1="315.9" x2="229.7" y2="261.8"/>
	<line class="st0" x1="423.5" y1="315.9" x2="231.7" y2="255"/>
	<line class="st0" x1="423.5" y1="315.9" x2="233.9" y2="248.3"/>
	<line class="st0" x1="423.5" y1="315.9" x2="236.4" y2="241.7"/>
	<line class="st0" x1="423.5" y1="315.9" x2="239.1" y2="235.2"/>
	<line class="st0" x1="423.5" y1="315.9" x2="242.1" y2="228.8"/>
	<line class="st0" x1="423.5" y1="315.9" x2="245.3" y2="222.5"/>
	<line class="st0" x1="423.5" y1="315.9" x2="248.6" y2="216.3"/>
	<line class="st0" x1="423.5" y1="315.9" x2="252.2" y2="210.2"/>
	<line class="st0" x1="423.5" y1="315.9" x2="256.1" y2="204.2"/>
	<line class="st0" x1="423.5" y1="315.9" x2="260.1" y2="198.4"/>
	<line class="st0" x1="423.5" y1="315.9" x2="264.3" y2="192.8"/>
	<line class="st0" x1="423.5" y1="315.9" x2="268.7" y2="187.3"/>
	<line class="st0" x1="423.5" y1="315.9" x2="273.3" y2="181.9"/>
	<line class="st0" x1="423.5" y1="315.9" x2="278.1" y2="176.7"/>
	<line class="st0" x1="423.5" y1="315.9" x2="283.1" y2="171.7"/>
	<line class="st0" x1="423.5" y1="315.9" x2="288.2" y2="166.9"/>
	<line class="st0" x1="423.5" y1="315.9" x2="293.6" y2="162.2"/>
	<line class="st0" x1="423.5" y1="315.9" x2="299" y2="157.7"/>
	<line class="st0" x1="423.5" y1="315.9" x2="304.7" y2="153.5"/>
	<line class="st0" x1="423.5" y1="315.9" x2="310.4" y2="149.4"/>
	<line class="st0" x1="423.5" y1="315.9" x2="316.3" y2="145.5"/>
	<line class="st0" x1="423.5" y1="315.9" x2="322.4" y2="141.9"/>
	<line class="st0" x1="423.5" y1="315.9" x2="328.6" y2="138.4"/>
	<line class="st0" x1="423.5" y1="315.9" x2="334.8" y2="135.2"/>
	<line class="st0" x1="423.5" y1="315.9" x2="341.2" y2="132.2"/>
	<line class="st0" x1="423.5" y1="315.9" x2="347.7" y2="129.4"/>
	<line class="st0" x1="423.5" y1="315.9" x2="354.3" y2="126.9"/>
	<line class="st0" x1="423.5" y1="315.9" x2="361" y2="124.6"/>
	<line class="st0" x1="423.5" y1="315.9" x2="367.8" y2="122.5"/>
	<line class="st0" x1="423.5" y1="315.9" x2="374.6" y2="120.7"/>
	<line class="st0" x1="423.5" y1="315.9" x2="381.5" y2="119.1"/>
	<line class="st0" x1="423.5" y1="315.9" x2="388.4" y2="117.7"/>
	<line class="st0" x1="423.5" y1="315.9" x2="395.4" y2="116.6"/>
	<line class="st0" x1="423.5" y1="315.9" x2="402.4" y2="115.7"/>
	<line class="st0" x1="423.5" y1="315.9" x2="409.4" y2="115.1"/>
	<line class="st0" x1="423.5" y1="315.9" x2="416.5" y2="114.7"/>
	<line class="st1" x1="413.7" y1="114.9" x2="413" y2="101.5"/>
	<line class="st1" x1="394" y1="116.8" x2="391.2" y2="97.6"/>
	<line class="st1" x1="374.6" y1="120.6" x2="369.7" y2="101.1"/>
	<line class="st1" x1="355.7" y1="126.4" x2="347.9" y2="104.6"/>
	<line class="st1" x1="337.5" y1="133.9" x2="324.4" y2="106.3"/>
	<line class="st1" x1="320.1" y1="143.2" x2="308.6" y2="124.1"/>
	<line class="st1" x1="303.6" y1="154.2" x2="279.7" y2="121.9"/>
	<line class="st1" x1="288.4" y1="166.7" x2="261.3" y2="136.9"/>
	<line class="st1" x1="274.4" y1="180.7" x2="251.8" y2="160.2"/>
	<line class="st1" x1="261.9" y1="196" x2="237.3" y2="177.8"/>
	<line class="st1" x1="250.9" y1="212.4" x2="224" y2="196.3"/>
	<line class="st1" x1="241.6" y1="229.8" x2="212.6" y2="216.1"/>
	<line class="st1" x1="234" y1="248.1" x2="197.5" y2="235"/>
	<line class="st1" x1="228.3" y1="267" x2="204.4" y2="261"/>
	<line class="st1" x1="224.4" y1="286.4" x2="186.1" y2="280.7"/>
	<line class="st1" x1="222.5" y1="306" x2="192" y2="304.5"/>
	<line class="st1" x1="222.5" y1="325.8" x2="191.2" y2="327.3"/>
	<line class="st1" x1="224.4" y1="345.4" x2="198.6" y2="349.2"/>
	<line class="st1" x1="228.3" y1="364.8" x2="210.9" y2="369.1"/>
	<line class="st1" x1="234" y1="383.7" x2="211.6" y2="391.7"/>
	<line class="st1" x1="241.6" y1="401.9" x2="230.1" y2="407.4"/>
	<line class="st1" x1="250.9" y1="419.4" x2="234.9" y2="428.9"/>
	<line class="st1" x1="261.9" y1="435.8" x2="254.1" y2="441.6"/>
	<line class="st1" x1="274.4" y1="451" x2="268.9" y2="456.1"/>
	<line class="st1" x1="288.4" y1="465" x2="283.4" y2="470.5"/>
	<line class="st1" x1="303.6" y1="477.5" x2="299.2" y2="483.5"/>
	<line class="st1" x1="320.1" y1="488.5" x2="317" y2="493.6"/>
	<line class="st1" x1="337.5" y1="497.8" x2="335.9" y2="501.2"/>
	<line class="st1" x1="355.7" y1="505.4" x2="353.2" y2="512.4"/>
	<line class="st1" x1="374.6" y1="511.1" x2="373.9" y2="514"/>
	<line class="st1" x1="394" y1="515" x2="393.6" y2="517.9"/>
	<line class="st1" x1="413.7" y1="516.9" x2="413.6" y2="518.4"/>
	<line class="st1" x1="433.4" y1="516.9" x2="433.5" y2="519.1"/>
	<line class="st1" x1="453.1" y1="515" x2="453.2" y2="515.7"/>
	<line class="st1" x1="472.4" y1="511.1" x2="472.6" y2="511.8"/>
	<line class="st1" x1="491.3" y1="505.4" x2="491.8" y2="506.8"/>
	<line class="st1" x1="509.6" y1="497.8" x2="510.2" y2="499.2"/>
	<line class="st1" x1="527" y1="488.5" x2="527.4" y2="489.2"/>
	<line class="st1" x1="543.4" y1="477.5" x2="544.3" y2="478.7"/>
	<line class="st1" x1="558.7" y1="465" x2="559.2" y2="465.6"/>
	<line class="st1" x1="572.7" y1="451" x2="573.8" y2="452.1"/>
	<line class="st1" x1="585.2" y1="435.8" x2="585.8" y2="436.2"/>
	<line class="st1" x1="596.2" y1="419.4" x2="597.4" y2="420.1"/>
	<line class="st1" x1="605.5" y1="401.9" x2="606.2" y2="402.3"/>
	<line class="st1" x1="613" y1="383.7" x2="614.4" y2="384.2"/>
	<line class="st1" x1="618.8" y1="364.8" x2="619.5" y2="365"/>
	<line class="st1" x1="624.6" y1="325.8" x2="625.3" y2="325.8"/>
	<line class="st1" x1="624.6" y1="306" x2="625.3" y2="306"/>
	<line class="st1" x1="622.6" y1="286.4" x2="623.4" y2="286.2"/>
	<line class="st1" x1="618.8" y1="267" x2="621.7" y2="266.3"/>
	<line class="st1" x1="613" y1="248.1" x2="613.7" y2="247.8"/>
	<line class="st1" x1="605.5" y1="229.8" x2="606.8" y2="229.2"/>
	<line class="st1" x1="596.2" y1="212.4" x2="597.4" y2="211.6"/>
	<line class="st1" x1="585.2" y1="196" x2="586.4" y2="195.1"/>
	<line class="st1" x1="572.7" y1="180.7" x2="574.9" y2="178.7"/>
	<line class="st1" x1="558.7" y1="166.7" x2="561.7" y2="163.4"/>
	<line class="st1" x1="543.4" y1="154.2" x2="547.4" y2="148.8"/>
	<line class="st1" x1="527" y1="143.2" x2="530.8" y2="136.9"/>
	<line class="st1" x1="509.6" y1="133.9" x2="510.2" y2="132.6"/>
	<line class="st1" x1="491.3" y1="126.4" x2="494.6" y2="117.3"/>
	<line class="st1" x1="472.4" y1="120.6" x2="474.8" y2="111.2"/>
	<line class="st1" x1="433.4" y1="114.9" x2="434.1" y2="100.7"/>
</g>
<g transform="translate(609,324.285)">
	<circle class="st2" cx="3.5" cy="0.9" r="8.4"/>
	<circle class="st3" cx="3.5" cy="-17.7" r="8.4"/>
	<circle class="st4" cx="1.7" cy="-36.2" r="8.4"/>
	<circle class="st5" cx="-1.9" cy="-54.4" r="8.4"/>
	<circle class="st6" cx="-7.3" cy="-72.2" r="8.4"/>
	<circle class="st7" cx="-14.4" cy="-89.3" r="8.4"/>
	<circle class="st8" cx="-23.2" cy="-105.7" r="8.4"/>
	<circle class="st9" cx="-33.5" cy="-121.1" r="8.4"/>
	<circle class="st10" cx="-45.3" cy="-135.5" r="8.4"/>
	<circle class="st11" cx="-58.4" cy="-148.6" r="8.4"/>
	<circle class="st12" cx="-72.7" cy="-160.4" r="8.4"/>
	<circle class="st13" cx="-88.2" cy="-170.7" r="8.4"/>
	<circle class="st14" cx="-104.6" cy="-179.5" r="8.4"/>
	<circle class="st15" cx="-121.7" cy="-186.6" r="8.4"/>
	<circle class="st16" cx="-139.5" cy="-192" r="8.4"/>
	<circle class="st17" cx="-157.7" cy="-195.6" r="8.4"/>
	<circle class="st18" cx="-176.2" cy="-197.4" r="8.4"/>
	<circle class="st19" cx="-194.8" cy="-197.4" r="8.4"/>
	<circle class="st20" cx="-213.2" cy="-195.6" r="8.4"/>
	<circle class="st21" cx="-231.4" cy="-192" r="8.4"/>
	<circle class="st22" cx="-249.2" cy="-186.6" r="8.4"/>
	<circle class="st23" cx="-266.4" cy="-179.5" r="8.4"/>
	<circle class="st24" cx="-282.8" cy="-170.7" r="8.4"/>
	<circle class="st25" cx="-298.2" cy="-160.4" r="8.4"/>
	<circle class="st26" cx="-312.5" cy="-148.6" r="8.4"/>
	<circle class="st27" cx="-325.7" cy="-135.5" r="8.4"/>
	<circle class="st28" cx="-337.5" cy="-121.1" r="8.4"/>
	<circle class="st29" cx="-347.8" cy="-105.7" r="8.4"/>
	<circle class="st30" cx="-356.5" cy="-89.3" r="8.4"/>
	<circle class="st31" cx="-363.6" cy="-72.2" r="8.4"/>
	<circle class="st32" cx="-369" cy="-54.4" r="8.4"/>
	<circle class="st33" cx="-372.6" cy="-36.2" r="8.4"/>
	<circle class="st34" cx="-374.5" cy="-17.7" r="8.4"/>
	<circle class="st35" cx="-374.5" cy="0.9" r="8.4"/>
	<circle class="st36" cx="-372.6" cy="19.4" r="8.4"/>
	<circle class="st37" cx="-369" cy="37.6" r="8.4"/>
	<circle class="st38" cx="-363.6" cy="55.3" r="8.4"/>
	<circle class="st39" cx="-356.5" cy="72.5" r="8.4"/>
	<circle class="st40" cx="-347.8" cy="88.9" r="8.4"/>
	<circle class="st41" cx="-337.5" cy="104.3" r="8.4"/>
	<circle class="st42" cx="-325.7" cy="118.7" r="8.4"/>
	<circle class="st43" cx="-312.5" cy="131.8" r="8.4"/>
	<circle class="st44" cx="-298.2" cy="143.6" r="8.4"/>
	<circle class="st45" cx="-282.8" cy="153.9" r="8.4"/>
	<circle class="st46" cx="-266.4" cy="162.7" r="8.4"/>
	<circle class="st47" cx="-249.2" cy="169.8" r="8.4"/>
	<circle class="st48" cx="-231.4" cy="175.2" r="8.4"/>
	<circle class="st49" cx="-213.2" cy="178.8" r="8.4"/>
	<circle class="st50" cx="-194.8" cy="180.6" r="8.4"/>
	<circle class="st51" cx="-176.2" cy="180.6" r="8.4"/>
	<circle class="st52" cx="-157.7" cy="178.8" r="8.4"/>
	<circle class="st53" cx="-139.5" cy="175.2" r="8.4"/>
	<circle class="st54" cx="-121.7" cy="169.8" r="8.4"/>
	<circle class="st55" cx="-104.6" cy="162.7" r="8.4"/>
	<circle class="st56" cx="-88.2" cy="153.9" r="8.4"/>
	<circle class="st57" cx="-72.7" cy="143.6" r="8.4"/>
	<circle class="st58" cx="-58.4" cy="131.8" r="8.4"/>
	<circle class="st59" cx="-45.3" cy="118.7" r="8.4"/>
	<circle class="st60" cx="-33.5" cy="104.3" r="8.4"/>
	<circle class="st61" cx="-23.2" cy="88.9" r="8.4"/>
	<circle class="st62" cx="-14.4" cy="72.5" r="8.4"/>
	<circle class="st63" cx="-7.3" cy="55.3" r="8.4"/>
	<circle class="st64" cx="-1.9" cy="37.6" r="8.4"/>
	<circle class="st65" cx="1.7" cy="19.4" r="8.4"/>
</g>
<g>
	<path class="st66" d="M354.2,240.7l-0.7,0.7l-0.7,0.7l-0.7,0.7l-0.7,0.7l-0.7,0.7l-0.7,0.7l-0.7,0.7l-0.7,0.7l-0.7,0.7l75.8,68.7
		l15-101.2l-1-0.1l-1-0.1l-1-0.1l-1-0.1l-1-0.1l-1-0.1l-1-0.1l-1-0.1l-1-0.1l-1-0.1l-1,0l-1,0l-1,0l-1,0l-1,0l-1,0l-1,0l-1,0l-1,0
		l-1,0l-1,0.1l-1,0.1l-1,0.1l-1,0.1l-1,0.1l-1,0.1l-1,0.1l-1,0.1l-1,0.1l-1,0.1l-1,0.2l-1,0.2l-1,0.2l-1,0.2l-1,0.2l-1,0.2l-1,0.2
		l-1,0.2l-1,0.2l-1,0.2l-1,0.3l-1,0.3l-1,0.3l-1,0.3l-1,0.3l-1,0.3l-1,0.3l-1,0.3l-1,0.3l-1,0.3l-1,0.4l-0.9,0.4l-0.9,0.4l-0.9,0.4
		l-0.9,0.4l-0.9,0.4l-0.9,0.4l-0.9,0.4l-0.9,0.4l-0.9,0.4l-0.9,0.4l-0.9,0.5l-0.9,0.5l-0.9,0.5l-0.9,0.5l-0.9,0.5L373,227l-0.9,0.5
		l-0.9,0.5l-0.9,0.5l-0.9,0.5l-0.9,0.5l-0.9,0.5l-0.8,0.6l-0.8,0.6l-0.8,0.6l-0.8,0.6l-0.8,0.6l-0.8,0.6l-0.8,0.6l-0.8,0.6l-0.8,0.6
		l-0.8,0.6l-0.8,0.6l-0.8,0.6l-0.8,0.7l-0.8,0.7l-0.8,0.7l-0.8,0.7L354.2,240.7z"/>
</g>
<g>
	<path class="st67" d="M444.1,158l4.4-10.6l1.1,11.4"/>
	<line class="st67" x1="423.5" y1="315.9" x2="448.5" y2="147.4"/>
	<path class="st67" d="M302.1,208.6l-4.8-7.1l7.6,4.1"/>
	<line class="st67" x1="423.5" y1="315.9" x2="297.3" y2="201.5"/>
</g>
<g transform="translate(420,315)">
	<circle cx="3.5" cy="0.9" r="2"/>
</g>
</svg>
