<?xml version="1.0" encoding="utf-8"?>
<!-- Generator: Adobe Illustrator 26.0.1, SVG Export Plug-In . SVG Version: 6.00 Build 0)  -->
<svg version="1.1" id="Layer_1" xmlns="http://www.w3.org/2000/svg" xmlns:xlink="http://www.w3.org/1999/xlink" x="0px" y="0px"
	 viewBox="0 0 2171 1978.4" style="enable-background:new 0 0 2171 1978.4;" xml:space="preserve">
<style type="text/css">
	.st0{fill:none;stroke:#999999;stroke-width:4;stroke-miterlimit:10;}
	.st1{fill:none;stroke:#999999;stroke-width:4;stroke-miterlimit:10;stroke-dasharray:25.6327,25.6327;}
	.st2{fill:none;stroke:#999999;stroke-width:4;stroke-miterlimit:10;stroke-dasharray:25.1618,25.1618;}
	.st3{font-family:'ArialMT';}
	.st4{font-size:47.5992px;}
	.st5{fill:none;stroke:#000000;stroke-width:7;stroke-miterlimit:10;}
	.st6{fill:none;stroke:#000000;stroke-width:4;stroke-miterlimit:10;}
	.st7{fill:#E8ACB5;}
	.st8{fill:#E6E6E6;}
	.st9{fill:none;stroke:#000000;stroke-width:6;stroke-miterlimit:10;}
	.st10{fill:url(#SVGID_1_);stroke:#000000;stroke-width:4;stroke-miterlimit:10;}
	.st11{fill:url(#SVGID_00000034778231382718740820000017566465966152799641_);stroke:#000000;stroke-width:4;stroke-miterlimit:10;}
	.st12{fill:url(#SVGID_00000098908324287559034750000001377203164538255289_);stroke:#000000;stroke-width:4;stroke-miterlimit:10;}
	.st13{fill:url(#SVGID_00000163043977915670917820000013359163823112291487_);stroke:#000000;stroke-width:4;stroke-miterlimit:10;}
	.st14{fill:#FFFFFF;stroke:#000000;stroke-width:2;stroke-miterlimit:10;}
	.st15{stroke:#000000;stroke-width:2;stroke-miterlimit:10;}
	.st16{fill:#A67C52;}
	.st17{fill:none;stroke:#666666;stroke-width:3;stroke-miterlimit:10;stroke-dasharray:3,6;}
	.st18{fill:url(#SVGID_00000006673060789671394550000015237325396221326735_);stroke:#000000;stroke-width:4;stroke-miterlimit:10;}
	.st19{fill:url(#SVGID_00000145743295341422680650000009126284626175070100_);stroke:#000000;stroke-width:4;stroke-miterlimit:10;}
	.st20{fill:url(#SVGID_00000119809405579386571720000005089571018872281252_);stroke:#000000;stroke-width:4;stroke-miterlimit:10;}
	.st21{fill:url(#SVGID_00000150782820923509323170000016935738960279675829_);stroke:#000000;stroke-width:4;stroke-miterlimit:10;}
	.st22{fill:#E6ABC9;}
	.st23{fill:#A3C493;}
	.st24{fill:#7EC7D0;}
	.st25{fill:#BDB7E7;}
	.st26{font-size:47.6px;}
	.st27{fill:url(#SVGID_00000060717853144554599490000009061555007850362023_);stroke:#000000;stroke-width:4;stroke-miterlimit:10;}
	.st28{fill:url(#SVGID_00000152241608993541508220000006728718571539300254_);stroke:#000000;stroke-width:4;stroke-miterlimit:10;}
	.st29{fill:url(#SVGID_00000036219090851612782260000018128565272047599516_);stroke:#000000;stroke-width:4;stroke-miterlimit:10;}
	.st30{fill:url(#SVGID_00000012455097857714411920000005911678014673273484_);stroke:#000000;stroke-width:4;stroke-miterlimit:10;}
	.st31{fill:url(#SVGID_00000067942503152403826750000016899697436038239164_);stroke:#000000;stroke-width:4;stroke-miterlimit:10;}
	.st32{fill:url(#SVGID_00000054961286086819992010000012610362544345595815_);stroke:#000000;stroke-width:4;stroke-miterlimit:10;}
	.st33{fill:url(#SVGID_00000124866471783511962370000006193933403425860748_);stroke:#000000;stroke-width:4;stroke-miterlimit:10;}
	.st34{fill:url(#SVGID_00000138531843719461176880000015429194176234977969_);stroke:#000000;stroke-width:4;stroke-miterlimit:10;}
	.st35{fill:url(#SVGID_00000076591996803482303370000009444823085845682098_);stroke:#000000;stroke-width:4;stroke-miterlimit:10;}
	.st36{fill:url(#SVGID_00000005956136994010163350000005771510529125668275_);stroke:#000000;stroke-width:4;stroke-miterlimit:10;}
	.st37{fill:url(#SVGID_00000003794224483675867490000008650384820459464381_);stroke:#000000;stroke-width:4;stroke-miterlimit:10;}
	.st38{fill:url(#SVGID_00000173874839733474346920000010908006063710436482_);stroke:#000000;stroke-width:4;stroke-miterlimit:10;}
	.st39{fill:none;stroke:#999999;stroke-width:4;stroke-miterlimit:10;stroke-dasharray:25.7336,25.7336;}
	.st40{fill:none;stroke:#FFFFFF;stroke-width:8;stroke-miterlimit:10;}
	.st41{fill:none;stroke:#000000;stroke-width:5;stroke-miterlimit:10;}
	.st42{fill:none;stroke:#FFFFFF;stroke-width:9;stroke-miterlimit:10;}
	.st43{font-family:'Arial-BoldMT';}
	.st44{font-size:45px;}
	.st45{display:none;}
	.st46{display:inline;}
	.st47{fill:url(#SVGID_00000129906532226768892040000015569303309500399510_);stroke:#000000;stroke-width:4;stroke-miterlimit:10;}
	.st48{fill:url(#SVGID_00000181768872379156625630000016349953870266736523_);stroke:#000000;stroke-width:4;stroke-miterlimit:10;}
	
		.st49{display:inline;fill:url(#SVGID_00000148657909834756073450000011319205614041825949_);stroke:#000000;stroke-width:4;stroke-miterlimit:10;}
	
		.st50{display:inline;fill:url(#SVGID_00000183958830684989633060000010582970374604965518_);stroke:#000000;stroke-width:4;stroke-miterlimit:10;}
</style>
<g id="lines">
	<g>
		<g>
			<g>
				<line class="st0" x1="1268.9" y1="1939.8" x2="1269" y2="1927.3"/>
				<line class="st1" x1="1269.1" y1="1901.7" x2="1272.2" y2="991.7"/>
				<line class="st0" x1="1272.2" y1="978.9" x2="1272.3" y2="966.4"/>
			</g>
		</g>
		<g>
			<g>
				<line class="st0" x1="1631.8" y1="1939.8" x2="1631.8" y2="1927.3"/>
				<line class="st2" x1="1631.8" y1="1902.1" x2="1631.8" y2="103.1"/>
				<line class="st0" x1="1631.8" y1="90.5" x2="1631.8" y2="78"/>
			</g>
		</g>
		<g>
			<g>
				<line class="st0" x1="901.9" y1="1939.8" x2="901.9" y2="1927.3"/>
				<line class="st2" x1="901.9" y1="1902.1" x2="901.9" y2="103.1"/>
				<line class="st0" x1="901.9" y1="90.5" x2="901.9" y2="78"/>
			</g>
		</g>
		<g>
			<g>
				<line class="st0" x1="590.8" y1="1939.8" x2="590.8" y2="1927.3"/>
				<line class="st2" x1="590.8" y1="1902.1" x2="590.8" y2="103.1"/>
				<line class="st0" x1="590.8" y1="90.5" x2="590.8" y2="78"/>
			</g>
		</g>
	</g>
</g>
<g id="version_2">
	<text transform="matrix(1 0 0 1 362.5432 1729.4624)" class="st3 st4">Fixation</text>
	<text transform="matrix(1 0 0 1 441.8909 1836.2856)" class="st3 st4">Cue</text>
	<text transform="matrix(1 0 0 1 357.2439 1940.2944)" class="st3 st4">Choices</text>
	<g>
		<line class="st5" x1="589.3" y1="1834.9" x2="589.3" y2="1772.6"/>
		<line class="st5" x1="561.5" y1="1834.9" x2="589.3" y2="1834.9"/>
		<line class="st5" x1="589.3" y1="1772.6" x2="900.4" y2="1772.6"/>
		<line class="st5" x1="900.4" y1="1834.9" x2="900.4" y2="1772.6"/>
		<line class="st5" x1="2118.3" y1="1834.9" x2="900.4" y2="1834.9"/>
	</g>
	<g>
		<line class="st5" x1="1267.4" y1="1948" x2="1267.4" y2="1885.7"/>
		<line class="st5" x1="561.5" y1="1947.9" x2="1267.4" y2="1948"/>
		<line class="st5" x1="1267.4" y1="1885.7" x2="2118.3" y2="1885.5"/>
		<line class="st5" x1="2117" y1="1945.7" x2="2117" y2="1884.1"/>
	</g>
	<g>
		<path class="st5" d="M561.5,1736.4"/>
		<line class="st5" x1="561.5" y1="1738.7" x2="561.5" y2="1676.4"/>
		<line class="st5" x1="1630.1" y1="1741.4" x2="2118.3" y2="1736.4"/>
		<line class="st5" x1="1630.1" y1="1741.4" x2="1630.1" y2="1679.1"/>
		<line class="st5" x1="561.7" y1="1676.4" x2="1630.1" y2="1679.1"/>
	</g>
	<path class="st6" d="M2118.3,1724.8"/>
</g>
<g id="small">
	<text transform="matrix(1 0 0 1 362.5432 565.066)" class="st3 st4">Fixation</text>
	<text transform="matrix(1 0 0 1 441.8909 671.8902)" class="st3 st4">Cue</text>
	<text transform="matrix(1 0 0 1 357.2444 775.8985)" class="st3 st4">Choices</text>
	<g>
		<line class="st5" x1="591" y1="670.5" x2="591" y2="608.2"/>
		<line class="st5" x1="563.2" y1="670.5" x2="591" y2="670.5"/>
		<line class="st5" x1="591" y1="608.2" x2="902" y2="608.2"/>
		<line class="st5" x1="902" y1="670.5" x2="902" y2="608.2"/>
		<line class="st5" x1="2120" y1="670.5" x2="902" y2="670.5"/>
	</g>
	<g>
		<line class="st5" x1="1631.7" y1="783.6" x2="1631.4" y2="721.2"/>
		<line class="st5" x1="563.2" y1="783.5" x2="1631.7" y2="783.6"/>
		<line class="st5" x1="1629.5" y1="721.2" x2="2120" y2="721.1"/>
		<line class="st5" x1="2118.6" y1="781.3" x2="2118.6" y2="719.7"/>
	</g>
	<g>
		<path class="st5" d="M563.2,572"/>
		<line class="st5" x1="563.2" y1="574.3" x2="563.2" y2="512"/>
		<line class="st5" x1="1631.7" y1="577" x2="2120" y2="572"/>
		<line class="st5" x1="1631.7" y1="577" x2="1631.7" y2="514.7"/>
		<line class="st5" x1="563.3" y1="512" x2="1631.7" y2="514.7"/>
	</g>
	<path class="st6" d="M2120,560.4"/>
</g>
<g id="little_munkes">
	<g>
		<g>
			<g>
				<path class="st7" d="M344.3,1257.2c1.9,0,1.9-3,0-3S342.4,1257.2,344.3,1257.2L344.3,1257.2z"/>
			</g>
		</g>
		<g>
			<g>
				<g>
					<path class="st8" d="M570.9,1341.6H298.6c-0.7,0-1.2-0.6-1.2-1.2v-272.2c0-0.7,0.5-1.2,1.2-1.2h272.2c0.7,0,1.2,0.6,1.2,1.2
						v272.2C572.1,1341.1,571.6,1341.6,570.9,1341.6z"/>
				</g>
				<g>
					<line class="st9" x1="430.4" y1="1196.5" x2="451.5" y2="1217.7"/>
					<line class="st9" x1="451.5" y1="1196.5" x2="430.4" y2="1217.7"/>
				</g>
			</g>
			<text transform="matrix(1 0 0 1 297.4148 1042.6729)" class="st3 st4">50 ms</text>
		</g>
		<g>
			<g>
				
					<linearGradient id="SVGID_1_" gradientUnits="userSpaceOnUse" x1="5159.104" y1="629.1589" x2="5190.1113" y2="660.1666" gradientTransform="matrix(-1 0 0 1 5553.1719 898)">
					<stop  offset="0" style="stop-color:#C69C6D"/>
					<stop  offset="0.2973" style="stop-color:#C6A075"/>
					<stop  offset="0.7567" style="stop-color:#C7AB8B"/>
					<stop  offset="1" style="stop-color:#C7B299"/>
				</linearGradient>
				<path class="st10" d="M370.4,1556.9c0,14.8,4.2,11.1,9.3,11.1s9.3-12,9.3-26.9s-4.2-26.9-9.3-26.9S370.4,1542.1,370.4,1556.9z"
					/>
				
					<linearGradient id="SVGID_00000078741151019829322320000013171942675032265857_" gradientUnits="userSpaceOnUse" x1="487.8369" y1="629.164" x2="518.8443" y2="660.1714" gradientTransform="matrix(1 0 0 1 0 898)">
					<stop  offset="0" style="stop-color:#C69C6D"/>
					<stop  offset="0.2973" style="stop-color:#C6A075"/>
					<stop  offset="0.7567" style="stop-color:#C7AB8B"/>
					<stop  offset="1" style="stop-color:#C7B299"/>
				</linearGradient>
				
					<path style="fill:url(#SVGID_00000078741151019829322320000013171942675032265857_);stroke:#000000;stroke-width:4;stroke-miterlimit:10;" d="
					M511.5,1556.9c0,14.8-4.2,11.1-9.3,11.1s-9.3-12-9.3-26.9s4.2-26.9,9.3-26.9C507.4,1514.3,511.5,1542.1,511.5,1556.9z"/>
			</g>
			
				<radialGradient id="SVGID_00000116220543282109469840000003724727788117507976_" cx="-648.361" cy="427.3239" r="71.3705" gradientTransform="matrix(0.5918 0 0 0.6879 824.6 1175.0939)" gradientUnits="userSpaceOnUse">
				<stop  offset="0" style="stop-color:#C7B299"/>
				<stop  offset="0.5304" style="stop-color:#C7B197"/>
				<stop  offset="0.7214" style="stop-color:#C7AE90"/>
				<stop  offset="0.8575" style="stop-color:#C7A885"/>
				<stop  offset="0.9668" style="stop-color:#C69F74"/>
				<stop  offset="1" style="stop-color:#C69C6D"/>
			</radialGradient>
			
				<path style="fill:url(#SVGID_00000116220543282109469840000003724727788117507976_);stroke:#000000;stroke-width:4;stroke-miterlimit:10;" d="
				M478.5,1461.2c0,34.1-16.8,61.8-37.6,61.8s-37.6-27.7-37.6-61.8s16.8-46.1,37.6-46.1S478.5,1427.1,478.5,1461.2z"/>
			
				<radialGradient id="SVGID_00000060731248678583203330000009672155562309333644_" cx="-490.1189" cy="520.3574" r="91.7429" gradientTransform="matrix(0.6183 0 0 0.6879 743.7449 1175.0939)" gradientUnits="userSpaceOnUse">
				<stop  offset="0" style="stop-color:#A67C52"/>
				<stop  offset="0.2686" style="stop-color:#9F754B"/>
				<stop  offset="0.6604" style="stop-color:#8B6239"/>
				<stop  offset="1" style="stop-color:#754C24"/>
			</radialGradient>
			
				<path style="fill:url(#SVGID_00000060731248678583203330000009672155562309333644_);stroke:#000000;stroke-width:4;stroke-miterlimit:10;" d="
				M503,1526c0,49.9-27.8,72.8-62.1,72.8s-62.1-22.8-62.1-72.8c0-34.4,13.6-60.2,36.1-71.7c3.4-1.8,14.8-2.2,26-2.3
				c11-0.2,22.6-0.4,26,1.3C486.8,1462.9,503,1490.4,503,1526z"/>
			<g>
				<g>
					<path class="st14" d="M430,1468.5c0,4.4-5.2,0.1-11.6,0.1s-11.6,4.4-11.6-0.1c0-4.4,5.2-8,11.6-8S430,1464.1,430,1468.5z"/>
					<ellipse class="st15" cx="418.4" cy="1463" rx="3.4" ry="2.5"/>
				</g>
			</g>
			<g>
				<path class="st16" d="M433.1,1422.2c-0.1,2,0.1,5.3-5.1,8.2"/>
				<path class="st16" d="M448.7,1422.2c0.1,2-0.1,5.3,5.1,8.2"/>
			</g>
			<g>
				<g>
					<path class="st14" d="M452,1468.6c0,4.4,5.2,0.1,11.6,0.1s11.6,4.4,11.6-0.1c0-4.4-5.2-8-11.6-8S452,1464.2,452,1468.6z"/>
					<ellipse class="st15" cx="463.7" cy="1463.1" rx="3.4" ry="2.5"/>
				</g>
			</g>
		</g>
		<g>
			<line class="st17" x1="418.9" y1="1459.3" x2="441" y2="1212.7"/>
			<line class="st17" x1="463" y1="1459.3" x2="441" y2="1212.7"/>
		</g>
	</g>
	<g>
		<g>
			<g>
				<g>
					<path class="st8" d="M1219.2,1338.5H947c-0.7,0-1.2-0.6-1.2-1.2V1065c0-0.7,0.5-1.2,1.2-1.2h272.2c0.7,0,1.2,0.6,1.2,1.2v272.2
						C1220.4,1337.9,1219.9,1338.5,1219.2,1338.5z"/>
				</g>
				<g>
					<line class="st9" x1="1072.5" y1="1193.4" x2="1093.6" y2="1214.5"/>
					<line class="st9" x1="1093.6" y1="1193.4" x2="1072.5" y2="1214.5"/>
				</g>
			</g>
			<text transform="matrix(1 0 0 1 945.717 1049.1084)" class="st3 st4">600-900 ms</text>
		</g>
		<g>
			<g>
				
					<linearGradient id="SVGID_00000132053581854259216290000004761548752451946913_" gradientUnits="userSpaceOnUse" x1="4517.9629" y1="629.1298" x2="4548.9707" y2="660.1371" gradientTransform="matrix(-1 0 0 1 5553.1719 898)">
					<stop  offset="0" style="stop-color:#C69C6D"/>
					<stop  offset="0.2973" style="stop-color:#C6A075"/>
					<stop  offset="0.7567" style="stop-color:#C7AB8B"/>
					<stop  offset="1" style="stop-color:#C7B299"/>
				</linearGradient>
				
					<path style="fill:url(#SVGID_00000132053581854259216290000004761548752451946913_);stroke:#000000;stroke-width:4;stroke-miterlimit:10;" d="
					M1011.5,1556.9c0,14.8,4.2,11.1,9.3,11.1c5.1,0,9.3-12,9.3-26.9s-4.2-26.9-9.3-26.9C1015.7,1514.3,1011.5,1542.1,1011.5,1556.9z
					"/>
				
					<linearGradient id="SVGID_00000176738135694132457570000000817632875818216068_" gradientUnits="userSpaceOnUse" x1="1129.016" y1="629.1547" x2="1160.0233" y2="660.1622" gradientTransform="matrix(1 0 0 1 0 898)">
					<stop  offset="0" style="stop-color:#C69C6D"/>
					<stop  offset="0.2973" style="stop-color:#C6A075"/>
					<stop  offset="0.7567" style="stop-color:#C7AB8B"/>
					<stop  offset="1" style="stop-color:#C7B299"/>
				</linearGradient>
				
					<path style="fill:url(#SVGID_00000176738135694132457570000000817632875818216068_);stroke:#000000;stroke-width:4;stroke-miterlimit:10;" d="
					M1152.7,1556.9c0,14.8-4.2,11.1-9.3,11.1s-9.3-12-9.3-26.9s4.2-26.9,9.3-26.9C1148.5,1514.3,1152.7,1542.1,1152.7,1556.9z"/>
			</g>
			
				<radialGradient id="SVGID_00000086651216851785675800000017598733014863204016_" cx="435.1132" cy="427.3239" r="71.3705" gradientTransform="matrix(0.5918 0 0 0.6879 824.6 1175.0939)" gradientUnits="userSpaceOnUse">
				<stop  offset="0" style="stop-color:#C7B299"/>
				<stop  offset="0.5304" style="stop-color:#C7B197"/>
				<stop  offset="0.7214" style="stop-color:#C7AE90"/>
				<stop  offset="0.8575" style="stop-color:#C7A885"/>
				<stop  offset="0.9668" style="stop-color:#C69F74"/>
				<stop  offset="1" style="stop-color:#C69C6D"/>
			</radialGradient>
			
				<path style="fill:url(#SVGID_00000086651216851785675800000017598733014863204016_);stroke:#000000;stroke-width:4;stroke-miterlimit:10;" d="
				M1119.7,1461.2c0,34.1-16.8,61.8-37.6,61.8s-37.6-27.7-37.6-61.8s16.8-46.1,37.6-46.1S1119.7,1427.1,1119.7,1461.2z"/>
			
				<radialGradient id="SVGID_00000128477348745117500550000012472684440219055003_" cx="546.9296" cy="520.3574" r="91.7429" gradientTransform="matrix(0.6183 0 0 0.6879 743.7449 1175.0939)" gradientUnits="userSpaceOnUse">
				<stop  offset="0" style="stop-color:#A67C52"/>
				<stop  offset="0.2686" style="stop-color:#9F754B"/>
				<stop  offset="0.6604" style="stop-color:#8B6239"/>
				<stop  offset="1" style="stop-color:#754C24"/>
			</radialGradient>
			
				<path style="fill:url(#SVGID_00000128477348745117500550000012472684440219055003_);stroke:#000000;stroke-width:4;stroke-miterlimit:10;" d="
				M1144.2,1526c0,49.9-27.8,72.8-62.1,72.8S1020,1576,1020,1526c0-34.4,13.6-60.2,36.1-71.7c3.4-1.8,14.8-2.2,26-2.3
				c11-0.2,22.6-0.4,26,1.3C1127.9,1462.9,1144.2,1490.4,1144.2,1526z"/>
			<g>
				<g>
					<path class="st14" d="M1071.1,1468.5c0,4.4-5.2,0.1-11.6,0.1s-11.6,4.4-11.6-0.1c0-4.4,5.2-8,11.6-8
						S1071.1,1464.1,1071.1,1468.5z"/>
					<ellipse class="st15" cx="1059.5" cy="1463" rx="3.4" ry="2.5"/>
				</g>
			</g>
			<g>
				<path class="st16" d="M1074.3,1422.2c-0.1,2,0.1,5.3-5.1,8.2"/>
				<path class="st16" d="M1089.9,1422.2c0.1,2-0.1,5.3,5.1,8.2"/>
			</g>
			<g>
				<g>
					<path class="st14" d="M1093.2,1468.6c0,4.4,5.2,0.1,11.6,0.1s11.6,4.4,11.6-0.1c0-4.4-5.2-8-11.6-8
						S1093.2,1464.2,1093.2,1468.6z"/>
					<ellipse class="st15" cx="1104.8" cy="1463.1" rx="3.4" ry="2.5"/>
				</g>
			</g>
		</g>
		<g>
			<line class="st17" x1="1059" y1="1459.3" x2="1081.1" y2="1212.7"/>
			<line class="st17" x1="1103.1" y1="1459.3" x2="1081.1" y2="1212.7"/>
		</g>
	</g>
	<g>
		<g>
			<g>
				<path class="st8" d="M1585,1340.9h-272.2c-0.7,0-1.2-0.6-1.2-1.2v-272.2c0-0.7,0.6-1.2,1.2-1.2H1585c0.7,0,1.2,0.6,1.2,1.2
					v272.2C1586.2,1340.3,1585.7,1340.9,1585,1340.9z"/>
			</g>
			<g>
				<line class="st9" x1="1438.3" y1="1195.8" x2="1459.4" y2="1216.9"/>
				<line class="st9" x1="1459.4" y1="1195.8" x2="1438.3" y2="1216.9"/>
			</g>
			<circle class="st22" cx="1459.4" cy="1292.3" r="23.2"/>
			<circle class="st23" cx="1534.5" cy="1259.9" r="23.2"/>
			<circle class="st24" cx="1543.8" cy="1180.4" r="23.2"/>
			<circle class="st25" cx="1493.6" cy="1123.6" r="23.2"/>
			<text transform="matrix(1 0 0 1 1311.5251 1051.353)" class="st3 st26">500-1000 ms</text>
		</g>
		<g>
			<g>
				
					<linearGradient id="SVGID_00000060709254707872028310000000880083174499867270_" gradientUnits="userSpaceOnUse" x1="4149.4087" y1="629.1641" x2="4180.416" y2="660.1714" gradientTransform="matrix(-1 0 0 1 5553.1719 898)">
					<stop  offset="0" style="stop-color:#C69C6D"/>
					<stop  offset="0.2973" style="stop-color:#C6A075"/>
					<stop  offset="0.7567" style="stop-color:#C7AB8B"/>
					<stop  offset="1" style="stop-color:#C7B299"/>
				</linearGradient>
				
					<path style="fill:url(#SVGID_00000060709254707872028310000000880083174499867270_);stroke:#000000;stroke-width:4;stroke-miterlimit:10;" d="
					M1380.1,1556.9c0,14.8,4.2,11.1,9.3,11.1s9.3-12,9.3-26.9s-4.2-26.9-9.3-26.9C1384.2,1514.3,1380.1,1542.1,1380.1,1556.9z"/>
				
					<linearGradient id="SVGID_00000087386817594276043290000015077925701813505442_" gradientUnits="userSpaceOnUse" x1="1497.5319" y1="629.1589" x2="1528.5392" y2="660.1664" gradientTransform="matrix(1 0 0 1 0 898)">
					<stop  offset="0" style="stop-color:#C69C6D"/>
					<stop  offset="0.2973" style="stop-color:#C6A075"/>
					<stop  offset="0.7567" style="stop-color:#C7AB8B"/>
					<stop  offset="1" style="stop-color:#C7B299"/>
				</linearGradient>
				
					<path style="fill:url(#SVGID_00000087386817594276043290000015077925701813505442_);stroke:#000000;stroke-width:4;stroke-miterlimit:10;" d="
					M1521.2,1556.9c0,14.8-4.2,11.1-9.3,11.1s-9.3-12-9.3-26.9s4.2-26.9,9.3-26.9C1517.1,1514.3,1521.2,1542.1,1521.2,1556.9z"/>
			</g>
			
				<radialGradient id="SVGID_00000183969142418781174000000009930790843938533043_" cx="1057.7898" cy="427.3239" r="71.3705" gradientTransform="matrix(0.5918 0 0 0.6879 824.6 1175.0939)" gradientUnits="userSpaceOnUse">
				<stop  offset="0" style="stop-color:#C7B299"/>
				<stop  offset="0.5304" style="stop-color:#C7B197"/>
				<stop  offset="0.7214" style="stop-color:#C7AE90"/>
				<stop  offset="0.8575" style="stop-color:#C7A885"/>
				<stop  offset="0.9668" style="stop-color:#C69F74"/>
				<stop  offset="1" style="stop-color:#C69C6D"/>
			</radialGradient>
			
				<path style="fill:url(#SVGID_00000183969142418781174000000009930790843938533043_);stroke:#000000;stroke-width:4;stroke-miterlimit:10;" d="
				M1488.2,1461.2c0,34.1-16.8,61.8-37.6,61.8s-37.6-27.7-37.6-61.8s16.8-46.1,37.6-46.1S1488.2,1427.1,1488.2,1461.2z"/>
			
				<radialGradient id="SVGID_00000105400100064966014870000004901037911888328079_" cx="1142.9985" cy="520.3574" r="91.7429" gradientTransform="matrix(0.6183 0 0 0.6879 743.7449 1175.0939)" gradientUnits="userSpaceOnUse">
				<stop  offset="0" style="stop-color:#A67C52"/>
				<stop  offset="0.2686" style="stop-color:#9F754B"/>
				<stop  offset="0.6604" style="stop-color:#8B6239"/>
				<stop  offset="1" style="stop-color:#754C24"/>
			</radialGradient>
			
				<path style="fill:url(#SVGID_00000105400100064966014870000004901037911888328079_);stroke:#000000;stroke-width:4;stroke-miterlimit:10;" d="
				M1512.7,1526c0,49.9-27.8,72.8-62.1,72.8s-62.1-22.8-62.1-72.8c0-34.4,13.6-60.2,36.1-71.7c3.4-1.8,14.8-2.2,26-2.3
				c11-0.2,22.6-0.4,26,1.3C1496.5,1462.9,1512.7,1490.4,1512.7,1526z"/>
			<g>
				<g>
					<path class="st14" d="M1439.7,1468.5c0,4.4-5.2,0.1-11.6,0.1s-11.6,4.4-11.6-0.1c0-4.4,5.2-8,11.6-8
						S1439.7,1464.1,1439.7,1468.5z"/>
					<ellipse class="st15" cx="1428" cy="1463" rx="3.4" ry="2.5"/>
				</g>
			</g>
			<g>
				<path class="st16" d="M1442.8,1422.2c-0.1,2,0.1,5.3-5.1,8.2"/>
				<path class="st16" d="M1458.4,1422.2c0.1,2-0.1,5.3,5.1,8.2"/>
			</g>
			<g>
				<g>
					<path class="st14" d="M1461.7,1468.6c0,4.4,5.2,0.1,11.6,0.1s11.6,4.4,11.6-0.1c0-4.4-5.2-8-11.6-8
						C1466.9,1460.6,1461.7,1464.2,1461.7,1468.6z"/>
					<ellipse class="st15" cx="1473.3" cy="1463.1" rx="3.4" ry="2.5"/>
				</g>
			</g>
		</g>
		<g>
			<line class="st17" x1="1428.1" y1="1458.4" x2="1450.1" y2="1211.7"/>
			<line class="st17" x1="1472.2" y1="1458.4" x2="1450.1" y2="1211.7"/>
		</g>
	</g>
	<g>
		<g>
			<g>
				<path class="st8" d="M1749.8,1065.1h274.1c0.3,0,0.6,0.4,0.6,0.9v273c0,0.5-0.3,0.9-0.6,0.9h-274.1"/>
			</g>
			<g>
				<path class="st9" d="M1897.2,1194.8"/>
			</g>
			<circle class="st22" cx="1897.2" cy="1291.3" r="23.2"/>
			<circle class="st23" cx="1972.3" cy="1258.9" r="23.2"/>
			<circle class="st24" cx="1981.5" cy="1179.3" r="23.2"/>
			<circle class="st25" cx="1931.4" cy="1122.6" r="23.2"/>
			<text transform="matrix(1 0 0 1 1749.7615 1049.9883)" class="st3 st4">&lt;5000 ms</text>
		</g>
		<g>
			<g>
				
					<linearGradient id="SVGID_00000114060367107561454490000008850438633405971358_" gradientUnits="userSpaceOnUse" x1="3703.0786" y1="629.134" x2="3734.0862" y2="660.1414" gradientTransform="matrix(-1 0 0 1 5553.1719 898)">
					<stop  offset="0" style="stop-color:#C69C6D"/>
					<stop  offset="0.2973" style="stop-color:#C6A075"/>
					<stop  offset="0.7567" style="stop-color:#C7AB8B"/>
					<stop  offset="1" style="stop-color:#C7B299"/>
				</linearGradient>
				
					<path style="fill:url(#SVGID_00000114060367107561454490000008850438633405971358_);stroke:#000000;stroke-width:4;stroke-miterlimit:10;" d="
					M1826.4,1556.9c0,14.8,4.2,11.1,9.3,11.1s9.3-12,9.3-26.9s-4.2-26.9-9.3-26.9S1826.4,1542.1,1826.4,1556.9z"/>
				
					<linearGradient id="SVGID_00000129919701163073124220000011437069692461369226_" gradientUnits="userSpaceOnUse" x1="1943.906" y1="629.1447" x2="1974.9133" y2="660.1522" gradientTransform="matrix(1 0 0 1 0 898)">
					<stop  offset="0" style="stop-color:#C69C6D"/>
					<stop  offset="0.2973" style="stop-color:#C6A075"/>
					<stop  offset="0.7567" style="stop-color:#C7AB8B"/>
					<stop  offset="1" style="stop-color:#C7B299"/>
				</linearGradient>
				
					<path style="fill:url(#SVGID_00000129919701163073124220000011437069692461369226_);stroke:#000000;stroke-width:4;stroke-miterlimit:10;" d="
					M1967.6,1556.9c0,14.8-4.2,11.1-9.3,11.1s-9.3-12-9.3-26.9s4.2-26.9,9.3-26.9C1963.4,1514.3,1967.6,1542.1,1967.6,1556.9z"/>
			</g>
			
				<radialGradient id="SVGID_00000152239178971201104980000004285761092936738996_" cx="1812.0988" cy="427.3239" r="71.3705" gradientTransform="matrix(0.5918 0 0 0.6879 824.6 1175.0939)" gradientUnits="userSpaceOnUse">
				<stop  offset="0" style="stop-color:#C7B299"/>
				<stop  offset="0.5304" style="stop-color:#C7B197"/>
				<stop  offset="0.7214" style="stop-color:#C7AE90"/>
				<stop  offset="0.8575" style="stop-color:#C7A885"/>
				<stop  offset="0.9668" style="stop-color:#C69F74"/>
				<stop  offset="1" style="stop-color:#C69C6D"/>
			</radialGradient>
			
				<path style="fill:url(#SVGID_00000152239178971201104980000004285761092936738996_);stroke:#000000;stroke-width:4;stroke-miterlimit:10;" d="
				M1934.6,1461.2c0,34.1-16.8,61.8-37.6,61.8s-37.6-27.7-37.6-61.8s16.8-46.1,37.6-46.1S1934.6,1427.1,1934.6,1461.2z"/>
			
				<radialGradient id="SVGID_00000078751808758930871930000013996525419702519705_" cx="1864.9512" cy="520.3574" r="91.7429" gradientTransform="matrix(0.6183 0 0 0.6879 743.7449 1175.0939)" gradientUnits="userSpaceOnUse">
				<stop  offset="0" style="stop-color:#A67C52"/>
				<stop  offset="0.2686" style="stop-color:#9F754B"/>
				<stop  offset="0.6604" style="stop-color:#8B6239"/>
				<stop  offset="1" style="stop-color:#754C24"/>
			</radialGradient>
			
				<path style="fill:url(#SVGID_00000078751808758930871930000013996525419702519705_);stroke:#000000;stroke-width:4;stroke-miterlimit:10;" d="
				M1959.1,1526c0,49.9-27.8,72.8-62.1,72.8s-62.1-22.8-62.1-72.8c0-34.4,13.6-60.2,36.1-71.7c3.4-1.8,14.8-2.2,26-2.3
				c11-0.2,22.6-0.4,26,1.3C1942.8,1462.9,1959.1,1490.4,1959.1,1526z"/>
			<g>
				<g>
					<path class="st14" d="M1886,1468.5c0,4.4-5.2,0.1-11.6,0.1s-11.6,4.4-11.6-0.1c0-4.4,5.2-8,11.6-8S1886,1464.1,1886,1468.5z"/>
					<ellipse class="st15" cx="1874.4" cy="1463" rx="3.4" ry="2.5"/>
				</g>
			</g>
			<g>
				<path class="st16" d="M1889.2,1422.2c-0.1,2,0.1,5.3-5.1,8.2"/>
				<path class="st16" d="M1904.8,1422.2c0.1,2-0.1,5.3,5.1,8.2"/>
			</g>
			<g>
				<g>
					<path class="st14" d="M1908.1,1468.6c0,4.4,5.2,0.1,11.6,0.1s11.6,4.4,11.6-0.1c0-4.4-5.2-8-11.6-8
						S1908.1,1464.2,1908.1,1468.6z"/>
					<ellipse class="st15" cx="1919.7" cy="1463.1" rx="3.4" ry="2.5"/>
				</g>
			</g>
		</g>
		<g>
			<line class="st17" x1="1875.1" y1="1459.3" x2="1981.5" y2="1179.3"/>
			<line class="st17" x1="1919.3" y1="1459.3" x2="1981.5" y2="1179.3"/>
		</g>
	</g>
	<g>
		<g>
			<g>
				<g>
					<path class="st7" d="M909.5,1204.2c1.9,0,1.9-3,0-3S907.6,1204.2,909.5,1204.2L909.5,1204.2z"/>
				</g>
			</g>
			<g>
				<g>
					<path class="st8" d="M607.5,1065.3h274.3c0.2,0,0.4,0.2,0.4,0.5v273.7c0,0.3-0.2,0.5-0.4,0.5H607.5"/>
				</g>
				<g>
					<line class="st9" x1="734" y1="1194.9" x2="755.2" y2="1216"/>
					<line class="st9" x1="755.2" y1="1194.9" x2="734" y2="1216"/>
				</g>
				<path class="st24" d="M660.5,1169c0-12.8,10.4-23.2,23.2-23.2s23.2,10.4,23.2,23.2c0,12.8-10.4,23.2-23.2,23.2
					S660.5,1181.8,660.5,1169"/>
			</g>
			<text transform="matrix(1 0 0 1 607.5022 1049.981)" class="st3 st4">750 ms</text>
		</g>
		<g>
			<g>
				
					<linearGradient id="SVGID_00000069358975547889436890000009850916392936465328_" gradientUnits="userSpaceOnUse" x1="4856.3989" y1="629.1539" x2="4887.4062" y2="660.1616" gradientTransform="matrix(-1 0 0 1 5553.1719 898)">
					<stop  offset="0" style="stop-color:#C69C6D"/>
					<stop  offset="0.2973" style="stop-color:#C6A075"/>
					<stop  offset="0.7567" style="stop-color:#C7AB8B"/>
					<stop  offset="1" style="stop-color:#C7B299"/>
				</linearGradient>
				
					<path style="fill:url(#SVGID_00000069358975547889436890000009850916392936465328_);stroke:#000000;stroke-width:4;stroke-miterlimit:10;" d="
					M673.1,1556.9c0,14.8,4.2,11.1,9.3,11.1s9.3-12,9.3-26.9s-4.2-26.9-9.3-26.9S673.1,1542.1,673.1,1556.9z"/>
				
					<linearGradient id="SVGID_00000056396061420559501270000003818709027376677257_" gradientUnits="userSpaceOnUse" x1="790.5419" y1="629.169" x2="821.5493" y2="660.1763" gradientTransform="matrix(1 0 0 1 0 898)">
					<stop  offset="0" style="stop-color:#C69C6D"/>
					<stop  offset="0.2973" style="stop-color:#C6A075"/>
					<stop  offset="0.7567" style="stop-color:#C7AB8B"/>
					<stop  offset="1" style="stop-color:#C7B299"/>
				</linearGradient>
				
					<path style="fill:url(#SVGID_00000056396061420559501270000003818709027376677257_);stroke:#000000;stroke-width:4;stroke-miterlimit:10;" d="
					M814.2,1556.9c0,14.8-4.2,11.1-9.3,11.1s-9.3-12-9.3-26.9s4.2-26.9,9.3-26.9C810.1,1514.3,814.2,1542.1,814.2,1556.9z"/>
			</g>
			
				<radialGradient id="SVGID_00000064311606177960934670000015271250510636767404_" cx="-136.8705" cy="427.3239" r="71.3705" gradientTransform="matrix(0.5918 0 0 0.6879 824.6 1175.0939)" gradientUnits="userSpaceOnUse">
				<stop  offset="0" style="stop-color:#C7B299"/>
				<stop  offset="0.5304" style="stop-color:#C7B197"/>
				<stop  offset="0.7214" style="stop-color:#C7AE90"/>
				<stop  offset="0.8575" style="stop-color:#C7A885"/>
				<stop  offset="0.9668" style="stop-color:#C69F74"/>
				<stop  offset="1" style="stop-color:#C69C6D"/>
			</radialGradient>
			
				<path style="fill:url(#SVGID_00000064311606177960934670000015271250510636767404_);stroke:#000000;stroke-width:4;stroke-miterlimit:10;" d="
				M781.2,1461.2c0,34.1-16.8,61.8-37.6,61.8s-37.6-27.7-37.6-61.8s16.8-46.1,37.6-46.1S781.2,1427.1,781.2,1461.2z"/>
			
				<radialGradient id="SVGID_00000125588022548500030790000017089591072651361200_" cx="-0.5123" cy="520.3574" r="91.7429" gradientTransform="matrix(0.6183 0 0 0.6879 743.7449 1175.0939)" gradientUnits="userSpaceOnUse">
				<stop  offset="0" style="stop-color:#A67C52"/>
				<stop  offset="0.2686" style="stop-color:#9F754B"/>
				<stop  offset="0.6604" style="stop-color:#8B6239"/>
				<stop  offset="1" style="stop-color:#754C24"/>
			</radialGradient>
			
				<path style="fill:url(#SVGID_00000125588022548500030790000017089591072651361200_);stroke:#000000;stroke-width:4;stroke-miterlimit:10;" d="
				M805.8,1526c0,49.9-27.8,72.8-62.1,72.8s-62.1-22.8-62.1-72.8c0-34.4,13.6-60.2,36.1-71.7c3.4-1.8,14.8-2.2,26-2.3
				c11-0.2,22.6-0.4,26,1.3C789.5,1462.9,805.8,1490.4,805.8,1526z"/>
			<g>
				<g>
					<path class="st14" d="M732.7,1468.5c0,4.4-5.2,0.1-11.6,0.1s-11.6,4.4-11.6-0.1c0-4.4,5.2-8,11.6-8S732.7,1464.1,732.7,1468.5z
						"/>
					<ellipse class="st15" cx="721.1" cy="1463" rx="3.4" ry="2.5"/>
				</g>
			</g>
			<g>
				<path class="st16" d="M735.8,1422.2c-0.1,2,0.1,5.3-5.1,8.2"/>
				<path class="st16" d="M751.4,1422.2c0.1,2-0.1,5.3,5.1,8.2"/>
			</g>
			<g>
				<g>
					<path class="st14" d="M754.8,1468.6c0,4.4,5.2,0.1,11.6,0.1s11.6,4.4,11.6-0.1c0-4.4-5.2-8-11.6-8S754.8,1464.2,754.8,1468.6z"
						/>
					<ellipse class="st15" cx="766.4" cy="1463.1" rx="3.4" ry="2.5"/>
				</g>
			</g>
		</g>
		<g>
			<line class="st17" x1="721.6" y1="1452.1" x2="743.7" y2="1205.5"/>
			<line class="st17" x1="765.7" y1="1452.1" x2="743.7" y2="1205.5"/>
		</g>
	</g>
	<g>
		<g>
			<path class="st7" d="M344.3,331.6c1.9,0,1.9-3,0-3S342.4,331.6,344.3,331.6L344.3,331.6z"/>
		</g>
	</g>
	<g>
		<g>
			<g>
				<path class="st7" d="M909.5,280.1c1.9,0,1.9-3,0-3S907.6,280.1,909.5,280.1L909.5,280.1z"/>
			</g>
		</g>
		<g>
			<g>
				<path class="st8" d="M607.5,141.2h274.3c0.2,0,0.4,0.2,0.4,0.5v273.7c0,0.3-0.2,0.5-0.4,0.5H607.5"/>
			</g>
			<g>
				<line class="st9" x1="734" y1="270.9" x2="755.2" y2="292"/>
				<line class="st9" x1="755.2" y1="270.9" x2="734" y2="292"/>
			</g>
			<path class="st24" d="M660.5,244.9c0-12.8,10.4-23.1,23.2-23.1s23.2,10.4,23.2,23.1c0,12.8-10.4,23.1-23.2,23.1
				C670.9,268.1,660.5,257.7,660.5,244.9"/>
		</g>
		<text transform="matrix(1 0 0 1 607.5032 125.9111)" class="st3 st4">750 ms</text>
	</g>
	<g>
		<g>
			<g>
				<path class="st8" d="M570.9,416H298.7c-0.7,0-1.2-0.5-1.2-1.2V142.5c0-0.7,0.5-1.2,1.2-1.2h272.2c0.7,0,1.2,0.6,1.2,1.2v272.2
					C572.1,415.5,571.6,416,570.9,416z"/>
			</g>
			<g>
				<line class="st9" x1="430.4" y1="270.9" x2="451.5" y2="292"/>
				<line class="st9" x1="451.5" y1="270.9" x2="430.4" y2="292"/>
			</g>
		</g>
		<text transform="matrix(1 0 0 1 297.4168 117.0581)" class="st3 st4">50 ms</text>
	</g>
	<g>
		<g>
			<g>
				<path class="st8" d="M1395.5,416h-272.2c-0.7,0-1.2-0.5-1.2-1.2V142.5c0-0.7,0.6-1.2,1.2-1.2h272.2c0.7,0,1.2,0.6,1.2,1.2v272.2
					C1396.7,415.5,1396.2,416,1395.5,416z"/>
			</g>
			<g>
				<line class="st9" x1="1248.8" y1="270.9" x2="1269.9" y2="292"/>
				<line class="st9" x1="1269.9" y1="270.9" x2="1248.8" y2="292"/>
			</g>
		</g>
		<text transform="matrix(1 0 0 1 1122.0354 126.6553)" class="st3 st4">1500 ms</text>
	</g>
	<g>
		<g>
			<path class="st8" d="M1747.8,141.3h274.1c0.3,0,0.6,0.4,0.6,0.9v273c0,0.5-0.3,0.9-0.6,0.9h-274.1"/>
		</g>
		<g>
			<path class="st9" d="M1895.2,270.9"/>
		</g>
		<g>
			<circle class="st22" cx="1845.2" cy="364.6" r="23.2"/>
			<circle class="st23" cx="1970.9" cy="318.8" r="23.2"/>
			<circle class="st24" cx="1925" cy="192.7" r="23.2"/>
			<circle class="st25" cx="1799.3" cy="238.5" r="23.2"/>
		</g>
		<text transform="matrix(1 0 0 1 1747.7576 126.1514)" class="st3 st4">&lt;5000 ms</text>
	</g>
	<g>
		<g>
			<line class="st0" x1="1270.3" y1="966.4" x2="1282.8" y2="966.5"/>
			<line class="st39" x1="1308.5" y1="966.7" x2="1604.4" y2="969.3"/>
			<line class="st0" x1="1617.3" y1="969.4" x2="1629.8" y2="969.5"/>
		</g>
	</g>
</g>
<g id="hashes">
	<g>
		<line class="st40" x1="1442.5" y1="1679" x2="1457.7" y2="1679"/>
		<line class="st41" x1="1453.2" y1="1661.4" x2="1431.8" y2="1696.6"/>
		<line class="st41" x1="1469.5" y1="1661.4" x2="1448.1" y2="1696.6"/>
	</g>
	<g>
		<line class="st40" x1="1442.5" y1="1835.2" x2="1457.7" y2="1835.2"/>
		<line class="st41" x1="1453.2" y1="1817.7" x2="1431.8" y2="1852.8"/>
		<line class="st41" x1="1469.5" y1="1817.7" x2="1448.1" y2="1852.8"/>
	</g>
	<g>
		<line class="st40" x1="1442.5" y1="1886" x2="1457.7" y2="1886"/>
		<line class="st41" x1="1453.2" y1="1868.4" x2="1431.8" y2="1903.6"/>
		<line class="st41" x1="1469.5" y1="1868.4" x2="1448.1" y2="1903.6"/>
	</g>
	<g>
		<line class="st40" x1="1073.9" y1="1677.5" x2="1089.2" y2="1677.5"/>
		<line class="st41" x1="1084.6" y1="1659.9" x2="1063.2" y2="1695.1"/>
		<line class="st41" x1="1101" y1="1659.9" x2="1079.6" y2="1695.1"/>
	</g>
	<g>
		<line class="st40" x1="1073.9" y1="1834.6" x2="1089.2" y2="1834.6"/>
		<line class="st41" x1="1084.6" y1="1817" x2="1063.2" y2="1852.2"/>
		<line class="st41" x1="1101" y1="1817" x2="1079.6" y2="1852.2"/>
	</g>
	<g>
		<line class="st40" x1="1073.9" y1="1947.8" x2="1089.2" y2="1947.8"/>
		<line class="st41" x1="1084.6" y1="1930.3" x2="1063.2" y2="1965.4"/>
		<line class="st41" x1="1101" y1="1930.3" x2="1079.6" y2="1965.4"/>
	</g>
	<g>
		<line class="st40" x1="1889" y1="1738.7" x2="1904.2" y2="1738.7"/>
		<line class="st41" x1="1899.7" y1="1721.1" x2="1878.3" y2="1756.3"/>
		<line class="st41" x1="1916" y1="1721.1" x2="1894.6" y2="1756.3"/>
	</g>
	<g>
		<line class="st40" x1="1889" y1="1835.2" x2="1904.2" y2="1835.2"/>
		<line class="st41" x1="1899.7" y1="1817.6" x2="1878.3" y2="1852.7"/>
		<line class="st41" x1="1916" y1="1817.6" x2="1894.6" y2="1852.7"/>
	</g>
	<g>
		<line class="st40" x1="1889" y1="1885.9" x2="1904.2" y2="1885.9"/>
		<line class="st41" x1="1899.7" y1="1868.3" x2="1878.3" y2="1903.5"/>
		<line class="st41" x1="1916" y1="1868.3" x2="1894.6" y2="1903.5"/>
	</g>
	<g>
		<line class="st42" x1="1875.9" y1="573.9" x2="1891.1" y2="573.9"/>
		<line class="st41" x1="1886.6" y1="556.3" x2="1865.2" y2="591.5"/>
		<line class="st41" x1="1902.9" y1="556.3" x2="1881.6" y2="591.5"/>
	</g>
	<g>
		<line class="st40" x1="1875.9" y1="670.4" x2="1891.1" y2="670.4"/>
		<line class="st41" x1="1886.6" y1="652.8" x2="1865.2" y2="688"/>
		<line class="st41" x1="1902.9" y1="652.8" x2="1881.6" y2="688"/>
	</g>
	<g>
		<line class="st40" x1="1875.9" y1="721.2" x2="1891.1" y2="721.2"/>
		<line class="st41" x1="1886.6" y1="703.6" x2="1865.2" y2="738.8"/>
		<line class="st41" x1="1902.9" y1="703.6" x2="1881.6" y2="738.8"/>
	</g>
	<text transform="matrix(1 0 0 1 35.086 46.1096)" class="st43 st44">Human paradigm</text>
	<text transform="matrix(1 0 0 1 34.2727 956.8701)" class="st43 st44">NHP paradigm</text>
</g>
<g id="munke" class="st45">
	<g class="st46">
		
			<linearGradient id="SVGID_00000156564207532156076520000011302969436517722809_" gradientUnits="userSpaceOnUse" x1="2696.7771" y1="-434.4984" x2="2764.7063" y2="-366.5693" gradientTransform="matrix(-1 0 0 1 5553.1719 898)">
			<stop  offset="0" style="stop-color:#C69C6D"/>
			<stop  offset="0.2973" style="stop-color:#C6A075"/>
			<stop  offset="0.7567" style="stop-color:#C7AB8B"/>
			<stop  offset="1" style="stop-color:#C7B299"/>
		</linearGradient>
		
			<path style="fill:url(#SVGID_00000156564207532156076520000011302969436517722809_);stroke:#000000;stroke-width:4;stroke-miterlimit:10;" d="
			M2802.6,527.8c0,31.9,10,24,22.2,24s22.2-25.9,22.2-57.8s-10-57.8-22.2-57.8C2812.6,436.1,2802.6,495.9,2802.6,527.8z"/>
		
			<linearGradient id="SVGID_00000110435050738324006240000009408994451814591904_" gradientUnits="userSpaceOnUse" x1="3086.8091" y1="-434.4822" x2="3154.738" y2="-366.5531" gradientTransform="matrix(1 0 0 1 0 898)">
			<stop  offset="0" style="stop-color:#C69C6D"/>
			<stop  offset="0.2973" style="stop-color:#C6A075"/>
			<stop  offset="0.7567" style="stop-color:#C7AB8B"/>
			<stop  offset="1" style="stop-color:#C7B299"/>
		</linearGradient>
		
			<path style="fill:url(#SVGID_00000110435050738324006240000009408994451814591904_);stroke:#000000;stroke-width:4;stroke-miterlimit:10;" d="
			M3140.6,527.8c0,31.9-10,24-22.2,24s-22.2-25.9-22.2-57.8s10-57.8,22.2-57.8S3140.6,495.9,3140.6,527.8z"/>
	</g>
	
		<radialGradient id="SVGID_00000049192783518657433740000007202420528782054791_" cx="2967.8616" cy="-559.35" r="105.6129" gradientTransform="matrix(0.9572 0 0 1 130.7631 898)" gradientUnits="userSpaceOnUse">
		<stop  offset="0" style="stop-color:#C7B299"/>
		<stop  offset="0.5304" style="stop-color:#C7B197"/>
		<stop  offset="0.7214" style="stop-color:#C7AE90"/>
		<stop  offset="0.8575" style="stop-color:#C7A885"/>
		<stop  offset="0.9668" style="stop-color:#C69F74"/>
		<stop  offset="1" style="stop-color:#C69C6D"/>
	</radialGradient>
	
		<path style="display:inline;fill:url(#SVGID_00000049192783518657433740000007202420528782054791_);stroke:#000000;stroke-width:4;stroke-miterlimit:10;" d="
		M3061.6,321.8c0,73.4-40.3,132.9-90,132.9s-90-59.5-90-132.9s40.3-99.2,90-99.2S3061.6,248.3,3061.6,321.8z"/>
	
		<radialGradient id="SVGID_00000036226074867019066980000009626763132061093511_" cx="2971.0317" cy="-421.5004" r="135.7969" gradientTransform="matrix(1 0 0 1 0 898)" gradientUnits="userSpaceOnUse">
		<stop  offset="0" style="stop-color:#A67C52"/>
		<stop  offset="0.2686" style="stop-color:#9F754B"/>
		<stop  offset="0.6604" style="stop-color:#8B6239"/>
		<stop  offset="1" style="stop-color:#754C24"/>
	</radialGradient>
	
		<path style="display:inline;fill:url(#SVGID_00000036226074867019066980000009626763132061093511_);stroke:#000000;stroke-width:4;stroke-miterlimit:10;" d="
		M3120.2,461.1c0,107.4-66.6,156.6-148.6,156.6S2823,568.6,2823,461.2c0-74,32.6-129.5,86.4-154.4c8.2-3.8,35.5-4.7,62.2-5
		c26.3-0.3,54.1-0.8,62.2,2.8C3081.3,325.4,3120.2,384.7,3120.2,461.1z"/>
	<g class="st46">
		<g>
			<path class="st14" d="M2945.3,337.5c0,9.5-12.4,0.1-27.8,0.1s-27.8,9.4-27.8-0.1s12.4-17.2,27.8-17.2
				C2932.9,320.3,2945.3,328,2945.3,337.5z"/>
			<circle class="st15" cx="2917.5" cy="328.4" r="8.1"/>
		</g>
		<g>
			<path class="st14" d="M3053.5,337.5c0,9.5-12.4,0.1-27.8,0.1s-27.8,9.4-27.8-0.1s12.4-17.2,27.8-17.2S3053.5,328,3053.5,337.5z"
				/>
			<ellipse class="st15" cx="3025.7" cy="328.9" rx="8.1" ry="8.6"/>
		</g>
	</g>
	<g class="st46">
		<path class="st16" d="M2952.9,237.9c-0.1,4.2,0.1,11.5-12.2,17.7"/>
		<path class="st16" d="M2990.2,237.9c0.1,4.2-0.1,11.5,12.2,17.7"/>
	</g>
</g>
</svg>
