<?xml version="1.0" encoding="utf-8"?>
<!-- Generator: Adobe Illustrator 26.3.1, SVG Export Plug-In . SVG Version: 6.00 Build 0)  -->
<svg version="1.1" id="Layer_1" xmlns="http://www.w3.org/2000/svg" xmlns:xlink="http://www.w3.org/1999/xlink" x="0px" y="0px"
	 viewBox="0 0 875.93 1279.07" style="enable-background:new 0 0 875.93 1279.07;" xml:space="preserve">
<style type="text/css">
	.st0{opacity:0.3;fill:none;stroke:#262626;stroke-width:2;stroke-linejoin:round;stroke-miterlimit:10;stroke-dasharray:6,3;}
	.st1{fill:#7EC8CD;}
	.st2{opacity:0.4353;fill:#E6ACCA;}
	.st3{opacity:0.702;}
	.st4{fill:none;stroke:#262626;stroke-width:2;stroke-linejoin:round;}
	.st5{fill:none;stroke:#262626;stroke-width:2;stroke-linejoin:round;stroke-dasharray:5.9946,2.9973;}
	.st6{fill:none;stroke:#262626;stroke-width:2;stroke-linecap:square;stroke-linejoin:round;stroke-miterlimit:10;}
	.st7{fill:#010101;}
	.st8{font-family:'ArialMT';}
	.st9{font-size:25px;}
	.st10{opacity:0.102;}
	.st11{fill:none;stroke:#000000;stroke-width:2;stroke-linejoin:round;stroke-miterlimit:10;}
	.st12{fill:#7BC9C4;stroke:#808080;stroke-miterlimit:10;}
	.st13{fill:#7BC9C8;stroke:#808080;stroke-miterlimit:10;}
	.st14{fill:#7DC8CC;stroke:#808080;stroke-miterlimit:10;}
	.st15{fill:#7FC7D0;stroke:#808080;stroke-miterlimit:10;}
	.st16{fill:#82C7D2;stroke:#808080;stroke-miterlimit:10;}
	.st17{fill:#86C5D5;stroke:#808080;stroke-miterlimit:10;}
	.st18{fill:#8AC4D9;stroke:#808080;stroke-miterlimit:10;}
	.st19{fill:#8FC3DC;stroke:#808080;stroke-miterlimit:10;}
	.st20{fill:#96C2DD;stroke:#808080;stroke-miterlimit:10;}
	.st21{fill:#9AC0DF;stroke:#808080;stroke-miterlimit:10;}
	.st22{fill:#9FBFE1;stroke:#808080;stroke-miterlimit:10;}
	.st23{fill:#A5BDE2;stroke:#808080;stroke-miterlimit:10;}
	.st24{fill:#ACBCE1;stroke:#808080;stroke-miterlimit:10;}
	.st25{fill:#B3BADE;stroke:#808080;stroke-miterlimit:10;}
	.st26{fill:#B7B8DC;stroke:#808080;stroke-miterlimit:10;}
	.st27{fill:#BDB7DB;stroke:#808080;stroke-miterlimit:10;}
	.st28{fill:#C1B5D9;stroke:#808080;stroke-miterlimit:10;}
	.st29{fill:#C6B3D7;stroke:#808080;stroke-miterlimit:10;}
	.st30{fill:#CAB2D6;stroke:#808080;stroke-miterlimit:10;}
	.st31{fill:#CFB1D5;stroke:#808080;stroke-miterlimit:10;}
	.st32{fill:#D1AFD3;stroke:#808080;stroke-miterlimit:10;}
	.st33{fill:#D5AED2;stroke:#808080;stroke-miterlimit:10;}
	.st34{fill:#D9ADD1;stroke:#808080;stroke-miterlimit:10;}
	.st35{fill:#DCADD0;stroke:#808080;stroke-miterlimit:10;}
	.st36{fill:#E0ACCF;stroke:#808080;stroke-miterlimit:10;}
	.st37{fill:#E2ABCE;stroke:#808080;stroke-miterlimit:10;}
	.st38{fill:#E4ABCC;stroke:#808080;stroke-miterlimit:10;}
	.st39{fill:#E5ABC8;stroke:#808080;stroke-miterlimit:10;}
	.st40{fill:#E6ABC4;stroke:#808080;stroke-miterlimit:10;}
	.st41{fill:#E8ABC0;stroke:#808080;stroke-miterlimit:10;}
	.st42{fill:#E8ACBB;stroke:#808080;stroke-miterlimit:10;}
	.st43{fill:#E8ADB8;stroke:#808080;stroke-miterlimit:10;}
	.st44{fill:#E7AEB3;stroke:#808080;stroke-miterlimit:10;}
	.st45{fill:#E7ADAE;stroke:#808080;stroke-miterlimit:10;}
	.st46{fill:#E6AEAA;stroke:#808080;stroke-miterlimit:10;}
	.st47{fill:#E3AFA7;stroke:#808080;stroke-miterlimit:10;}
	.st48{fill:#E1B1A3;stroke:#808080;stroke-miterlimit:10;}
	.st49{fill:#E0B29E;stroke:#808080;stroke-miterlimit:10;}
	.st50{fill:#DCB39B;stroke:#808080;stroke-miterlimit:10;}
	.st51{fill:#DAB498;stroke:#808080;stroke-miterlimit:10;}
	.st52{fill:#D6B694;stroke:#808080;stroke-miterlimit:10;}
	.st53{fill:#D3B791;stroke:#808080;stroke-miterlimit:10;}
	.st54{fill:#D0B990;stroke:#808080;stroke-miterlimit:10;}
	.st55{fill:#CDBA8D;stroke:#808080;stroke-miterlimit:10;}
	.st56{fill:#C9BC8C;stroke:#808080;stroke-miterlimit:10;}
	.st57{fill:#C4BD8B;stroke:#808080;stroke-miterlimit:10;}
	.st58{fill:#C0BE8B;stroke:#808080;stroke-miterlimit:10;}
	.st59{fill:#BBC08B;stroke:#808080;stroke-miterlimit:10;}
	.st60{fill:#B7C18C;stroke:#808080;stroke-miterlimit:10;}
	.st61{fill:#B3C28F;stroke:#808080;stroke-miterlimit:10;}
	.st62{fill:#AEC390;stroke:#808080;stroke-miterlimit:10;}
	.st63{fill:#A9C492;stroke:#808080;stroke-miterlimit:10;}
	.st64{fill:#A3C594;stroke:#808080;stroke-miterlimit:10;}
	.st65{fill:#9DC697;stroke:#808080;stroke-miterlimit:10;}
	.st66{fill:#99C79B;stroke:#808080;stroke-miterlimit:10;}
	.st67{fill:#94C89E;stroke:#808080;stroke-miterlimit:10;}
	.st68{fill:#8FC9A2;stroke:#808080;stroke-miterlimit:10;}
	.st69{fill:#8AC8A6;stroke:#808080;stroke-miterlimit:10;}
	.st70{fill:#86C8AB;stroke:#808080;stroke-miterlimit:10;}
	.st71{fill:#83CAAF;stroke:#808080;stroke-miterlimit:10;}
	.st72{fill:#7FCAB3;stroke:#808080;stroke-miterlimit:10;}
	.st73{fill:#7DCAB7;stroke:#808080;stroke-miterlimit:10;}
	.st74{fill:#7BCABC;stroke:#808080;stroke-miterlimit:10;}
	.st75{fill:#79CBC1;stroke:#808080;stroke-miterlimit:10;}
	.st76{opacity:0.5647;fill:#A5BDE2;}
	.st77{fill:#E7ACBA;}
	.st78{opacity:0.7843;fill:#DAB596;}
	.st79{fill:#80C7D1;}
	.st80{opacity:0.8431;fill:#E3B0A4;}
	.st81{opacity:0.9529;fill:#B3C28E;}
	.st82{opacity:0.79;fill:#7FC8CF;}
	.st83{opacity:0.1294;fill:#BFB6DA;}
	.st84{font-size:30px;}
	.st85{fill:#8C8C8C;}
	.st86{fill:#595959;}
</style>
<line class="st0" x1="538.91" y1="1194.29" x2="538.91" y2="60.33"/>
<line class="st0" x1="783.13" y1="1193.65" x2="783.13" y2="59.69"/>
<line class="st0" x1="370.43" y1="1194.29" x2="370.43" y2="60.33"/>
<line class="st0" x1="170.6" y1="1194.29" x2="170.6" y2="60.33"/>
<g id="Morty">
	<rect x="109.16" y="654.72" class="st1" width="47.38" height="246.53"/>
	<rect x="274.93" y="654.72" class="st2" width="225.37" height="246.53"/>
	<g id="yaxis">
		<g>
			<g class="st3">
				<g>
					<line class="st4" x1="101.62" y1="777.81" x2="104.62" y2="777.81"/>
					<line class="st5" x1="107.61" y1="777.81" x2="843.46" y2="777.81"/>
					<line class="st4" x1="844.96" y1="777.81" x2="847.96" y2="777.81"/>
				</g>
			</g>
			<line class="st6" x1="101.62" y1="901.37" x2="101.62" y2="654.25"/>
			<line class="st6" x1="101.62" y1="901.37" x2="91.25" y2="901.37"/>
			<line class="st6" x1="101.62" y1="839.59" x2="91.25" y2="839.59"/>
			<line class="st6" x1="101.62" y1="777.81" x2="91.25" y2="777.81"/>
			<line class="st6" x1="101.62" y1="716.03" x2="91.25" y2="716.03"/>
			<line class="st6" x1="101.62" y1="654.25" x2="91.25" y2="654.25"/>
			<text transform="matrix(1 0 0 1 60.755 662.8715)" class="st7 st8 st9">50</text>
			<text transform="matrix(1 0 0 1 60.755 722.2504)" class="st7 st8 st9">25</text>
			<text transform="matrix(1 0 0 1 71.6769 784.2758)" class="st7 st8 st9">0</text>
			<text transform="matrix(1 0 0 1 60.755 848.3363)" class="st7 st8 st9">25</text>
			<text transform="matrix(1 0 0 1 54.214 907.931)" class="st7 st8 st9">-50</text>
		</g>
	</g>
	<polygon class="st10" points="253.99,873.92 265.63,855.93 277.28,823.41 288.93,806.08 300.58,789.13 312.23,797.76 
		323.88,794.86 335.53,806.91 347.18,807.13 358.83,801.56 370.48,793.11 382.13,795.48 393.78,795.78 405.43,801.34 417.07,825.08 
		428.72,819.81 440.37,827.58 452.02,829.29 463.67,833.95 475.32,820.69 486.97,833.42 498.62,834.59 510.27,830.38 521.92,826.34 
		533.57,827.99 545.22,824.75 556.86,819.26 568.51,815.64 580.16,809.93 591.81,809.22 603.46,808.84 615.11,806.1 626.76,801.98 
		638.41,799.57 650.06,792.83 661.71,777.34 673.36,771.86 685.01,773.13 696.66,778.39 708.3,779.34 719.95,785.83 731.6,781.28 
		743.25,782.03 754.9,774.77 766.55,771.29 778.2,772.66 789.85,776.59 801.5,767.76 813.15,768.69 824.8,766.56 836.45,765.69 
		848.1,772.44 848.1,732.88 836.45,722.13 824.8,724.09 813.15,724.43 801.5,724.35 789.85,731.22 778.2,728.69 766.55,726.83 
		754.9,732.39 743.25,740.91 731.6,744.51 719.95,750.38 708.3,743.39 696.66,742.46 685.01,731.51 673.36,729.06 661.71,734.64 
		650.06,757.36 638.41,766.9 626.76,774.32 615.11,774.39 603.46,777.44 591.81,770.2 580.16,768.27 568.51,775.11 556.86,782.47 
		545.22,785.86 533.57,786.72 521.92,784.88 510.27,783.78 498.62,785.07 486.97,776.79 475.32,769.3 463.67,767.79 452.02,758.19 
		440.37,750.44 428.72,748.04 417.07,749.9 405.43,735.29 393.78,736.4 382.13,738.88 370.48,742.16 358.83,743.4 347.18,759.11 
		335.53,763.39 323.88,756.59 312.23,759.02 300.58,757.06 288.93,761.95 277.28,773.04 265.63,797.52 253.99,814.82 242.34,828.47 
		230.69,830.42 219.04,824.03 207.39,813.1 195.74,800.73 184.09,789.75 172.44,783.63 160.79,780.62 149.14,773.41 137.49,763.01 
		125.84,752.87 114.2,744.23 102.55,732.88 102.55,772.44 114.2,782.22 125.84,793.7 137.49,805.95 149.14,816.92 160.79,824.4 
		172.44,830.77 184.09,832.1 195.74,843.22 207.39,853.24 219.04,872.44 230.69,880.36 242.34,887.66 	"/>
	<polyline class="st11" points="102.55,752.66 114.2,763.22 125.84,773.29 137.49,784.48 149.14,795.17 160.79,802.51 172.44,807.2 
		184.09,810.93 195.74,821.98 207.39,833.17 219.04,848.24 230.69,855.39 242.34,858.06 253.99,844.37 265.63,826.73 277.28,798.23 
		288.93,784.01 300.58,773.1 312.23,778.39 323.88,775.73 335.53,785.15 347.18,783.12 358.83,772.48 370.48,767.63 382.13,767.18 
		393.78,766.09 405.43,768.32 417.07,787.49 428.72,783.92 440.37,789.01 452.02,793.74 463.67,800.87 475.32,795 486.97,805.11 
		498.62,809.83 510.27,807.08 521.92,805.61 533.57,807.36 545.22,805.3 556.86,800.86 568.51,795.38 580.16,789.1 591.81,789.71 
		603.46,793.14 615.11,790.24 626.76,788.15 638.41,783.23 650.06,775.1 661.71,755.99 673.36,750.46 685.01,752.32 696.66,760.42 
		708.3,761.37 719.95,768.1 731.6,762.89 743.25,761.47 754.9,753.58 766.55,749.06 778.2,750.67 789.85,753.9 801.5,746.05 
		813.15,746.56 824.8,745.33 836.45,743.91 848.1,752.66 	"/>
	<g>
		
			<ellipse transform="matrix(1.236489e-03 -1 1 1.236489e-03 -634.7779 838.832)" class="st12" cx="102.55" cy="737.2" rx="4.85" ry="4.85"/>
		
			<ellipse transform="matrix(1.236489e-03 -1 1 1.236489e-03 -646.806 874.1149)" class="st13" cx="114.2" cy="760.86" rx="4.85" ry="4.85"/>
		
			<ellipse transform="matrix(1.236489e-03 -1 1 1.236489e-03 -659.2964 909.8595)" class="st14" cx="125.84" cy="784.99" rx="4.85" ry="4.85"/>
		
			<ellipse transform="matrix(1.236488e-03 -1 1 1.236488e-03 -646.6595 920.5078)" class="st15" cx="137.49" cy="783.98" rx="4.85" ry="4.85"/>
		
			<ellipse transform="matrix(1.238021e-03 -1 1 1.238021e-03 -650.4596 947.5714)" class="st16" cx="149.14" cy="799.42" rx="4.85" ry="4.85"/>
		
			<ellipse transform="matrix(1.236871e-03 -1 1 1.236871e-03 -632.5342 952.9388)" class="st17" cx="160.79" cy="793.13" rx="4.85" ry="4.85"/>
		
			<ellipse transform="matrix(1.237062e-03 -1 1 1.237062e-03 -642.0891 985.7513)" class="st18" cx="172.44" cy="814.32" rx="4.85" ry="4.85"/>
		
			<ellipse transform="matrix(1.237158e-03 -1 1 1.237158e-03 -637.8276 1004.7646)" class="st19" cx="184.09" cy="821.69" rx="4.85" ry="4.85"/>
		
			<ellipse transform="matrix(1.237349e-03 -1 1 1.237349e-03 -611.9669 1002.2053)" class="st20" cx="195.74" cy="807.46" rx="4.85" ry="4.85"/>
		
			<ellipse transform="matrix(1.237158e-03 -1 1 1.237158e-03 -610.9061 1024.4156)" class="st21" cx="207.39" cy="818.04" rx="4.85" ry="4.85"/>
		
			<ellipse transform="matrix(1.237062e-03 -1 1 1.237062e-03 -629.6014 1066.3575)" class="st22" cx="219.04" cy="848.37" rx="4.85" ry="4.85"/>
		
			<ellipse transform="matrix(1.236871e-03 -1 1 1.236871e-03 -639.8621 1099.8754)" class="st23" cx="230.69" cy="870.26" rx="4.85" ry="4.85"/>
		
			<ellipse transform="matrix(1.236871e-03 -1 1 1.236871e-03 -655.0089 1138.2731)" class="st24" cx="242.34" cy="897.05" rx="4.85" ry="4.85"/>
		
			<ellipse transform="matrix(1.236489e-03 -1 1 1.236489e-03 -589.5531 1096.1682)" class="st25" cx="253.99" cy="843.23" rx="4.85" ry="4.85"/>
		
			<ellipse transform="matrix(1.236489e-03 -1 1 1.236489e-03 -566.1095 1096.0232)" class="st26" cx="265.63" cy="831.42" rx="4.85" ry="4.85"/>
		
			<ellipse transform="matrix(1.236489e-03 -1 1 1.236489e-03 -502.9653 1056.2267)" class="st27" cx="277.28" cy="779.91" rx="4.85" ry="4.85"/>
		
			<ellipse transform="matrix(1.236489e-03 -1 1 1.236489e-03 -493.4605 1070.0032)" class="st28" cx="288.93" cy="782.04" rx="4.85" ry="4.85"/>
		
			<ellipse transform="matrix(1.236489e-03 -1 1 1.236489e-03 -454.3393 1054.2)" class="st29" cx="300.58" cy="754.55" rx="4.85" ry="4.85"/>
		
			<ellipse transform="matrix(1.235726e-03 -1 1 1.235726e-03 -460.3138 1083.4375)" class="st30" cx="312.23" cy="772.16" rx="4.85" ry="4.85"/>
		
			<ellipse transform="matrix(1.235724e-03 -1 1 1.235724e-03 -453.3421 1099.744)" class="st31" cx="323.88" cy="776.82" rx="4.85" ry="4.85"/>
		
			<ellipse transform="matrix(1.235725e-03 -1 1 1.235725e-03 -471.2728 1140.9222)" class="st32" cx="335.53" cy="806.39" rx="4.85" ry="4.85"/>
		
			<ellipse transform="matrix(1.235725e-03 -1 1 1.235725e-03 -421.962 1114.942)" class="st33" cx="347.18" cy="768.71" rx="4.85" ry="4.85"/>
		
			<ellipse transform="matrix(1.235725e-03 -1 1 1.235725e-03 -443.288 1159.5112)" class="st34" cx="358.83" cy="801.67" rx="4.85" ry="4.85"/>
		
			<ellipse transform="matrix(1.235725e-03 -1 1 1.235725e-03 -391.9876 1131.5438)" class="st35" cx="370.48" cy="762.01" rx="4.85" ry="4.85"/>
		
			<ellipse transform="matrix(1.235725e-03 -1 1 1.235725e-03 -341.9687 1104.8563)" class="st36" cx="382.13" cy="723.62" rx="4.85" ry="4.85"/>
		
			<ellipse transform="matrix(1.235725e-03 -1 1 1.235725e-03 -388.8611 1174.9606)" class="st37" cx="393.78" cy="782.15" rx="4.85" ry="4.85"/>
		
			<ellipse transform="matrix(1.234201e-03 -1 1 1.234201e-03 -361.5051 1170.9097)" class="st38" cx="405.43" cy="766.43" rx="4.85" ry="4.85"/>
		
			<ellipse transform="matrix(1.234201e-03 -1 1 1.234201e-03 -379.6725 1212.3243)" class="st39" cx="417.07" cy="796.23" rx="4.85" ry="4.85"/>
		
			<ellipse transform="matrix(1.234201e-03 -1 1 1.234201e-03 -344.9426 1200.907)" class="st40" cx="428.72" cy="773.14" rx="4.85" ry="4.85"/>
		
			<ellipse transform="matrix(1.234200e-03 -1 1 1.234200e-03 -379.6758 1258.8671)" class="st41" cx="440.37" cy="819.51" rx="4.85" ry="4.85"/>
		
			<ellipse transform="matrix(1.234200e-03 -1 1 1.234200e-03 -312.8453 1215.3885)" class="st42" cx="452.02" cy="764.31" rx="4.85" ry="4.85"/>
		
			<ellipse transform="matrix(1.234200e-03 -1 1 1.234200e-03 -328.756 1254.5493)" class="st43" cx="463.67" cy="791.86" rx="4.85" ry="4.85"/>
		
			<ellipse transform="matrix(1.234200e-03 -1 1 1.234200e-03 -345.1573 1294.2001)" class="st44" cx="475.32" cy="819.89" rx="4.85" ry="4.85"/>
		
			<ellipse transform="matrix(1.234201e-03 -1 1 1.234201e-03 -322.4236 1294.7642)" class="st45" cx="486.97" cy="808.79" rx="4.85" ry="4.85"/>
		
			<ellipse transform="matrix(1.234201e-03 -1 1 1.234201e-03 -292.1216 1287.7692)" class="st46" cx="498.62" cy="790.13" rx="4.85" ry="4.85"/>
		
			<ellipse transform="matrix(1.234200e-03 -1 1 1.234200e-03 -305.2358 1324.1368)" class="st47" cx="510.27" cy="814.87" rx="4.85" ry="4.85"/>
		
			<ellipse transform="matrix(1.234201e-03 -1 1 1.234201e-03 -294.1969 1336.3812)" class="st48" cx="521.92" cy="815.47" rx="4.85" ry="4.85"/>
		
			<ellipse transform="matrix(1.234200e-03 -1 1 1.234200e-03 -273.2163 1338.6962)" class="st49" cx="533.57" cy="806.12" rx="4.85" ry="4.85"/>
		
			<ellipse transform="matrix(1.234201e-03 -1 1 1.234201e-03 -256.9233 1345.693)" class="st50" cx="545.22" cy="801.47" rx="4.85" ry="4.85"/>
		
			<ellipse transform="matrix(1.234200e-03 -1 1 1.234200e-03 -242.6787 1354.7356)" class="st51" cx="556.86" cy="798.86" rx="4.85" ry="4.85"/>
		
			<ellipse transform="matrix(1.234201e-03 -1 1 1.234201e-03 -236.7911 1372.1249)" class="st52" cx="568.51" cy="804.6" rx="4.85" ry="4.85"/>
		
			<ellipse transform="matrix(1.234200e-03 -1 1 1.234200e-03 -213.8062 1372.438)" class="st53" cx="580.16" cy="793.25" rx="4.85" ry="4.85"/>
		
			<ellipse transform="matrix(1.234201e-03 -1 1 1.234201e-03 -187.6157 1369.5496)" class="st54" cx="591.81" cy="778.7" rx="4.85" ry="4.85"/>
		
			<ellipse transform="matrix(1.234201e-03 -1 1 1.234201e-03 -167.3684 1372.5968)" class="st55" cx="603.46" cy="770.09" rx="4.85" ry="4.85"/>
		
			<ellipse transform="matrix(1.231163e-03 -1 1 1.231163e-03 -187.5586 1416.0361)" class="st56" cx="615.11" cy="801.91" rx="4.85" ry="4.85"/>
		
			<ellipse transform="matrix(1.231164e-03 -1 1 1.231164e-03 -195.758 1447.4951)" class="st57" cx="626.76" cy="821.75" rx="4.85" ry="4.85"/>
		
			<ellipse transform="matrix(1.231163e-03 -1 1 1.231163e-03 -141.1506 1416.2246)" class="st58" cx="638.41" cy="778.77" rx="4.85" ry="4.85"/>
		
			<ellipse transform="matrix(1.231163e-03 -1 1 1.231163e-03 -118.9494 1417.3206)" class="st59" cx="650.06" cy="768.21" rx="4.85" ry="4.85"/>
		
			<ellipse transform="matrix(1.231162e-03 -1 1 1.231162e-03 -84.6272 1406.3103)" class="st60" cx="661.71" cy="745.52" rx="4.85" ry="4.85"/>
		
			<ellipse transform="matrix(1.231162e-03 -1 1 1.231162e-03 -88.6991 1433.647)" class="st61" cx="673.36" cy="761.23" rx="4.85" ry="4.85"/>
		
			<ellipse transform="matrix(1.231163e-03 -1 1 1.231163e-03 -42.0372 1410.3121)" class="st62" cx="685.01" cy="726.2" rx="4.85" ry="4.85"/>
		
			<ellipse transform="matrix(1.231162e-03 -1 1 1.231162e-03 -55.3296 1446.858)" class="st63" cx="696.66" cy="751.13" rx="4.85" ry="4.85"/>
		
			<ellipse transform="matrix(1.231163e-03 -1 1 1.231163e-03 -70.0938 1484.8738)" class="st64" cx="708.3" cy="777.53" rx="4.85" ry="4.85"/>
		
			<ellipse transform="matrix(1.231163e-03 -1 1 1.231163e-03 -66.957 1505.0106)" class="st65" cx="719.95" cy="786.03" rx="4.85" ry="4.85"/>
		
			<ellipse transform="matrix(1.231163e-03 -1 1 1.231163e-03 -35.2584 1496.6207)" class="st66" cx="731.6" cy="765.96" rx="4.85" ry="4.85"/>
		
			<ellipse transform="matrix(1.231164e-03 -1 1 1.231164e-03 -17.5327 1502.1866)" class="st67" cx="743.25" cy="759.87" rx="4.85" ry="4.85"/>
		
			<ellipse transform="matrix(1.231163e-03 -1 1 1.231163e-03 28.886 1479.0947)" class="st68" cx="754.9" cy="725.09" rx="4.85" ry="4.85"/>
		
			<ellipse transform="matrix(1.231164e-03 -1 1 1.231164e-03 -4.8061 1536.0151)" class="st69" cx="766.55" cy="770.41" rx="4.85" ry="4.85"/>
		
			<ellipse transform="matrix(1.231163e-03 -1 1 1.231163e-03 30.676 1523.8464)" class="st70" cx="778.2" cy="746.57" rx="4.85" ry="4.85"/>
		
			<ellipse transform="matrix(1.231164e-03 -1 1 1.231164e-03 45.5181 1532.2924)" class="st71" cx="789.85" cy="743.36" rx="4.85" ry="4.85"/>
		
			<ellipse transform="matrix(1.231163e-03 -1 1 1.231163e-03 32.5695 1568.4946)" class="st72" cx="801.5" cy="767.94" rx="4.85" ry="4.85"/>
		
			<ellipse transform="matrix(1.231163e-03 -1 1 1.231163e-03 70.9106 1553.4706)" class="st73" cx="813.15" cy="741.24" rx="4.85" ry="4.85"/>
		
			<ellipse transform="matrix(1.231164e-03 -1 1 1.231164e-03 92.6169 1555.0607)" class="st74" cx="824.8" cy="731.16" rx="4.85" ry="4.85"/>
		
			<ellipse transform="matrix(1.231163e-03 -1 1 1.231163e-03 86.3246 1584.615)" class="st75" cx="836.45" cy="749.09" rx="4.85" ry="4.85"/>
		
			<ellipse transform="matrix(1.231163e-03 -1 1 1.231163e-03 109.8539 1584.3844)" class="st12" cx="848.1" cy="737.2" rx="4.85" ry="4.85"/>
	</g>
	<text transform="matrix(0 -1 1 0 52.5196 814.7748)" class="st7 st8 st9">Bias (</text>
	<text transform="matrix(0 -0.583 0.583 0 44.1944 750.8715)" class="st7 st8 st9">o</text>
	<text transform="matrix(0 -1 1 0 52.5196 742.765)" class="st7 st8 st9">)</text>
	<line id="x_axis" class="st6" x1="101.41" y1="901.37" x2="847.75" y2="901.37"/>
</g>
<g id="y_axis">
	<g class="st3">
		<g>
			<line class="st4" x1="101.62" y1="1070.26" x2="104.62" y2="1070.26"/>
			<line class="st5" x1="107.61" y1="1070.26" x2="843.46" y2="1070.26"/>
			<line class="st4" x1="844.96" y1="1070.26" x2="847.96" y2="1070.26"/>
		</g>
	</g>
	<line class="st6" x1="101.62" y1="1193.82" x2="101.62" y2="946.71"/>
	<line class="st6" x1="101.62" y1="1193.82" x2="91.25" y2="1193.82"/>
	<line class="st6" x1="101.62" y1="1132.04" x2="91.25" y2="1132.04"/>
	<line class="st6" x1="101.62" y1="1070.26" x2="91.25" y2="1070.26"/>
	<line class="st6" x1="101.62" y1="1008.49" x2="91.25" y2="1008.49"/>
	<line class="st6" x1="101.62" y1="946.71" x2="91.25" y2="946.71"/>
	<text transform="matrix(1 0 0 1 60.7549 955.3246)" class="st7 st8 st9">50</text>
	<text transform="matrix(1 0 0 1 60.7549 1014.702)" class="st7 st8 st9">25</text>
	<text transform="matrix(1 0 0 1 71.6767 1076.7289)" class="st7 st8 st9">0</text>
	<text transform="matrix(1 0 0 1 60.7549 1140.7889)" class="st7 st8 st9">25</text>
	<text transform="matrix(1 0 0 1 54.2139 1200.3842)" class="st7 st8 st9">-50</text>
</g>
<rect x="198.31" y="945.76" class="st76" width="129.31" height="247.82"/>
<rect x="450.11" y="945.76" class="st77" width="33.03" height="247.82"/>
<polygon class="st10" points="253.24,1116.37 264.91,1108.66 276.57,1113.88 288.23,1107.68 299.9,1096.2 311.56,1079.99 
	323.23,1073.15 334.89,1058.97 346.55,1051.79 358.22,1047.12 369.88,1046.19 381.54,1043.28 393.21,1040.39 404.87,1040.32 
	416.53,1040.66 428.2,1037.91 439.86,1056.25 451.52,1073.49 463.19,1089.25 474.85,1102.15 486.52,1120.38 498.18,1120.88 
	509.84,1124.85 521.51,1129.07 533.17,1132.77 544.83,1135.63 556.5,1134.24 568.16,1132.19 579.82,1128.95 591.49,1121.45 
	603.15,1109.59 614.81,1103.16 626.48,1095.13 638.14,1086.06 649.81,1085.95 661.47,1085.4 673.13,1081.19 684.8,1076.23 
	696.46,1075.52 708.12,1075.47 719.79,1076.04 731.45,1081.19 743.11,1083.6 754.78,1077.39 766.44,1077.5 778.1,1066.05 
	789.77,1049.4 801.43,1036.54 813.1,1031.03 824.76,1013.83 836.42,1012.3 848.09,1018.26 848.09,974.73 836.42,966.18 
	824.76,965.34 813.1,982.27 801.43,980.69 789.77,991.42 778.1,1010.6 766.44,1023.76 754.78,1024.88 743.11,1041.99 
	731.45,1049.99 719.79,1047.56 708.12,1051.73 696.46,1052.95 684.8,1055.64 673.13,1059.43 661.47,1063.17 649.81,1063.8 
	638.14,1064.08 626.48,1068.08 614.81,1073.3 603.15,1080.66 591.49,1090.02 579.82,1096.88 568.16,1101.52 556.5,1105.14 
	544.83,1107.36 533.17,1106.64 521.51,1102.82 509.84,1096.76 498.18,1093.64 486.52,1092.22 474.85,1074.51 463.19,1061.81 
	451.52,1047.7 439.86,1031.17 428.2,1010.35 416.53,1011.87 404.87,1010.87 393.21,1012.44 381.54,1014.44 369.88,1019.79 
	358.22,1020.86 346.55,1026.64 334.89,1032.28 323.23,1039.54 311.56,1042.7 299.9,1051.16 288.23,1058.66 276.57,1059.62 
	264.91,1056.21 253.24,1060.25 241.58,1051.63 229.92,1043.4 218.25,1038.89 206.59,1037.4 194.93,1031.66 183.26,1030.28 
	171.6,1023.22 159.94,1014.75 148.27,1007.82 136.61,995.87 124.94,986.17 113.28,979.08 101.62,974.73 101.62,1018.26 
	113.28,1018.24 124.94,1024.87 136.61,1033.91 148.27,1042.66 159.94,1051.78 171.6,1057.95 183.26,1063.79 194.93,1068.04 
	206.59,1080.91 218.25,1083.12 229.92,1094.44 241.58,1104.25 "/>
<polyline class="st11" points="101.62,996.49 113.28,998.66 124.94,1005.52 136.61,1014.89 148.27,1025.24 159.94,1033.26 
	171.6,1040.59 183.26,1047.03 194.93,1049.85 206.59,1059.15 218.25,1061.01 229.92,1068.92 241.58,1077.94 253.24,1088.31 
	264.91,1082.43 276.57,1086.75 288.23,1083.17 299.9,1073.68 311.56,1061.35 323.23,1056.35 334.89,1045.63 346.55,1039.21 
	358.22,1033.99 369.88,1032.99 381.54,1028.86 393.21,1026.42 404.87,1025.59 416.53,1026.26 428.2,1024.13 439.86,1043.71 
	451.52,1060.59 463.19,1075.53 474.85,1088.33 486.52,1106.3 498.18,1107.26 509.84,1110.81 521.51,1115.94 533.17,1119.71 
	544.83,1121.49 556.5,1119.69 568.16,1116.85 579.82,1112.91 591.49,1105.74 603.15,1095.12 614.81,1088.23 626.48,1081.61 
	638.14,1075.07 649.81,1074.87 661.47,1074.28 673.13,1070.31 684.8,1065.93 696.46,1064.23 708.12,1063.6 719.79,1061.8 
	731.45,1065.59 743.11,1062.79 754.78,1051.13 766.44,1050.63 778.1,1038.33 789.77,1020.41 801.43,1008.61 813.1,1006.65 
	824.76,989.58 836.42,989.24 848.09,996.49 "/>
<g>
	<ellipse class="st12" cx="101.86" cy="987.87" rx="4.86" ry="4.85"/>
	<ellipse class="st13" cx="115.43" cy="993.84" rx="4.86" ry="4.85"/>
	<ellipse class="st14" cx="127.06" cy="1022.04" rx="4.86" ry="4.85"/>
	<ellipse class="st15" cx="138.69" cy="998.03" rx="4.86" ry="4.85"/>
	<ellipse class="st16" cx="150.32" cy="1025.81" rx="4.86" ry="4.85"/>
	<ellipse class="st17" cx="161.95" cy="1034.73" rx="4.86" ry="4.85"/>
	<ellipse class="st18" cx="173.58" cy="1045.57" rx="4.86" ry="4.85"/>
	<ellipse class="st19" cx="185.21" cy="1062.18" rx="4.86" ry="4.85"/>
	<ellipse class="st20" cx="196.84" cy="1034.64" rx="4.86" ry="4.85"/>
	<ellipse class="st21" cx="208.47" cy="1058.05" rx="4.86" ry="4.85"/>
	<ellipse class="st22" cx="220.1" cy="1048.82" rx="4.86" ry="4.85"/>
	<ellipse class="st23" cx="231.73" cy="1092.08" rx="4.86" ry="4.85"/>
	<ellipse class="st24" cx="243.35" cy="1071.45" rx="4.86" ry="4.85"/>
	<ellipse class="st25" cx="254.98" cy="1074.21" rx="4.86" ry="4.85"/>
	<ellipse class="st26" cx="266.61" cy="1103.16" rx="4.86" ry="4.85"/>
	<ellipse class="st27" cx="278.24" cy="1100.66" rx="4.86" ry="4.85"/>
	<ellipse class="st28" cx="289.87" cy="1062.68" rx="4.86" ry="4.85"/>
	<ellipse class="st29" cx="301.5" cy="1093.03" rx="4.86" ry="4.85"/>
	<ellipse class="st30" cx="313.13" cy="1056.31" rx="4.86" ry="4.85"/>
	<ellipse class="st31" cx="324.76" cy="1055.71" rx="4.86" ry="4.85"/>
	<ellipse class="st32" cx="336.39" cy="1039" rx="4.86" ry="4.85"/>
	<ellipse class="st33" cx="348.02" cy="1037.67" rx="4.86" ry="4.85"/>
	<ellipse class="st34" cx="359.65" cy="1039.43" rx="4.86" ry="4.85"/>
	<ellipse class="st35" cx="371.28" cy="1024.25" rx="4.86" ry="4.85"/>
	<ellipse class="st36" cx="382.91" cy="1029.58" rx="4.86" ry="4.85"/>
	<ellipse class="st37" cx="394.54" cy="1034" rx="4.86" ry="4.85"/>
	<ellipse class="st38" cx="406.17" cy="1017.02" rx="4.86" ry="4.85"/>
	<ellipse class="st39" cx="417.8" cy="1027.23" rx="4.86" ry="4.85"/>
	<ellipse class="st40" cx="429.43" cy="1020.13" rx="4.86" ry="4.85"/>
	<ellipse class="st41" cx="441.06" cy="1032.94" rx="4.86" ry="4.85"/>
	<ellipse class="st42" cx="452.68" cy="1023.32" rx="4.86" ry="4.85"/>
	<ellipse class="st43" cx="464.31" cy="1114.93" rx="4.86" ry="4.85"/>
	<ellipse class="st44" cx="475.94" cy="1111.66" rx="4.86" ry="4.85"/>
	<ellipse class="st45" cx="487.57" cy="1094.82" rx="4.86" ry="4.85"/>
	<ellipse class="st46" cx="499.2" cy="1096.92" rx="4.86" ry="4.85"/>
	<ellipse class="st47" cx="510.83" cy="1113.18" rx="4.86" ry="4.85"/>
	<ellipse class="st48" cx="522.46" cy="1119.73" rx="4.86" ry="4.85"/>
	<ellipse class="st49" cx="534.09" cy="1129.37" rx="4.86" ry="4.85"/>
	<ellipse class="st50" cx="545.72" cy="1120.51" rx="4.86" ry="4.85"/>
	<ellipse class="st51" cx="557.35" cy="1115.73" rx="4.86" ry="4.85"/>
	<ellipse class="st52" cx="568.98" cy="1122.11" rx="4.86" ry="4.85"/>
	<ellipse class="st53" cx="580.61" cy="1110.72" rx="4.86" ry="4.85"/>
	<ellipse class="st54" cx="592.24" cy="1115.18" rx="4.86" ry="4.85"/>
	<ellipse class="st55" cx="603.87" cy="1100.82" rx="4.86" ry="4.85"/>
	<ellipse class="st56" cx="615.5" cy="1079.86" rx="4.86" ry="4.85"/>
	<ellipse class="st57" cx="627.13" cy="1069.03" rx="4.86" ry="4.85"/>
	<ellipse class="st58" cx="638.76" cy="1076.26" rx="4.86" ry="4.85"/>
	<ellipse class="st59" cx="650.39" cy="1082.07" rx="4.86" ry="4.85"/>
	<ellipse class="st60" cx="662.01" cy="1068.14" rx="4.86" ry="4.85"/>
	<ellipse class="st61" cx="673.64" cy="1078.87" rx="4.86" ry="4.85"/>
	<ellipse class="st62" cx="685.27" cy="1066.08" rx="4.86" ry="4.85"/>
	<ellipse class="st63" cx="696.9" cy="1056.39" rx="4.86" ry="4.85"/>
	<ellipse class="st64" cx="708.53" cy="1060.17" rx="4.86" ry="4.85"/>
	<ellipse class="st65" cx="720.16" cy="1059.64" rx="4.86" ry="4.85"/>
	<ellipse class="st66" cx="731.79" cy="1075.72" rx="4.86" ry="4.85"/>
	<ellipse class="st67" cx="743.42" cy="1057.06" rx="4.86" ry="4.85"/>
	<ellipse class="st68" cx="755.05" cy="1075.35" rx="4.86" ry="4.85"/>
	<ellipse class="st69" cx="766.68" cy="1046.19" rx="4.86" ry="4.85"/>
	<ellipse class="st70" cx="778.31" cy="1001.34" rx="4.86" ry="4.85"/>
	<ellipse class="st71" cx="789.94" cy="1073.21" rx="4.86" ry="4.85"/>
	<ellipse class="st72" cx="801.57" cy="995.53" rx="4.86" ry="4.85"/>
	<ellipse class="st73" cx="813.2" cy="985.78" rx="4.86" ry="4.85"/>
	<ellipse class="st74" cx="824.83" cy="987.2" rx="4.86" ry="4.85"/>
	<ellipse class="st75" cx="836.46" cy="991.52" rx="4.86" ry="4.85"/>
	<ellipse class="st12" cx="848.09" cy="987.87" rx="4.86" ry="4.85"/>
</g>
<text transform="matrix(0 -1 1 0 52.5195 1107.4877)" class="st7 st8 st9">Bias (</text>
<text transform="matrix(0 -0.583 0.583 0 44.1943 1043.5839)" class="st7 st8 st9">o</text>
<text transform="matrix(0 -1 1 0 52.5195 1035.4779)" class="st7 st8 st9">)</text>
<rect x="548.42" y="68.19" class="st78" width="48.37" height="249.44"/>
<rect x="131.64" y="68.19" class="st79" width="19.86" height="249.44"/>
<g id="y_axis_00000173133774514600137680000005713293414907464849_">
	<g class="st3">
		<g>
			<line class="st4" x1="101.57" y1="192.91" x2="104.57" y2="192.91"/>
			<line class="st5" x1="107.57" y1="192.91" x2="843.41" y2="192.91"/>
			<line class="st4" x1="844.91" y1="192.91" x2="847.91" y2="192.91"/>
		</g>
	</g>
	<line class="st6" x1="101.57" y1="316.46" x2="101.57" y2="69.35"/>
	<line class="st6" x1="101.57" y1="316.46" x2="91.2" y2="316.46"/>
	<line class="st6" x1="101.57" y1="254.69" x2="91.2" y2="254.69"/>
	<line class="st6" x1="101.57" y1="192.91" x2="91.2" y2="192.91"/>
	<line class="st6" x1="101.57" y1="131.13" x2="91.2" y2="131.13"/>
	<line class="st6" x1="101.57" y1="69.35" x2="91.2" y2="69.35"/>
	<text transform="matrix(1 0 0 1 60.7059 77.9674)" class="st7 st8 st9">50</text>
	<text transform="matrix(1 0 0 1 60.7059 137.3453)" class="st7 st8 st9">25</text>
	<text transform="matrix(1 0 0 1 71.6278 199.3722)" class="st7 st8 st9">0</text>
	<text transform="matrix(1 0 0 1 60.7059 263.4318)" class="st7 st8 st9">25</text>
	<text transform="matrix(1 0 0 1 54.1649 323.0265)" class="st7 st8 st9">-50</text>
</g>
<polygon class="st10" points="219.14,254.15 207.5,245.47 195.85,235.48 184.2,226.24 172.56,214.86 160.91,201.84 149.27,190.79 
	137.62,179.09 125.97,170.12 114.33,161.21 102.68,153.75 102.68,171.25 114.33,178.38 125.97,187.87 137.62,198.22 149.27,209.69 
	160.91,223.11 172.56,237.27 184.2,249.51 195.85,257.97 207.5,269.26 219.14,279.29 230.79,289.55 242.44,298.13 254.08,301.8 
	265.73,290 277.37,274.17 289.02,252.77 300.67,228.87 312.31,210.82 323.96,203.68 335.6,197.14 347.25,194.43 358.9,192.02 
	370.54,185.05 382.19,178.68 393.83,177.16 405.48,174.46 417.13,177.11 428.77,181.9 440.42,182.41 452.07,178.52 463.71,176.96 
	475.36,174.47 487,173.56 498.65,177.07 510.3,183.39 521.94,186.73 533.59,190.82 545.23,198.44 556.88,203.12 568.53,205.99 
	580.17,209.64 591.82,211.22 603.47,209.96 615.11,209.77 626.76,208.35 638.4,208.54 650.05,206.01 661.7,201.09 673.34,198.17 
	684.99,195.2 696.63,191.57 708.28,186.34 719.93,186.12 731.57,174.64 743.22,163.52 754.86,151.36 766.51,143.43 778.16,130.05 
	789.8,133.82 801.45,139.2 813.1,146.14 824.74,154.79 836.39,166.13 848.03,171.25 848.03,153.75 836.39,147.37 824.74,135.26 
	813.1,124.62 801.45,114.74 789.8,105.76 778.16,98.8 766.51,111.35 754.86,119.16 743.22,133.6 731.57,147.75 719.93,163.01 
	708.28,165.99 696.63,174.1 684.99,179.75 673.34,185.11 661.7,189.14 650.05,194.36 638.4,197.75 626.76,197.56 615.11,197.25 
	603.47,195.67 591.82,194.68 580.17,191.58 568.53,186.57 556.88,181.77 545.23,176.72 533.59,168.01 521.94,164.15 510.3,160.01 
	498.65,156.32 487,154.08 475.36,157.1 463.71,159.65 452.07,160.98 440.42,162.44 428.77,159.32 417.13,153.41 405.48,148.13 
	393.83,151.05 382.19,154.03 370.54,161.48 358.9,170.83 347.25,176.96 335.6,180.82 323.96,186.9 312.31,194.56 300.67,206.06 
	289.02,226.26 277.37,243.47 265.73,257.08 254.08,268.11 242.44,268.54 230.79,261.59 "/>
<polyline class="st11" points="102.68,162.5 114.33,169.8 125.97,179 137.62,188.65 149.27,200.24 160.91,212.48 172.56,226.07 
	184.2,237.87 195.85,246.73 207.5,257.36 219.14,266.72 230.79,275.57 242.44,283.34 254.08,284.95 265.73,273.54 277.37,258.82 
	289.02,239.51 300.67,217.46 312.31,202.69 323.96,195.29 335.6,188.98 347.25,185.69 358.9,181.42 370.54,173.26 382.19,166.35 
	393.83,164.1 405.48,161.3 417.13,165.26 428.77,170.61 440.42,172.43 452.07,169.75 463.71,168.31 475.36,165.79 487,163.82 
	498.65,166.69 510.3,171.7 521.94,175.44 533.59,179.41 545.23,187.58 556.88,192.44 568.53,196.28 580.17,200.61 591.82,202.95 
	603.47,202.81 615.11,203.51 626.76,202.96 638.4,203.14 650.05,200.19 661.7,195.11 673.34,191.64 684.99,187.48 696.63,182.84 
	708.28,176.17 719.93,174.56 731.57,161.19 743.22,148.56 754.86,135.26 766.51,127.39 778.16,114.43 789.8,119.79 801.45,126.97 
	813.1,135.38 824.74,145.03 836.39,156.75 848.03,162.5 "/>
<g>
	<ellipse class="st12" cx="102.68" cy="166.45" rx="4.87" ry="4.86"/>
	<ellipse class="st13" cx="114.33" cy="169.9" rx="4.87" ry="4.86"/>
	<ellipse class="st14" cx="125.97" cy="175" rx="4.87" ry="4.86"/>
	<ellipse class="st15" cx="137.62" cy="182.98" rx="4.87" ry="4.86"/>
	<ellipse class="st16" cx="149.27" cy="200.65" rx="4.87" ry="4.86"/>
	<ellipse class="st17" cx="160.91" cy="214.74" rx="4.87" ry="4.86"/>
	<ellipse class="st18" cx="172.56" cy="227.84" rx="4.87" ry="4.86"/>
	<ellipse class="st19" cx="184.2" cy="236.18" rx="4.87" ry="4.86"/>
	<ellipse class="st20" cx="195.85" cy="250.93" rx="4.87" ry="4.86"/>
	<ellipse class="st21" cx="207.5" cy="259.69" rx="4.87" ry="4.86"/>
	<ellipse class="st22" cx="219.14" cy="258.99" rx="4.87" ry="4.86"/>
	<ellipse class="st23" cx="230.79" cy="281.04" rx="4.87" ry="4.86"/>
	<ellipse class="st24" cx="242.44" cy="282.94" rx="4.87" ry="4.86"/>
	<ellipse class="st25" cx="254.08" cy="295.2" rx="4.87" ry="4.86"/>
	<ellipse class="st26" cx="265.73" cy="298.52" rx="4.87" ry="4.86"/>
	<ellipse class="st27" cx="277.37" cy="267.07" rx="4.87" ry="4.86"/>
	<ellipse class="st28" cx="289.02" cy="223.96" rx="4.87" ry="4.86"/>
	<ellipse class="st29" cx="300.67" cy="209.36" rx="4.87" ry="4.86"/>
	<ellipse class="st30" cx="312.31" cy="198.66" rx="4.87" ry="4.86"/>
	<ellipse class="st31" cx="323.96" cy="188.27" rx="4.87" ry="4.86"/>
	<ellipse class="st32" cx="335.6" cy="193.21" rx="4.87" ry="4.86"/>
	<ellipse class="st33" cx="347.25" cy="186.94" rx="4.87" ry="4.86"/>
	<ellipse class="st34" cx="358.9" cy="177.82" rx="4.87" ry="4.86"/>
	<ellipse class="st35" cx="370.54" cy="182.22" rx="4.87" ry="4.86"/>
	<ellipse class="st36" cx="382.19" cy="166.92" rx="4.87" ry="4.86"/>
	<ellipse class="st37" cx="393.83" cy="152.41" rx="4.87" ry="4.86"/>
	<ellipse class="st38" cx="405.48" cy="152.39" rx="4.87" ry="4.86"/>
	<ellipse class="st39" cx="417.13" cy="166.56" rx="4.87" ry="4.86"/>
	<ellipse class="st40" cx="428.77" cy="168.19" rx="4.87" ry="4.86"/>
	<ellipse class="st41" cx="440.42" cy="186.74" rx="4.87" ry="4.86"/>
	<ellipse class="st42" cx="452.07" cy="179.17" rx="4.87" ry="4.86"/>
	<ellipse class="st43" cx="463.71" cy="161.48" rx="4.87" ry="4.86"/>
	<ellipse class="st44" cx="475.36" cy="153.17" rx="4.87" ry="4.86"/>
	<ellipse class="st45" cx="487" cy="161" rx="4.87" ry="4.86"/>
	<ellipse class="st46" cx="498.65" cy="174.14" rx="4.87" ry="4.86"/>
	<ellipse class="st47" cx="510.3" cy="169.34" rx="4.87" ry="4.86"/>
	<ellipse class="st48" cx="521.94" cy="175.82" rx="4.87" ry="4.86"/>
	<ellipse class="st49" cx="533.59" cy="178.2" rx="4.87" ry="4.86"/>
	<ellipse class="st50" cx="545.23" cy="179.71" rx="4.87" ry="4.86"/>
	<ellipse class="st51" cx="556.88" cy="194" rx="4.87" ry="4.86"/>
	<ellipse class="st52" cx="568.53" cy="210.17" rx="4.87" ry="4.86"/>
	<ellipse class="st53" cx="580.17" cy="200.14" rx="4.87" ry="4.86"/>
	<ellipse class="st54" cx="591.82" cy="197.39" rx="4.87" ry="4.86"/>
	<ellipse class="st55" cx="603.47" cy="201.37" rx="4.87" ry="4.86"/>
	<ellipse class="st56" cx="615.11" cy="205.7" rx="4.87" ry="4.86"/>
	<ellipse class="st57" cx="626.76" cy="209.48" rx="4.87" ry="4.86"/>
	<ellipse class="st58" cx="638.4" cy="203.62" rx="4.87" ry="4.86"/>
	<ellipse class="st59" cx="650.05" cy="194.61" rx="4.87" ry="4.86"/>
	<ellipse class="st60" cx="661.7" cy="202.3" rx="4.87" ry="4.86"/>
	<ellipse class="st61" cx="673.34" cy="190.91" rx="4.87" ry="4.86"/>
	<ellipse class="st62" cx="684.99" cy="184.13" rx="4.87" ry="4.86"/>
	<ellipse class="st63" cx="696.63" cy="186.25" rx="4.87" ry="4.86"/>
	<ellipse class="st64" cx="708.28" cy="173.79" rx="4.87" ry="4.86"/>
	<ellipse class="st65" cx="719.93" cy="179.1" rx="4.87" ry="4.86"/>
	<ellipse class="st66" cx="731.57" cy="157.57" rx="4.87" ry="4.86"/>
	<ellipse class="st67" cx="743.22" cy="176.11" rx="4.87" ry="4.86"/>
	<ellipse class="st68" cx="754.86" cy="119.42" rx="4.87" ry="4.86"/>
	<ellipse class="st69" cx="766.51" cy="110.62" rx="4.87" ry="4.86"/>
	<ellipse class="st70" cx="778.16" cy="112.61" rx="4.87" ry="4.86"/>
	<ellipse class="st71" cx="789.8" cy="118.22" rx="4.87" ry="4.86"/>
	<ellipse class="st72" cx="801.45" cy="111.27" rx="4.87" ry="4.86"/>
	<ellipse class="st73" cx="813.1" cy="146.25" rx="4.87" ry="4.86"/>
	<ellipse class="st74" cx="824.74" cy="146.51" rx="4.87" ry="4.86"/>
	<ellipse class="st75" cx="836.39" cy="154.65" rx="4.87" ry="4.86"/>
	<ellipse class="st12" cx="848.03" cy="166.45" rx="4.87" ry="4.86"/>
</g>
<line id="x_axis_00000018199102577676021380000013916301266428563100_" class="st6" x1="101.57" y1="316.46" x2="847.91" y2="316.46"/>
<text transform="matrix(0 -1 1 0 52.4706 232.8678)" class="st7 st8 st9">Bias (</text>
<text transform="matrix(0 -0.583 0.583 0 44.1454 168.964)" class="st7 st8 st9">o</text>
<text transform="matrix(0 -1 1 0 52.4706 160.858)" class="st7 st8 st9">)</text>
<polyline class="st80" points="556.42,608.92 556.42,361.8 511.06,361.8 511.06,608.92 "/>
<polyline class="st81" points="692.75,608.92 692.75,361.8 663.76,361.8 663.76,608.92 "/>
<polyline class="st82" points="147.92,608.92 147.92,361.8 125.81,361.8 125.81,608.92 "/>
<polyline class="st83" points="358.16,608.92 358.16,361.8 207.89,361.8 207.89,608.92 "/>
<g id="y_axis_00000179622162086804341760000016874709039246538680_">
	<g class="st3">
		<g>
			<line class="st4" x1="101.62" y1="485.36" x2="104.62" y2="485.36"/>
			<line class="st5" x1="107.61" y1="485.36" x2="843.46" y2="485.36"/>
			<line class="st4" x1="844.96" y1="485.36" x2="847.96" y2="485.36"/>
		</g>
	</g>
	<line class="st6" x1="101.62" y1="608.92" x2="101.62" y2="361.8"/>
	<line class="st6" x1="101.62" y1="608.92" x2="91.25" y2="608.92"/>
	<line class="st6" x1="101.62" y1="547.14" x2="91.25" y2="547.14"/>
	<line class="st6" x1="101.62" y1="485.36" x2="91.25" y2="485.36"/>
	<line class="st6" x1="101.62" y1="423.58" x2="91.25" y2="423.58"/>
	<line class="st6" x1="101.62" y1="361.8" x2="91.25" y2="361.8"/>
	<text transform="matrix(1 0 0 1 60.7544 370.4194)" class="st7 st8 st9">50</text>
	<text transform="matrix(1 0 0 1 60.7544 429.7973)" class="st7 st8 st9">25</text>
	<text transform="matrix(1 0 0 1 71.6763 491.8237)" class="st7 st8 st9">0</text>
	<text transform="matrix(1 0 0 1 60.7544 555.8837)" class="st7 st8 st9">25</text>
	<text transform="matrix(1 0 0 1 54.2134 615.4789)" class="st7 st8 st9">-50</text>
</g>
<polygon id="CI" class="st10" points="206.13,485.93 194.46,489.35 182.79,494.44 171.12,490.44 159.45,488.81 147.77,485.32 
	136.1,478.32 124.43,467.44 112.76,461.55 101.09,451.77 101.09,472.1 112.76,480.09 124.43,483.99 136.1,495.53 147.77,502.1 
	159.45,506.72 171.12,510.55 182.79,516.8 194.46,510.98 206.13,507.86 217.8,502.5 229.47,496.35 241.15,491.82 252.82,490.54 
	264.49,488.66 276.16,490.04 287.83,490.46 299.5,490.24 311.18,491.07 322.85,492.45 334.52,491.97 346.19,492.7 357.86,485.6 
	369.53,476.46 381.2,469.19 392.88,463.17 404.55,457.8 416.22,460.43 427.89,466.39 439.56,468.31 451.23,468.03 462.91,471.78 
	474.58,473.63 486.25,477.73 497.92,483.9 509.59,495.46 521.26,499.63 532.93,504.01 544.61,505.89 556.28,507.51 567.95,503.9 
	579.62,501.6 591.29,500.21 602.96,495.28 614.63,490.8 626.31,486.86 637.98,484.49 649.65,484.55 661.32,488.41 672.99,492.69 
	684.66,500.28 696.34,508.91 708.01,513.89 719.68,521.51 731.35,528.08 743.02,529.15 754.69,524.46 766.36,517.02 778.04,499.64 
	789.71,480.21 801.38,467.42 813.05,459.89 824.72,456.31 836.39,462.79 848.07,472.1 848.07,451.77 836.39,442.34 824.72,434.98 
	813.05,436 801.38,441.27 789.71,454.11 778.04,472.6 766.36,491.48 754.69,500.87 743.02,509.77 731.35,511.07 719.68,506.61 
	708.01,499.82 696.34,495.68 684.66,487.76 672.99,479.94 661.32,475.66 649.65,470.98 637.98,471.18 626.31,472.36 614.63,475.57 
	602.96,478.97 591.29,483.8 579.62,485.27 567.95,486.16 556.28,488.05 544.61,485.33 532.93,482.26 521.26,476.5 509.59,471.8 
	497.92,461.65 486.25,454.03 474.58,449.84 462.91,447.28 451.23,444 439.56,443.16 427.89,441.56 416.22,434.41 404.55,428.55 
	392.88,434.61 381.2,441.73 369.53,451.36 357.86,464.69 346.19,478.4 334.52,480.76 322.85,483.05 311.18,483.51 299.5,482.63 
	287.83,481.87 276.16,479.7 264.49,476.72 252.82,476.78 241.15,476.49 229.47,478.24 217.8,482.15 "/>
<polyline class="st11" points="101.09,461.93 112.76,470.82 124.43,475.71 136.1,486.93 147.77,493.71 159.45,497.77 171.12,500.5 
	182.79,505.62 194.46,500.16 206.13,496.9 217.8,492.32 229.47,487.29 241.15,484.15 252.82,483.66 264.49,482.69 276.16,484.87 
	287.83,486.17 299.5,486.43 311.18,487.29 322.85,487.75 334.52,486.37 346.19,485.55 357.86,475.14 369.53,463.91 381.2,455.46 
	392.88,448.89 404.55,443.18 416.22,447.42 427.89,453.97 439.56,455.73 451.23,456.01 462.91,459.53 474.58,461.74 486.25,465.88 
	497.92,472.77 509.59,483.63 521.26,488.06 532.93,493.14 544.61,495.61 556.28,497.78 567.95,495.03 579.62,493.44 591.29,492 
	602.96,487.12 614.63,483.18 626.31,479.61 637.98,477.83 649.65,477.77 661.32,482.03 672.99,486.31 684.66,494.02 696.34,502.29 
	708.01,506.86 719.68,514.06 731.35,519.58 743.02,519.46 754.69,512.67 766.36,504.25 778.04,486.12 789.71,467.16 801.38,454.35 
	813.05,447.94 824.72,445.65 836.39,452.56 848.07,461.93 "/>
<g>
	<path class="st12" d="M96.2,455.68c0,2.68,2.19,4.86,4.89,4.86c2.7,0,4.89-2.17,4.89-4.86c0-2.68-2.19-4.86-4.89-4.86
		C98.39,450.82,96.2,453,96.2,455.68"/>
	<ellipse class="st13" cx="112.76" cy="472.83" rx="4.89" ry="4.86"/>
	<ellipse class="st14" cx="124.43" cy="481.04" rx="4.89" ry="4.86"/>
	<ellipse class="st15" cx="136.1" cy="491.97" rx="4.89" ry="4.86"/>
	<ellipse class="st16" cx="147.77" cy="477.06" rx="4.89" ry="4.86"/>
	<ellipse class="st17" cx="159.45" cy="511.73" rx="4.89" ry="4.86"/>
	<ellipse class="st18" cx="171.12" cy="506.73" rx="4.89" ry="4.86"/>
	<ellipse class="st19" cx="182.79" cy="501.35" rx="4.89" ry="4.86"/>
	<ellipse class="st20" cx="194.46" cy="505.62" rx="4.89" ry="4.86"/>
	<ellipse class="st21" cx="206.13" cy="502.66" rx="4.89" ry="4.86"/>
	<ellipse class="st22" cx="217.8" cy="484.45" rx="4.89" ry="4.86"/>
	<ellipse class="st23" cx="229.47" cy="490.4" rx="4.89" ry="4.86"/>
	<ellipse class="st24" cx="241.15" cy="478.49" rx="4.89" ry="4.86"/>
	<ellipse class="st25" cx="252.82" cy="480.47" rx="4.89" ry="4.86"/>
	<ellipse class="st26" cx="264.49" cy="486.97" rx="4.89" ry="4.86"/>
	<ellipse class="st27" cx="276.16" cy="481.98" rx="4.89" ry="4.86"/>
	<ellipse class="st28" cx="287.83" cy="485.55" rx="4.89" ry="4.86"/>
	<ellipse class="st29" cx="299.5" cy="489.37" rx="4.89" ry="4.86"/>
	<ellipse class="st30" cx="311.18" cy="486.97" rx="4.89" ry="4.86"/>
	<ellipse class="st31" cx="322.85" cy="488.28" rx="4.89" ry="4.86"/>
	<ellipse class="st32" cx="334.52" cy="486.27" rx="4.89" ry="4.86"/>
	<ellipse class="st33" cx="346.19" cy="487.87" rx="4.89" ry="4.86"/>
	<ellipse class="st34" cx="357.86" cy="482.44" rx="4.89" ry="4.86"/>
	<ellipse class="st35" cx="369.53" cy="482.89" rx="4.89" ry="4.86"/>
	<ellipse class="st36" cx="381.2" cy="436.25" rx="4.89" ry="4.86"/>
	<ellipse class="st37" cx="392.88" cy="430.11" rx="4.89" ry="4.86"/>
	<ellipse class="st38" cx="404.55" cy="445.62" rx="4.89" ry="4.86"/>
	<ellipse class="st39" cx="416.22" cy="449.57" rx="4.89" ry="4.86"/>
	<ellipse class="st40" cx="427.89" cy="454.34" rx="4.89" ry="4.86"/>
	<ellipse class="st41" cx="439.56" cy="457.46" rx="4.89" ry="4.86"/>
	<ellipse class="st42" cx="451.23" cy="462.87" rx="4.89" ry="4.86"/>
	<ellipse class="st43" cx="462.91" cy="454.42" rx="4.89" ry="4.86"/>
	<ellipse class="st44" cx="474.58" cy="450.97" rx="4.89" ry="4.86"/>
	<ellipse class="st45" cx="486.25" cy="471.9" rx="4.89" ry="4.86"/>
	<ellipse class="st46" cx="497.92" cy="468.53" rx="4.89" ry="4.86"/>
	<ellipse class="st47" cx="509.59" cy="483.58" rx="4.89" ry="4.86"/>
	<ellipse class="st48" cx="521.26" cy="488.89" rx="4.89" ry="4.86"/>
	<ellipse class="st49" cx="532.93" cy="505.23" rx="4.89" ry="4.86"/>
	<ellipse class="st50" cx="544.61" cy="494.08" rx="4.89" ry="4.86"/>
	<ellipse class="st51" cx="556.28" cy="493.9" rx="4.89" ry="4.86"/>
	<ellipse class="st52" cx="567.95" cy="495.94" rx="4.89" ry="4.86"/>
	<ellipse class="st53" cx="579.62" cy="499.74" rx="4.89" ry="4.86"/>
	<ellipse class="st54" cx="591.29" cy="491.49" rx="4.89" ry="4.86"/>
	<ellipse class="st55" cx="602.96" cy="486.11" rx="4.89" ry="4.86"/>
	<ellipse class="st56" cx="614.63" cy="486.73" rx="4.89" ry="4.86"/>
	<ellipse class="st57" cx="626.31" cy="471.55" rx="4.89" ry="4.86"/>
	<ellipse class="st58" cx="637.98" cy="480.04" rx="4.89" ry="4.86"/>
	<ellipse class="st59" cx="649.65" cy="473.62" rx="4.89" ry="4.86"/>
	<ellipse class="st60" cx="661.32" cy="477.23" rx="4.89" ry="4.86"/>
	<ellipse class="st61" cx="672.99" cy="486.41" rx="4.89" ry="4.86"/>
	<ellipse class="st62" cx="684.66" cy="492.87" rx="4.89" ry="4.86"/>
	<ellipse class="st63" cx="696.34" cy="501.44" rx="4.89" ry="4.86"/>
	<ellipse class="st64" cx="708.01" cy="512.16" rx="4.89" ry="4.86"/>
	<ellipse class="st65" cx="719.68" cy="518.58" rx="4.89" ry="4.86"/>
	<ellipse class="st66" cx="731.35" cy="509.23" rx="4.89" ry="4.86"/>
	<ellipse class="st67" cx="743.02" cy="528.89" rx="4.89" ry="4.86"/>
	<ellipse class="st68" cx="754.69" cy="529.02" rx="4.89" ry="4.86"/>
	<ellipse class="st69" cx="766.36" cy="511.59" rx="4.89" ry="4.86"/>
	<ellipse class="st70" cx="778.04" cy="484.6" rx="4.89" ry="4.86"/>
	<ellipse class="st71" cx="789.71" cy="467.16" rx="4.89" ry="4.86"/>
	<ellipse class="st72" cx="801.38" cy="438.25" rx="4.89" ry="4.86"/>
	<ellipse class="st73" cx="813.05" cy="434.2" rx="4.89" ry="4.86"/>
	<ellipse class="st74" cx="824.72" cy="447.52" rx="4.89" ry="4.86"/>
	<ellipse class="st75" cx="836.39" cy="452.59" rx="4.89" ry="4.86"/>
	<ellipse class="st12" cx="848.07" cy="455.68" rx="4.89" ry="4.86"/>
</g>
<text transform="matrix(0 -1 1 0 52.519 523.3085)" class="st7 st8 st9">Bias (</text>
<text transform="matrix(0 -0.583 0.583 0 44.1938 459.4047)" class="st7 st8 st9">o</text>
<text transform="matrix(0 -1 1 0 52.519 451.2988)" class="st7 st8 st9">)</text>
<line id="x_axis_00000068676248973322886930000015084468375504727482_" class="st6" x1="101.62" y1="608.92" x2="847.95" y2="608.92"/>
<g>
	<text transform="matrix(1 0 0 1 76.5531 1238.3164)" class="st7 st8 st9">-180</text>
	<text transform="matrix(1 0 0 1 827.0551 1238.6064)" class="st7 st8 st9">180</text>
	<text transform="matrix(1 0 0 1 270.0921 1239.4785)" class="st7 st8 st9">-90</text>
	<text transform="matrix(1 0 0 1 467.7904 1239.1875)" class="st7 st8 st9">0</text>
	<text transform="matrix(1 0 0 1 645.4789 1238.8975)" class="st7 st8 st9">90</text>
	<line class="st6" x1="101.57" y1="1193.54" x2="101.57" y2="1215.22"/>
	<line class="st6" x1="288.16" y1="1193.54" x2="288.16" y2="1215.22"/>
	<line class="st6" x1="474.74" y1="1193.54" x2="474.74" y2="1215.22"/>
	<line class="st6" x1="661.33" y1="1193.54" x2="661.33" y2="1215.22"/>
	<line class="st6" x1="847.91" y1="1193.54" x2="847.91" y2="1215.22"/>
	<line id="x" class="st6" x1="101.57" y1="1193.76" x2="847.91" y2="1193.76"/>
	<text transform="matrix(1 0 0 1 401.9017 1263.6328)" class="st7 st8 st9">Hue angle (</text>
	<text transform="matrix(0.583 0 0 0.583 531.1498 1255.3076)" class="st7 st8 st9">o</text>
	<text transform="matrix(1 0 0 1 539.2552 1263.6328)" class="st7 st8 st9">)</text>
</g>
<text transform="matrix(0.9989 0 0 1 12.7357 53.354)" class="st7 st8 st84">M1</text>
<text transform="matrix(0.9989 0 0 1 12.7357 348.8174)" class="st7 st8 st84">M2</text>
<text transform="matrix(0.9989 0 0 1 12.7357 644.2803)" class="st7 st8 st84">M3</text>
<text transform="matrix(0.9989 0 0 1 12.7367 939.7432)" class="st7 st8 st84">M4</text>
<g>
	<polygon class="st85" points="177.19,34.76 171.19,56.41 165.19,34.76 177.19,34.76 	"/>
</g>
<text transform="matrix(1 0 0 1 139.8148 27.7046)" class="st86 st8 st9">“blue”</text>
<g>
	<polygon class="st85" points="376.69,34.76 370.69,56.41 364.69,34.76 376.69,34.76 	"/>
</g>
<g>
	<polygon class="st85" points="544.91,34.76 538.91,56.41 532.91,34.76 544.91,34.76 	"/>
</g>
<g>
	<polygon class="st85" points="789.13,34.76 783.13,56.41 777.13,34.76 789.13,34.76 	"/>
</g>
<text transform="matrix(1 0 0 1 339.2523 27.7046)" class="st86 st8 st9">“pink”</text>
<text transform="matrix(1 0 0 1 491.0882 27.7041)" class="st86 st8 st9">“orange”</text>
<text transform="matrix(1 0 0 1 742.9769 27.7046)" class="st86 st8 st9">“green”</text>
</svg>
