<?xml version="1.0" encoding="utf-8"?>
<!-- Generator: Adobe Illustrator 25.4.1, SVG Export Plug-In . SVG Version: 6.00 Build 0)  -->
<svg version="1.1" id="Layer_1" xmlns="http://www.w3.org/2000/svg" xmlns:xlink="http://www.w3.org/1999/xlink" x="0px" y="0px"
	 viewBox="0 0 2171 1978.4" style="enable-background:new 0 0 2171 1978.4;" xml:space="preserve">
<style type="text/css">
	.st0{display:none;}
	.st1{display:inline;}
	.st2{fill:#E6E6E6;}
	.st3{fill:none;stroke:#000000;stroke-width:6;stroke-miterlimit:10;}
	.st4{fill:#E8ACB5;}
	.st5{fill:#E6ABC9;}
	.st6{display:inline;fill:#E6ABC9;}
	.st7{display:inline;fill:#A3C493;}
	.st8{display:inline;fill:#7EC7D0;}
	.st9{display:inline;fill:#BDB7E7;}
	.st10{font-family:'ArialMT';}
	.st11{font-size:33.993px;}
	.st12{fill:none;stroke:#000000;stroke-width:4;stroke-miterlimit:10;}
	.st13{fill:none;stroke:#999999;stroke-width:4;stroke-miterlimit:10;}
	.st14{fill:none;stroke:#999999;stroke-width:4;stroke-miterlimit:10;stroke-dasharray:25.6327,25.6327;}
	.st15{fill:none;stroke:#999999;stroke-width:4;stroke-miterlimit:10;stroke-dasharray:25.1618,25.1618;}
	.st16{font-size:47.5992px;}
	.st17{fill:none;stroke:#000000;stroke-width:7;stroke-miterlimit:10;}
	.st18{fill:url(#SVGID_1_);stroke:#000000;stroke-width:4;stroke-miterlimit:10;}
	.st19{fill:url(#SVGID_00000121242761591373307420000002963688230834206597_);stroke:#000000;stroke-width:4;stroke-miterlimit:10;}
	.st20{fill:url(#SVGID_00000140734647386241297390000006840970609547188900_);stroke:#000000;stroke-width:4;stroke-miterlimit:10;}
	.st21{fill:url(#SVGID_00000174564679084932728450000009861264231551072948_);stroke:#000000;stroke-width:4;stroke-miterlimit:10;}
	.st22{fill:#FFFFFF;stroke:#000000;stroke-width:2;stroke-miterlimit:10;}
	.st23{stroke:#000000;stroke-width:2;stroke-miterlimit:10;}
	.st24{fill:#A67C52;}
	.st25{fill:none;stroke:#666666;stroke-width:3;stroke-miterlimit:10;stroke-dasharray:3,6;}
	.st26{fill:url(#SVGID_00000165194963636732206370000000785781626733566888_);stroke:#000000;stroke-width:4;stroke-miterlimit:10;}
	.st27{fill:url(#SVGID_00000047046268408203517990000016730489176939394450_);stroke:#000000;stroke-width:4;stroke-miterlimit:10;}
	.st28{fill:url(#SVGID_00000157987675511664449700000000726546483870307720_);stroke:#000000;stroke-width:4;stroke-miterlimit:10;}
	.st29{fill:url(#SVGID_00000175286524824944649560000016391418796846881426_);stroke:#000000;stroke-width:4;stroke-miterlimit:10;}
	.st30{fill:#A3C493;}
	.st31{fill:#7EC7D0;}
	.st32{fill:#BDB7E7;}
	.st33{font-size:47.6px;}
	.st34{fill:url(#SVGID_00000016757631141527617570000004147836398711877783_);stroke:#000000;stroke-width:4;stroke-miterlimit:10;}
	.st35{fill:url(#SVGID_00000088823127992324351520000001272774762024371591_);stroke:#000000;stroke-width:4;stroke-miterlimit:10;}
	.st36{fill:url(#SVGID_00000096770218944165364180000015147095322892884131_);stroke:#000000;stroke-width:4;stroke-miterlimit:10;}
	.st37{fill:url(#SVGID_00000085219229087363654240000011616987749672210082_);stroke:#000000;stroke-width:4;stroke-miterlimit:10;}
	.st38{fill:url(#SVGID_00000181060322434855408910000011375578043494622114_);stroke:#000000;stroke-width:4;stroke-miterlimit:10;}
	.st39{fill:url(#SVGID_00000011725325206600170370000011740845459305902772_);stroke:#000000;stroke-width:4;stroke-miterlimit:10;}
	.st40{fill:url(#SVGID_00000094595171265979353340000008127866511114174861_);stroke:#000000;stroke-width:4;stroke-miterlimit:10;}
	.st41{fill:url(#SVGID_00000046336699808892811210000006026396776654456995_);stroke:#000000;stroke-width:4;stroke-miterlimit:10;}
	.st42{fill:url(#SVGID_00000034783365593393523150000005200643306440426664_);stroke:#000000;stroke-width:4;stroke-miterlimit:10;}
	.st43{fill:url(#SVGID_00000054258311082759655690000006319678541120293795_);stroke:#000000;stroke-width:4;stroke-miterlimit:10;}
	.st44{fill:url(#SVGID_00000157279650361649756190000013728569142595669927_);stroke:#000000;stroke-width:4;stroke-miterlimit:10;}
	.st45{fill:url(#SVGID_00000181066446623174040330000011722566121241542538_);stroke:#000000;stroke-width:4;stroke-miterlimit:10;}
	.st46{fill:none;stroke:#999999;stroke-width:4;stroke-miterlimit:10;stroke-dasharray:25.7336,25.7336;}
	.st47{fill:none;stroke:#FFFFFF;stroke-width:8;stroke-miterlimit:10;}
	.st48{fill:none;stroke:#000000;stroke-width:5;stroke-miterlimit:10;}
	.st49{fill:none;stroke:#FFFFFF;stroke-width:9;stroke-miterlimit:10;}
	.st50{font-family:'Arial-BoldMT';}
	.st51{font-size:45px;}
	.st52{fill:url(#SVGID_00000145035345165872601050000014464897437014547353_);stroke:#000000;stroke-width:4;stroke-miterlimit:10;}
	.st53{fill:url(#SVGID_00000120547787958166074740000007038662306645939119_);stroke:#000000;stroke-width:4;stroke-miterlimit:10;}
	
		.st54{display:inline;fill:url(#SVGID_00000110443510027419851480000016994257987725431728_);stroke:#000000;stroke-width:4;stroke-miterlimit:10;}
	
		.st55{display:inline;fill:url(#SVGID_00000018194938570771406880000016340173433484714888_);stroke:#000000;stroke-width:4;stroke-miterlimit:10;}
</style>
<g id="version1" class="st0">
	<g class="st1">
		<g>
			<path class="st2" d="M294.1,118.3H51.3c-0.7,0-1.2-0.6-1.2-1.2V-56.3c0-0.7,0.5-1.2,1.2-1.2H294c0.7,0,1.2,0.5,1.2,1.2v173.3
				C295.3,117.7,294.7,118.3,294.1,118.3z"/>
		</g>
		<g>
			<line class="st3" x1="170" y1="25.7" x2="182.9" y2="38.6"/>
			<line class="st3" x1="182.9" y1="25.7" x2="170" y2="38.6"/>
		</g>
	</g>
	<g class="st1">
		<g>
			<path class="st4" d="M-83.9,59.6c1.9,0,1.9-3,0-3S-85.8,59.6-83.9,59.6L-83.9,59.6z"/>
		</g>
	</g>
	<g class="st1">
		<g>
			<path class="st2" d="M822.6,118.3H579.9c-0.7,0-1.2-0.6-1.2-1.2V-56.3c0-0.7,0.5-1.2,1.2-1.2h242.7c0.7,0,1.2,0.5,1.2,1.2v173.3
				C823.8,117.7,823.3,118.3,822.6,118.3z"/>
		</g>
		<g>
			<line class="st3" x1="694.8" y1="25.7" x2="707.7" y2="38.6"/>
			<line class="st3" x1="707.7" y1="25.7" x2="694.8" y2="38.6"/>
		</g>
	</g>
	<g class="st1">
		<g>
			<path class="st4" d="M537.7,31.9c1.9,0,1.9-3,0-3S535.7,31.9,537.7,31.9L537.7,31.9z"/>
		</g>
	</g>
	<g class="st1">
		<g>
			<path class="st2" d="M314.5-57.5h244.5c0.2,0,0.3,0.1,0.3,0.3V118c0,0.2-0.1,0.3-0.3,0.3H314.5"/>
		</g>
		<g>
			<line class="st3" x1="430.4" y1="25.7" x2="443.3" y2="38.6"/>
			<line class="st3" x1="443.3" y1="25.7" x2="430.4" y2="38.6"/>
		</g>
		<path class="st5" d="M385.4,9.8c0-7.8,6.3-14.2,14.2-14.2S413.7,2,413.7,9.8S407.4,24,399.6,24C391.7,24,385.4,17.6,385.4,9.8"/>
	</g>
	<g class="st1">
		<path class="st2" d="M1087,120H844.3c-0.7,0-1.2-0.6-1.2-1.2V-54.5c0-0.7,0.5-1.2,1.2-1.2H1087c0.7,0,1.2,0.5,1.2,1.2v173.3
			C1088.2,119.5,1087.7,120,1087,120z"/>
	</g>
	<g class="st1">
		<line class="st3" x1="959.2" y1="27.4" x2="972.1" y2="40.3"/>
		<line class="st3" x1="972.1" y1="27.4" x2="959.2" y2="40.3"/>
	</g>
	<circle class="st6" cx="972.1" cy="86.4" r="14.2"/>
	
		<ellipse transform="matrix(0.3686 -0.9296 0.9296 0.3686 580.8306 988.3624)" class="st7" cx="1018" cy="66.6" rx="14.2" ry="14.2"/>
	<circle class="st8" cx="1023.7" cy="18" r="14.2"/>
	<circle class="st9" cx="993" cy="-16.8" r="14.2"/>
	<g class="st1">
		<path class="st2" d="M1107.5-55.8h244.1c0.3,0,0.6,0.2,0.6,0.6v174.7c0,0.3-0.2,0.6-0.6,0.6h-244.1"/>
	</g>
	<g class="st1">
		<path class="st3" d="M1236,27.4"/>
	</g>
	<circle class="st6" cx="1236" cy="86.4" r="14.2"/>
	<circle class="st7" cx="1281.9" cy="66.6" r="14.2"/>
	<circle class="st8" cx="1287.5" cy="18" r="14.2"/>
	<circle class="st9" cx="1256.9" cy="-16.8" r="14.2"/>
	<text transform="matrix(1 0 0 1 -116.8961 197.886)" class="st1 st10 st11">Fixation</text>
	<text transform="matrix(1 0 0 1 -60.2291 263.2131)" class="st1 st10 st11">Cue</text>
	<text transform="matrix(1 0 0 1 -120.6803 326.8176)" class="st1 st10 st11">Choices</text>
	<g class="st1">
		<line class="st12" x1="312.4" y1="258.1" x2="312.4" y2="220"/>
		<line class="st12" x1="47.9" y1="258.1" x2="312.4" y2="258.1"/>
		<line class="st12" x1="312.4" y1="220" x2="557.2" y2="220"/>
		<line class="st12" x1="557.2" y1="258.1" x2="557.2" y2="220"/>
		<line class="st12" x1="1349.9" y1="258.1" x2="557.2" y2="258.1"/>
	</g>
	<g class="st1">
		<line class="st12" x1="854.1" y1="327.9" x2="854.1" y2="289.8"/>
		<line class="st12" x1="47.9" y1="327.2" x2="854.1" y2="327.2"/>
		<line class="st12" x1="854.1" y1="289.1" x2="1352.1" y2="289.1"/>
		<line class="st12" x1="1352.1" y1="326.8" x2="1352.1" y2="289.1"/>
	</g>
	<g class="st1">
		<path class="st12" d="M47.9,197.9"/>
		<line class="st12" x1="47.9" y1="199.3" x2="47.9" y2="161.2"/>
		<line class="st12" x1="1105.3" y1="197.9" x2="1349.9" y2="197.9"/>
		<line class="st12" x1="1105.3" y1="199.3" x2="1105.3" y2="161.2"/>
		<line class="st12" x1="48.1" y1="161.2" x2="1105.3" y2="161.2"/>
	</g>
	<text transform="matrix(1 0 0 1 315.6655 -68.4324)" class="st1 st10 st11">750 ms</text>
	<text transform="matrix(1 0 0 1 50.2739 -68.4324)" class="st1 st10 st11">50 ms</text>
	<text transform="matrix(1 0 0 1 578.8803 -68.4324)" class="st1 st10 st11">600-900 ms</text>
	<text transform="matrix(1 0 0 1 843.0659 -68.0251)" class="st1 st10 st11">500-1000 ms</text>
	<text transform="matrix(1 0 0 1 1107.4877 -68.4324)" class="st1 st10 st11">&lt;5000 ms</text>
</g>
<g id="lines">
	<g>
		<g>
			<g>
				<line class="st13" x1="1268.9" y1="1939.8" x2="1269" y2="1927.3"/>
				<line class="st14" x1="1269.1" y1="1901.7" x2="1272.2" y2="991.7"/>
				<line class="st13" x1="1272.2" y1="978.9" x2="1272.3" y2="966.4"/>
			</g>
		</g>
		<g>
			<g>
				<line class="st13" x1="1631.8" y1="1939.8" x2="1631.8" y2="1927.3"/>
				<line class="st15" x1="1631.8" y1="1902.1" x2="1631.8" y2="103.1"/>
				<line class="st13" x1="1631.8" y1="90.5" x2="1631.8" y2="78"/>
			</g>
		</g>
		<g>
			<g>
				<line class="st13" x1="901.9" y1="1939.8" x2="901.9" y2="1927.3"/>
				<line class="st15" x1="901.9" y1="1902.1" x2="901.9" y2="103.1"/>
				<line class="st13" x1="901.9" y1="90.5" x2="901.9" y2="78"/>
			</g>
		</g>
		<g>
			<g>
				<line class="st13" x1="590.8" y1="1939.8" x2="590.8" y2="1927.3"/>
				<line class="st15" x1="590.8" y1="1902.1" x2="590.8" y2="103.1"/>
				<line class="st13" x1="590.8" y1="90.5" x2="590.8" y2="78"/>
			</g>
		</g>
	</g>
</g>
<g id="version_2">
	<text transform="matrix(1 0 0 1 362.5432 1729.4624)" class="st10 st16">Fixation</text>
	<text transform="matrix(1 0 0 1 441.8909 1836.2856)" class="st10 st16">Cue</text>
	<text transform="matrix(1 0 0 1 357.2439 1940.2944)" class="st10 st16">Choices</text>
	<g>
		<line class="st17" x1="589.3" y1="1834.9" x2="589.3" y2="1772.6"/>
		<line class="st17" x1="561.5" y1="1834.9" x2="589.3" y2="1834.9"/>
		<line class="st17" x1="589.3" y1="1772.6" x2="900.4" y2="1772.6"/>
		<line class="st17" x1="900.4" y1="1834.9" x2="900.4" y2="1772.6"/>
		<line class="st17" x1="2118.3" y1="1834.9" x2="900.4" y2="1834.9"/>
	</g>
	<g>
		<line class="st17" x1="1267.4" y1="1948" x2="1267.4" y2="1885.7"/>
		<line class="st17" x1="561.5" y1="1947.9" x2="1267.4" y2="1948"/>
		<line class="st17" x1="1267.4" y1="1885.7" x2="2118.3" y2="1885.5"/>
		<line class="st17" x1="2117" y1="1945.7" x2="2117" y2="1884.1"/>
	</g>
	<g>
		<path class="st17" d="M561.5,1736.4"/>
		<line class="st17" x1="561.5" y1="1738.7" x2="561.5" y2="1676.4"/>
		<line class="st17" x1="1630.1" y1="1741.4" x2="2118.3" y2="1736.4"/>
		<line class="st17" x1="1630.1" y1="1741.4" x2="1630.1" y2="1679.1"/>
		<line class="st17" x1="561.7" y1="1676.4" x2="1630.1" y2="1679.1"/>
	</g>
	<path class="st12" d="M2118.3,1724.8"/>
</g>
<g id="small">
	<text transform="matrix(1 0 0 1 362.5432 565.066)" class="st10 st16">Fixation</text>
	<text transform="matrix(1 0 0 1 441.8909 671.8902)" class="st10 st16">Cue</text>
	<text transform="matrix(1 0 0 1 357.2444 775.8985)" class="st10 st16">Choices</text>
	<g>
		<line class="st17" x1="591" y1="670.5" x2="591" y2="608.2"/>
		<line class="st17" x1="563.2" y1="670.5" x2="591" y2="670.5"/>
		<line class="st17" x1="591" y1="608.2" x2="902" y2="608.2"/>
		<line class="st17" x1="902" y1="670.5" x2="902" y2="608.2"/>
		<line class="st17" x1="2120" y1="670.5" x2="902" y2="670.5"/>
	</g>
	<g>
		<line class="st17" x1="1631.7" y1="783.6" x2="1631.4" y2="721.2"/>
		<line class="st17" x1="563.2" y1="783.5" x2="1631.7" y2="783.6"/>
		<line class="st17" x1="1629.5" y1="721.2" x2="2120" y2="721.1"/>
		<line class="st17" x1="2118.6" y1="781.3" x2="2118.6" y2="719.7"/>
	</g>
	<g>
		<path class="st17" d="M563.2,572"/>
		<line class="st17" x1="563.2" y1="574.3" x2="563.2" y2="512"/>
		<line class="st17" x1="1631.7" y1="577" x2="2120" y2="572"/>
		<line class="st17" x1="1631.7" y1="577" x2="1631.7" y2="514.7"/>
		<line class="st17" x1="563.3" y1="512" x2="1631.7" y2="514.7"/>
	</g>
	<path class="st12" d="M2120,560.4"/>
</g>
<g id="little_munkes">
	<g>
		<g>
			<g>
				<path class="st4" d="M344.3,1257.2c1.9,0,1.9-3,0-3S342.4,1257.2,344.3,1257.2L344.3,1257.2z"/>
			</g>
		</g>
		<g>
			<g>
				<g>
					<path class="st2" d="M570.9,1341.6H298.6c-0.7,0-1.2-0.6-1.2-1.2v-272.2c0-0.7,0.5-1.2,1.2-1.2h272.2c0.7,0,1.2,0.6,1.2,1.2
						v272.2C572.1,1341.1,571.6,1341.6,570.9,1341.6z"/>
				</g>
				<g>
					<line class="st3" x1="430.4" y1="1196.5" x2="451.5" y2="1217.7"/>
					<line class="st3" x1="451.5" y1="1196.5" x2="430.4" y2="1217.7"/>
				</g>
			</g>
			<text transform="matrix(1 0 0 1 297.4148 1042.6729)" class="st10 st16">50 ms</text>
		</g>
		<g>
			<g>
				
					<linearGradient id="SVGID_1_" gradientUnits="userSpaceOnUse" x1="4907.0742" y1="450.8114" x2="4938.0815" y2="419.8038" gradientTransform="matrix(-1 0 0 -1 5301.1719 1978)">
					<stop  offset="0" style="stop-color:#C69C6D"/>
					<stop  offset="0.2973" style="stop-color:#C6A075"/>
					<stop  offset="0.7567" style="stop-color:#C7AB8B"/>
					<stop  offset="1" style="stop-color:#C7B299"/>
				</linearGradient>
				<path class="st18" d="M370.4,1556.9c0,14.8,4.2,11.1,9.3,11.1s9.3-12,9.3-26.9s-4.2-26.9-9.3-26.9S370.4,1542.1,370.4,1556.9z"
					/>
				
					<linearGradient id="SVGID_00000164488907508838456020000015372778430046689688_" gradientUnits="userSpaceOnUse" x1="487.8116" y1="450.8107" x2="518.819" y2="419.8033" gradientTransform="matrix(1 0 0 -1 0 1978)">
					<stop  offset="0" style="stop-color:#C69C6D"/>
					<stop  offset="0.2973" style="stop-color:#C6A075"/>
					<stop  offset="0.7567" style="stop-color:#C7AB8B"/>
					<stop  offset="1" style="stop-color:#C7B299"/>
				</linearGradient>
				
					<path style="fill:url(#SVGID_00000164488907508838456020000015372778430046689688_);stroke:#000000;stroke-width:4;stroke-miterlimit:10;" d="
					M511.5,1556.9c0,14.8-4.2,11.1-9.3,11.1s-9.3-12-9.3-26.9s4.2-26.9,9.3-26.9C507.4,1514.3,511.5,1542.1,511.5,1556.9z"/>
			</g>
			
				<radialGradient id="SVGID_00000029745904558166913850000005883550293030249112_" cx="-561.3498" cy="449.0302" r="71.367" gradientTransform="matrix(0.5918 0 0 -0.6879 773.1668 1777.8929)" gradientUnits="userSpaceOnUse">
				<stop  offset="0" style="stop-color:#C7B299"/>
				<stop  offset="0.5304" style="stop-color:#C7B197"/>
				<stop  offset="0.7214" style="stop-color:#C7AE90"/>
				<stop  offset="0.8575" style="stop-color:#C7A885"/>
				<stop  offset="0.9668" style="stop-color:#C69F74"/>
				<stop  offset="1" style="stop-color:#C69C6D"/>
			</radialGradient>
			
				<path style="fill:url(#SVGID_00000029745904558166913850000005883550293030249112_);stroke:#000000;stroke-width:4;stroke-miterlimit:10;" d="
				M478.5,1461.2c0,34.1-16.8,61.8-37.6,61.8s-37.6-27.7-37.6-61.8s16.8-46.1,37.6-46.1S478.5,1427.1,478.5,1461.2z"/>
			
				<radialGradient id="SVGID_00000052092165826219090560000004286390181181772733_" cx="-412.3343" cy="355.9315" r="91.7429" gradientTransform="matrix(0.6183 0 0 -0.6879 695.6507 1777.8929)" gradientUnits="userSpaceOnUse">
				<stop  offset="0" style="stop-color:#A67C52"/>
				<stop  offset="0.2686" style="stop-color:#9F754B"/>
				<stop  offset="0.6604" style="stop-color:#8B6239"/>
				<stop  offset="1" style="stop-color:#754C24"/>
			</radialGradient>
			
				<path style="fill:url(#SVGID_00000052092165826219090560000004286390181181772733_);stroke:#000000;stroke-width:4;stroke-miterlimit:10;" d="
				M503,1526c0,49.9-27.8,72.8-62.1,72.8s-62.1-22.8-62.1-72.8c0-34.4,13.6-60.2,36.1-71.7c3.4-1.8,14.8-2.2,26-2.3
				c11-0.2,22.6-0.4,26,1.3C486.8,1462.9,503,1490.4,503,1526z"/>
			<g>
				<g>
					<path class="st22" d="M430,1468.5c0,4.4-5.2,0.1-11.6,0.1s-11.6,4.4-11.6-0.1c0-4.4,5.2-8,11.6-8S430,1464.1,430,1468.5z"/>
					<ellipse class="st23" cx="418.4" cy="1463" rx="3.4" ry="2.5"/>
				</g>
			</g>
			<g>
				<path class="st24" d="M433.1,1422.2c-0.1,2,0.1,5.3-5.1,8.2"/>
				<path class="st24" d="M448.7,1422.2c0.1,2-0.1,5.3,5.1,8.2"/>
			</g>
			<g>
				<g>
					<path class="st22" d="M452,1468.6c0,4.4,5.2,0.1,11.6,0.1s11.6,4.4,11.6-0.1c0-4.4-5.2-8-11.6-8S452,1464.2,452,1468.6z"/>
					<ellipse class="st23" cx="463.7" cy="1463.1" rx="3.4" ry="2.5"/>
				</g>
			</g>
		</g>
		<g>
			<line class="st25" x1="418.9" y1="1459.3" x2="441" y2="1212.7"/>
			<line class="st25" x1="463" y1="1459.3" x2="441" y2="1212.7"/>
		</g>
	</g>
	<g>
		<g>
			<g>
				<g>
					<path class="st2" d="M1219.2,1338.5H947c-0.7,0-1.2-0.6-1.2-1.2V1065c0-0.7,0.5-1.2,1.2-1.2h272.2c0.7,0,1.2,0.6,1.2,1.2v272.2
						C1220.4,1337.9,1219.9,1338.5,1219.2,1338.5z"/>
				</g>
				<g>
					<line class="st3" x1="1072.5" y1="1193.4" x2="1093.6" y2="1214.5"/>
					<line class="st3" x1="1093.6" y1="1193.4" x2="1072.5" y2="1214.5"/>
				</g>
			</g>
			<text transform="matrix(1 0 0 1 945.717 1049.1084)" class="st10 st16">600-900 ms</text>
		</g>
		<g>
			<g>
				
					<linearGradient id="SVGID_00000119819425527980781620000002547066542937754258_" gradientUnits="userSpaceOnUse" x1="4265.9033" y1="450.8107" x2="4296.9111" y2="419.8033" gradientTransform="matrix(-1 0 0 -1 5301.1719 1978)">
					<stop  offset="0" style="stop-color:#C69C6D"/>
					<stop  offset="0.2973" style="stop-color:#C6A075"/>
					<stop  offset="0.7567" style="stop-color:#C7AB8B"/>
					<stop  offset="1" style="stop-color:#C7B299"/>
				</linearGradient>
				
					<path style="fill:url(#SVGID_00000119819425527980781620000002547066542937754258_);stroke:#000000;stroke-width:4;stroke-miterlimit:10;" d="
					M1011.5,1556.9c0,14.8,4.2,11.1,9.3,11.1s9.3-12,9.3-26.9s-4.2-26.9-9.3-26.9C1015.7,1514.3,1011.5,1542.1,1011.5,1556.9z"/>
				
					<linearGradient id="SVGID_00000026842684158783772560000009134861684182905001_" gradientUnits="userSpaceOnUse" x1="1128.9816" y1="450.8108" x2="1159.9889" y2="419.8033" gradientTransform="matrix(1 0 0 -1 0 1978)">
					<stop  offset="0" style="stop-color:#C69C6D"/>
					<stop  offset="0.2973" style="stop-color:#C6A075"/>
					<stop  offset="0.7567" style="stop-color:#C7AB8B"/>
					<stop  offset="1" style="stop-color:#C7B299"/>
				</linearGradient>
				
					<path style="fill:url(#SVGID_00000026842684158783772560000009134861684182905001_);stroke:#000000;stroke-width:4;stroke-miterlimit:10;" d="
					M1152.7,1556.9c0,14.8-4.2,11.1-9.3,11.1s-9.3-12-9.3-26.9s4.2-26.9,9.3-26.9C1148.5,1514.3,1152.7,1542.1,1152.7,1556.9z"/>
			</g>
			
				<radialGradient id="SVGID_00000035509994266743504880000010403830809753201029_" cx="522.0568" cy="449.0302" r="71.367" gradientTransform="matrix(0.5918 0 0 -0.6879 773.1668 1777.8929)" gradientUnits="userSpaceOnUse">
				<stop  offset="0" style="stop-color:#C7B299"/>
				<stop  offset="0.5304" style="stop-color:#C7B197"/>
				<stop  offset="0.7214" style="stop-color:#C7AE90"/>
				<stop  offset="0.8575" style="stop-color:#C7A885"/>
				<stop  offset="0.9668" style="stop-color:#C69F74"/>
				<stop  offset="1" style="stop-color:#C69C6D"/>
			</radialGradient>
			
				<path style="fill:url(#SVGID_00000035509994266743504880000010403830809753201029_);stroke:#000000;stroke-width:4;stroke-miterlimit:10;" d="
				M1119.7,1461.2c0,34.1-16.8,61.8-37.6,61.8s-37.6-27.7-37.6-61.8s16.8-46.1,37.6-46.1S1119.7,1427.1,1119.7,1461.2z"/>
			
				<radialGradient id="SVGID_00000069375038939541099340000001393652913726844806_" cx="624.7142" cy="355.9315" r="91.7429" gradientTransform="matrix(0.6183 0 0 -0.6879 695.6507 1777.8929)" gradientUnits="userSpaceOnUse">
				<stop  offset="0" style="stop-color:#A67C52"/>
				<stop  offset="0.2686" style="stop-color:#9F754B"/>
				<stop  offset="0.6604" style="stop-color:#8B6239"/>
				<stop  offset="1" style="stop-color:#754C24"/>
			</radialGradient>
			
				<path style="fill:url(#SVGID_00000069375038939541099340000001393652913726844806_);stroke:#000000;stroke-width:4;stroke-miterlimit:10;" d="
				M1144.2,1526c0,49.9-27.8,72.8-62.1,72.8s-62.1-22.8-62.1-72.8c0-34.4,13.6-60.2,36.1-71.7c3.4-1.8,14.8-2.2,26-2.3
				c11-0.2,22.6-0.4,26,1.3C1127.9,1462.9,1144.2,1490.4,1144.2,1526z"/>
			<g>
				<g>
					<path class="st22" d="M1071.1,1468.5c0,4.4-5.2,0.1-11.6,0.1s-11.6,4.4-11.6-0.1c0-4.4,5.2-8,11.6-8
						S1071.1,1464.1,1071.1,1468.5z"/>
					<ellipse class="st23" cx="1059.5" cy="1463" rx="3.4" ry="2.5"/>
				</g>
			</g>
			<g>
				<path class="st24" d="M1074.3,1422.2c-0.1,2,0.1,5.3-5.1,8.2"/>
				<path class="st24" d="M1089.9,1422.2c0.1,2-0.1,5.3,5.1,8.2"/>
			</g>
			<g>
				<g>
					<path class="st22" d="M1093.2,1468.6c0,4.4,5.2,0.1,11.6,0.1s11.6,4.4,11.6-0.1c0-4.4-5.2-8-11.6-8
						S1093.2,1464.2,1093.2,1468.6z"/>
					<ellipse class="st23" cx="1104.8" cy="1463.1" rx="3.4" ry="2.5"/>
				</g>
			</g>
		</g>
		<g>
			<line class="st25" x1="1059" y1="1459.3" x2="1081.1" y2="1212.7"/>
			<line class="st25" x1="1103.1" y1="1459.3" x2="1081.1" y2="1212.7"/>
		</g>
	</g>
	<g>
		<g>
			<g>
				<path class="st2" d="M1585,1340.9h-272.2c-0.7,0-1.2-0.6-1.2-1.2v-272.2c0-0.7,0.6-1.2,1.2-1.2H1585c0.7,0,1.2,0.6,1.2,1.2
					v272.2C1586.2,1340.3,1585.7,1340.9,1585,1340.9z"/>
			</g>
			<g>
				<line class="st3" x1="1438.3" y1="1195.8" x2="1459.4" y2="1216.9"/>
				<line class="st3" x1="1459.4" y1="1195.8" x2="1438.3" y2="1216.9"/>
			</g>
			<circle class="st5" cx="1459.4" cy="1292.3" r="23.2"/>
			<circle class="st30" cx="1534.5" cy="1259.9" r="23.2"/>
			<circle class="st31" cx="1543.8" cy="1180.4" r="23.2"/>
			<circle class="st32" cx="1493.6" cy="1123.6" r="23.2"/>
			<text transform="matrix(1 0 0 1 1311.5251 1051.353)" class="st10 st33">500-1000 ms</text>
		</g>
		<g>
			<g>
				
					<linearGradient id="SVGID_00000129910515752854490490000003744669790428102069_" gradientUnits="userSpaceOnUse" x1="3897.3835" y1="450.8107" x2="3928.3909" y2="419.8033" gradientTransform="matrix(-1 0 0 -1 5301.1719 1978)">
					<stop  offset="0" style="stop-color:#C69C6D"/>
					<stop  offset="0.2973" style="stop-color:#C6A075"/>
					<stop  offset="0.7567" style="stop-color:#C7AB8B"/>
					<stop  offset="1" style="stop-color:#C7B299"/>
				</linearGradient>
				
					<path style="fill:url(#SVGID_00000129910515752854490490000003744669790428102069_);stroke:#000000;stroke-width:4;stroke-miterlimit:10;" d="
					M1380.1,1556.9c0,14.8,4.2,11.1,9.3,11.1s9.3-12,9.3-26.9s-4.2-26.9-9.3-26.9C1384.2,1514.3,1380.1,1542.1,1380.1,1556.9z"/>
				
					<linearGradient id="SVGID_00000100358163493480843430000015755781679648229006_" gradientUnits="userSpaceOnUse" x1="1497.5016" y1="450.8108" x2="1528.5089" y2="419.8033" gradientTransform="matrix(1 0 0 -1 0 1978)">
					<stop  offset="0" style="stop-color:#C69C6D"/>
					<stop  offset="0.2973" style="stop-color:#C6A075"/>
					<stop  offset="0.7567" style="stop-color:#C7AB8B"/>
					<stop  offset="1" style="stop-color:#C7B299"/>
				</linearGradient>
				
					<path style="fill:url(#SVGID_00000100358163493480843430000015755781679648229006_);stroke:#000000;stroke-width:4;stroke-miterlimit:10;" d="
					M1521.2,1556.9c0,14.8-4.2,11.1-9.3,11.1s-9.3-12-9.3-26.9s4.2-26.9,9.3-26.9C1517.1,1514.3,1521.2,1542.1,1521.2,1556.9z"/>
			</g>
			
				<radialGradient id="SVGID_00000183949430137739367720000009338347989071299512_" cx="1144.7842" cy="449.0302" r="71.367" gradientTransform="matrix(0.5918 0 0 -0.6879 773.1668 1777.8929)" gradientUnits="userSpaceOnUse">
				<stop  offset="0" style="stop-color:#C7B299"/>
				<stop  offset="0.5304" style="stop-color:#C7B197"/>
				<stop  offset="0.7214" style="stop-color:#C7AE90"/>
				<stop  offset="0.8575" style="stop-color:#C7A885"/>
				<stop  offset="0.9668" style="stop-color:#C69F74"/>
				<stop  offset="1" style="stop-color:#C69C6D"/>
			</radialGradient>
			
				<path style="fill:url(#SVGID_00000183949430137739367720000009338347989071299512_);stroke:#000000;stroke-width:4;stroke-miterlimit:10;" d="
				M1488.2,1461.2c0,34.1-16.8,61.8-37.6,61.8s-37.6-27.7-37.6-61.8s16.8-46.1,37.6-46.1S1488.2,1427.1,1488.2,1461.2z"/>
			
				<radialGradient id="SVGID_00000048461242473189014830000015615397257933101459_" cx="1220.7831" cy="355.9315" r="91.7429" gradientTransform="matrix(0.6183 0 0 -0.6879 695.6507 1777.8929)" gradientUnits="userSpaceOnUse">
				<stop  offset="0" style="stop-color:#A67C52"/>
				<stop  offset="0.2686" style="stop-color:#9F754B"/>
				<stop  offset="0.6604" style="stop-color:#8B6239"/>
				<stop  offset="1" style="stop-color:#754C24"/>
			</radialGradient>
			
				<path style="fill:url(#SVGID_00000048461242473189014830000015615397257933101459_);stroke:#000000;stroke-width:4;stroke-miterlimit:10;" d="
				M1512.7,1526c0,49.9-27.8,72.8-62.1,72.8s-62.1-22.8-62.1-72.8c0-34.4,13.6-60.2,36.1-71.7c3.4-1.8,14.8-2.2,26-2.3
				c11-0.2,22.6-0.4,26,1.3C1496.5,1462.9,1512.7,1490.4,1512.7,1526z"/>
			<g>
				<g>
					<path class="st22" d="M1439.7,1468.5c0,4.4-5.2,0.1-11.6,0.1s-11.6,4.4-11.6-0.1c0-4.4,5.2-8,11.6-8
						C1434.5,1460.5,1439.7,1464.1,1439.7,1468.5z"/>
					<ellipse class="st23" cx="1428" cy="1463" rx="3.4" ry="2.5"/>
				</g>
			</g>
			<g>
				<path class="st24" d="M1442.8,1422.2c-0.1,2,0.1,5.3-5.1,8.2"/>
				<path class="st24" d="M1458.4,1422.2c0.1,2-0.1,5.3,5.1,8.2"/>
			</g>
			<g>
				<g>
					<path class="st22" d="M1461.7,1468.6c0,4.4,5.2,0.1,11.6,0.1s11.6,4.4,11.6-0.1c0-4.4-5.2-8-11.6-8
						C1466.9,1460.6,1461.7,1464.2,1461.7,1468.6z"/>
					<ellipse class="st23" cx="1473.3" cy="1463.1" rx="3.4" ry="2.5"/>
				</g>
			</g>
		</g>
		<g>
			<line class="st25" x1="1428.1" y1="1458.4" x2="1450.1" y2="1211.7"/>
			<line class="st25" x1="1472.2" y1="1458.4" x2="1450.1" y2="1211.7"/>
		</g>
	</g>
	<g>
		<g>
			<g>
				<path class="st2" d="M1749.8,1065.1h274.1c0.3,0,0.6,0.4,0.6,0.9V1339c0,0.5-0.3,0.9-0.6,0.9h-274.1"/>
			</g>
			<g>
				<path class="st3" d="M1897.2,1194.8"/>
			</g>
			<circle class="st5" cx="1897.2" cy="1291.3" r="23.2"/>
			<circle class="st30" cx="1972.3" cy="1258.9" r="23.2"/>
			<circle class="st31" cx="1981.5" cy="1179.3" r="23.2"/>
			<circle class="st32" cx="1931.4" cy="1122.6" r="23.2"/>
			<text transform="matrix(1 0 0 1 1749.7615 1049.9883)" class="st10 st16">&lt;5000 ms</text>
		</g>
		<g>
			<g>
				
					<linearGradient id="SVGID_00000107582218936143336960000003971774429277845649_" gradientUnits="userSpaceOnUse" x1="3451.0239" y1="450.8113" x2="3482.0315" y2="419.8039" gradientTransform="matrix(-1 0 0 -1 5301.1719 1978)">
					<stop  offset="0" style="stop-color:#C69C6D"/>
					<stop  offset="0.2973" style="stop-color:#C6A075"/>
					<stop  offset="0.7567" style="stop-color:#C7AB8B"/>
					<stop  offset="1" style="stop-color:#C7B299"/>
				</linearGradient>
				
					<path style="fill:url(#SVGID_00000107582218936143336960000003971774429277845649_);stroke:#000000;stroke-width:4;stroke-miterlimit:10;" d="
					M1826.4,1556.9c0,14.8,4.2,11.1,9.3,11.1s9.3-12,9.3-26.9s-4.2-26.9-9.3-26.9S1826.4,1542.1,1826.4,1556.9z"/>
				
					<linearGradient id="SVGID_00000090991005121484388910000003587382403621608371_" gradientUnits="userSpaceOnUse" x1="1943.8616" y1="450.8108" x2="1974.8689" y2="419.8033" gradientTransform="matrix(1 0 0 -1 0 1978)">
					<stop  offset="0" style="stop-color:#C69C6D"/>
					<stop  offset="0.2973" style="stop-color:#C6A075"/>
					<stop  offset="0.7567" style="stop-color:#C7AB8B"/>
					<stop  offset="1" style="stop-color:#C7B299"/>
				</linearGradient>
				
					<path style="fill:url(#SVGID_00000090991005121484388910000003587382403621608371_);stroke:#000000;stroke-width:4;stroke-miterlimit:10;" d="
					M1967.6,1556.9c0,14.8-4.2,11.1-9.3,11.1s-9.3-12-9.3-26.9s4.2-26.9,9.3-26.9C1963.4,1514.3,1967.6,1542.1,1967.6,1556.9z"/>
			</g>
			
				<radialGradient id="SVGID_00000002353181163192016510000008266246138335896204_" cx="1899.0085" cy="449.0302" r="71.367" gradientTransform="matrix(0.5918 0 0 -0.6879 773.1668 1777.8929)" gradientUnits="userSpaceOnUse">
				<stop  offset="0" style="stop-color:#C7B299"/>
				<stop  offset="0.5304" style="stop-color:#C7B197"/>
				<stop  offset="0.7214" style="stop-color:#C7AE90"/>
				<stop  offset="0.8575" style="stop-color:#C7A885"/>
				<stop  offset="0.9668" style="stop-color:#C69F74"/>
				<stop  offset="1" style="stop-color:#C69C6D"/>
			</radialGradient>
			
				<path style="fill:url(#SVGID_00000002353181163192016510000008266246138335896204_);stroke:#000000;stroke-width:4;stroke-miterlimit:10;" d="
				M1934.6,1461.2c0,34.1-16.8,61.8-37.6,61.8s-37.6-27.7-37.6-61.8s16.8-46.1,37.6-46.1S1934.6,1427.1,1934.6,1461.2z"/>
			
				<radialGradient id="SVGID_00000064321270747555461350000012298144329089829265_" cx="1942.7357" cy="355.9315" r="91.7429" gradientTransform="matrix(0.6183 0 0 -0.6879 695.6507 1777.8929)" gradientUnits="userSpaceOnUse">
				<stop  offset="0" style="stop-color:#A67C52"/>
				<stop  offset="0.2686" style="stop-color:#9F754B"/>
				<stop  offset="0.6604" style="stop-color:#8B6239"/>
				<stop  offset="1" style="stop-color:#754C24"/>
			</radialGradient>
			
				<path style="fill:url(#SVGID_00000064321270747555461350000012298144329089829265_);stroke:#000000;stroke-width:4;stroke-miterlimit:10;" d="
				M1959.1,1526c0,49.9-27.8,72.8-62.1,72.8s-62.1-22.8-62.1-72.8c0-34.4,13.6-60.2,36.1-71.7c3.4-1.8,14.8-2.2,26-2.3
				c11-0.2,22.6-0.4,26,1.3C1942.8,1462.9,1959.1,1490.4,1959.1,1526z"/>
			<g>
				<g>
					<path class="st22" d="M1886,1468.5c0,4.4-5.2,0.1-11.6,0.1s-11.6,4.4-11.6-0.1c0-4.4,5.2-8,11.6-8S1886,1464.1,1886,1468.5z"/>
					<ellipse class="st23" cx="1874.4" cy="1463" rx="3.4" ry="2.5"/>
				</g>
			</g>
			<g>
				<path class="st24" d="M1889.2,1422.2c-0.1,2,0.1,5.3-5.1,8.2"/>
				<path class="st24" d="M1904.8,1422.2c0.1,2-0.1,5.3,5.1,8.2"/>
			</g>
			<g>
				<g>
					<path class="st22" d="M1908.1,1468.6c0,4.4,5.2,0.1,11.6,0.1s11.6,4.4,11.6-0.1c0-4.4-5.2-8-11.6-8
						S1908.1,1464.2,1908.1,1468.6z"/>
					<ellipse class="st23" cx="1919.7" cy="1463.1" rx="3.4" ry="2.5"/>
				</g>
			</g>
		</g>
		<g>
			<line class="st25" x1="1875.1" y1="1459.3" x2="1981.5" y2="1179.3"/>
			<line class="st25" x1="1919.3" y1="1459.3" x2="1981.5" y2="1179.3"/>
		</g>
	</g>
	<g>
		<g>
			<g>
				<g>
					<path class="st4" d="M909.5,1204.2c1.9,0,1.9-3,0-3C907.6,1201.2,907.6,1204.2,909.5,1204.2L909.5,1204.2z"/>
				</g>
			</g>
			<g>
				<g>
					<path class="st2" d="M607.5,1065.3h274.3c0.2,0,0.4,0.2,0.4,0.5v273.7c0,0.3-0.2,0.5-0.4,0.5H607.5"/>
				</g>
				<g>
					<line class="st3" x1="734" y1="1194.9" x2="755.2" y2="1216"/>
					<line class="st3" x1="755.2" y1="1194.9" x2="734" y2="1216"/>
				</g>
				<path class="st31" d="M660.5,1169c0-12.8,10.4-23.2,23.2-23.2c12.8,0,23.2,10.4,23.2,23.2c0,12.8-10.4,23.2-23.2,23.2
					C670.9,1192.2,660.5,1181.8,660.5,1169"/>
			</g>
			<text transform="matrix(1 0 0 1 607.5022 1049.981)" class="st10 st16">750 ms</text>
		</g>
		<g>
			<g>
				
					<linearGradient id="SVGID_00000153691101576723273240000012872062129448324031_" gradientUnits="userSpaceOnUse" x1="4604.3643" y1="450.8114" x2="4635.3716" y2="419.8038" gradientTransform="matrix(-1 0 0 -1 5301.1719 1978)">
					<stop  offset="0" style="stop-color:#C69C6D"/>
					<stop  offset="0.2973" style="stop-color:#C6A075"/>
					<stop  offset="0.7567" style="stop-color:#C7AB8B"/>
					<stop  offset="1" style="stop-color:#C7B299"/>
				</linearGradient>
				
					<path style="fill:url(#SVGID_00000153691101576723273240000012872062129448324031_);stroke:#000000;stroke-width:4;stroke-miterlimit:10;" d="
					M673.1,1556.9c0,14.8,4.2,11.1,9.3,11.1s9.3-12,9.3-26.9s-4.2-26.9-9.3-26.9S673.1,1542.1,673.1,1556.9z"/>
				
					<linearGradient id="SVGID_00000101082819101939212010000011552817769243529350_" gradientUnits="userSpaceOnUse" x1="790.5216" y1="450.8107" x2="821.529" y2="419.8034" gradientTransform="matrix(1 0 0 -1 0 1978)">
					<stop  offset="0" style="stop-color:#C69C6D"/>
					<stop  offset="0.2973" style="stop-color:#C6A075"/>
					<stop  offset="0.7567" style="stop-color:#C7AB8B"/>
					<stop  offset="1" style="stop-color:#C7B299"/>
				</linearGradient>
				
					<path style="fill:url(#SVGID_00000101082819101939212010000011552817769243529350_);stroke:#000000;stroke-width:4;stroke-miterlimit:10;" d="
					M814.2,1556.9c0,14.8-4.2,11.1-9.3,11.1s-9.3-12-9.3-26.9s4.2-26.9,9.3-26.9C810.1,1514.3,814.2,1542.1,814.2,1556.9z"/>
			</g>
			
				<radialGradient id="SVGID_00000093146195158762402080000003923140408716657300_" cx="-49.8594" cy="449.0302" r="71.367" gradientTransform="matrix(0.5918 0 0 -0.6879 773.1668 1777.8929)" gradientUnits="userSpaceOnUse">
				<stop  offset="0" style="stop-color:#C7B299"/>
				<stop  offset="0.5304" style="stop-color:#C7B197"/>
				<stop  offset="0.7214" style="stop-color:#C7AE90"/>
				<stop  offset="0.8575" style="stop-color:#C7A885"/>
				<stop  offset="0.9668" style="stop-color:#C69F74"/>
				<stop  offset="1" style="stop-color:#C69C6D"/>
			</radialGradient>
			
				<path style="fill:url(#SVGID_00000093146195158762402080000003923140408716657300_);stroke:#000000;stroke-width:4;stroke-miterlimit:10;" d="
				M781.2,1461.2c0,34.1-16.8,61.8-37.6,61.8s-37.6-27.7-37.6-61.8s16.8-46.1,37.6-46.1S781.2,1427.1,781.2,1461.2z"/>
			
				<radialGradient id="SVGID_00000160889396071679223170000006855510127376353158_" cx="77.2723" cy="355.9315" r="91.7429" gradientTransform="matrix(0.6183 0 0 -0.6879 695.6507 1777.8929)" gradientUnits="userSpaceOnUse">
				<stop  offset="0" style="stop-color:#A67C52"/>
				<stop  offset="0.2686" style="stop-color:#9F754B"/>
				<stop  offset="0.6604" style="stop-color:#8B6239"/>
				<stop  offset="1" style="stop-color:#754C24"/>
			</radialGradient>
			
				<path style="fill:url(#SVGID_00000160889396071679223170000006855510127376353158_);stroke:#000000;stroke-width:4;stroke-miterlimit:10;" d="
				M805.8,1526c0,49.9-27.8,72.8-62.1,72.8c-34.3,0-62.1-22.8-62.1-72.8c0-34.4,13.6-60.2,36.1-71.7c3.4-1.8,14.8-2.2,26-2.3
				c11-0.2,22.6-0.4,26,1.3C789.5,1462.9,805.8,1490.4,805.8,1526z"/>
			<g>
				<g>
					<path class="st22" d="M732.7,1468.5c0,4.4-5.2,0.1-11.6,0.1s-11.6,4.4-11.6-0.1c0-4.4,5.2-8,11.6-8S732.7,1464.1,732.7,1468.5z
						"/>
					<ellipse class="st23" cx="721.1" cy="1463" rx="3.4" ry="2.5"/>
				</g>
			</g>
			<g>
				<path class="st24" d="M735.8,1422.2c-0.1,2,0.1,5.3-5.1,8.2"/>
				<path class="st24" d="M751.4,1422.2c0.1,2-0.1,5.3,5.1,8.2"/>
			</g>
			<g>
				<g>
					<path class="st22" d="M754.8,1468.6c0,4.4,5.2,0.1,11.6,0.1s11.6,4.4,11.6-0.1c0-4.4-5.2-8-11.6-8S754.8,1464.2,754.8,1468.6z"
						/>
					<ellipse class="st23" cx="766.4" cy="1463.1" rx="3.4" ry="2.5"/>
				</g>
			</g>
		</g>
		<g>
			<line class="st25" x1="721.6" y1="1452.1" x2="743.7" y2="1205.5"/>
			<line class="st25" x1="765.7" y1="1452.1" x2="743.7" y2="1205.5"/>
		</g>
	</g>
	<g>
		<g>
			<path class="st4" d="M344.3,331.6c1.9,0,1.9-3,0-3S342.4,331.6,344.3,331.6L344.3,331.6z"/>
		</g>
	</g>
	<g>
		<g>
			<g>
				<path class="st4" d="M909.5,280.1c1.9,0,1.9-3,0-3C907.6,277.1,907.6,280.1,909.5,280.1L909.5,280.1z"/>
			</g>
		</g>
		<g>
			<g>
				<path class="st2" d="M607.5,141.2h274.3c0.2,0,0.4,0.2,0.4,0.5v273.7c0,0.3-0.2,0.5-0.4,0.5H607.5"/>
			</g>
			<g>
				<line class="st3" x1="734" y1="270.9" x2="755.2" y2="292"/>
				<line class="st3" x1="755.2" y1="270.9" x2="734" y2="292"/>
			</g>
			<path class="st31" d="M660.5,244.9c0-12.8,10.4-23.1,23.2-23.1c12.8,0,23.2,10.4,23.2,23.1c0,12.8-10.4,23.1-23.2,23.1
				C670.9,268.1,660.5,257.7,660.5,244.9"/>
		</g>
		<text transform="matrix(1 0 0 1 607.5032 125.9111)" class="st10 st16">750 ms</text>
	</g>
	<g>
		<g>
			<g>
				<path class="st2" d="M570.9,416H298.7c-0.7,0-1.2-0.5-1.2-1.2V142.5c0-0.7,0.5-1.2,1.2-1.2h272.2c0.7,0,1.2,0.6,1.2,1.2v272.2
					C572.1,415.5,571.6,416,570.9,416z"/>
			</g>
			<g>
				<line class="st3" x1="430.4" y1="270.9" x2="451.5" y2="292"/>
				<line class="st3" x1="451.5" y1="270.9" x2="430.4" y2="292"/>
			</g>
		</g>
		<text transform="matrix(1 0 0 1 297.4168 117.0581)" class="st10 st16">50 ms</text>
	</g>
	<g>
		<g>
			<g>
				<path class="st2" d="M1395.5,416h-272.2c-0.7,0-1.2-0.5-1.2-1.2V142.5c0-0.7,0.6-1.2,1.2-1.2h272.2c0.7,0,1.2,0.6,1.2,1.2v272.2
					C1396.7,415.5,1396.2,416,1395.5,416z"/>
			</g>
			<g>
				<line class="st3" x1="1248.8" y1="270.9" x2="1269.9" y2="292"/>
				<line class="st3" x1="1269.9" y1="270.9" x2="1248.8" y2="292"/>
			</g>
		</g>
		<text transform="matrix(1 0 0 1 1122.0354 126.6553)" class="st10 st16">1500 ms</text>
	</g>
	<g>
		<g>
			<path class="st2" d="M1747.8,141.3h274.1c0.3,0,0.6,0.4,0.6,0.9v273c0,0.5-0.3,0.9-0.6,0.9h-274.1"/>
		</g>
		<g>
			<path class="st3" d="M1895.2,270.9"/>
		</g>
		<g>
			<circle class="st5" cx="1845.2" cy="364.6" r="23.2"/>
			<circle class="st30" cx="1970.9" cy="318.8" r="23.2"/>
			<circle class="st31" cx="1925" cy="192.7" r="23.2"/>
			<circle class="st32" cx="1799.3" cy="238.5" r="23.2"/>
		</g>
		<text transform="matrix(1 0 0 1 1747.7576 126.1514)" class="st10 st16">&lt;5000 ms</text>
	</g>
	<g>
		<g>
			<line class="st13" x1="1270.3" y1="966.4" x2="1282.8" y2="966.5"/>
			<line class="st46" x1="1308.5" y1="966.7" x2="1604.4" y2="969.3"/>
			<line class="st13" x1="1617.3" y1="969.4" x2="1629.8" y2="969.5"/>
		</g>
	</g>
</g>
<g id="hashes">
	<g>
		<line class="st47" x1="1442.5" y1="1679" x2="1457.7" y2="1679"/>
		<line class="st48" x1="1453.2" y1="1661.4" x2="1431.8" y2="1696.6"/>
		<line class="st48" x1="1469.5" y1="1661.4" x2="1448.1" y2="1696.6"/>
	</g>
	<g>
		<line class="st47" x1="1442.5" y1="1835.2" x2="1457.7" y2="1835.2"/>
		<line class="st48" x1="1453.2" y1="1817.7" x2="1431.8" y2="1852.8"/>
		<line class="st48" x1="1469.5" y1="1817.7" x2="1448.1" y2="1852.8"/>
	</g>
	<g>
		<line class="st47" x1="1442.5" y1="1886" x2="1457.7" y2="1886"/>
		<line class="st48" x1="1453.2" y1="1868.4" x2="1431.8" y2="1903.6"/>
		<line class="st48" x1="1469.5" y1="1868.4" x2="1448.1" y2="1903.6"/>
	</g>
	<g>
		<line class="st47" x1="1073.9" y1="1677.5" x2="1089.2" y2="1677.5"/>
		<line class="st48" x1="1084.6" y1="1659.9" x2="1063.2" y2="1695.1"/>
		<line class="st48" x1="1101" y1="1659.9" x2="1079.6" y2="1695.1"/>
	</g>
	<g>
		<line class="st47" x1="1073.9" y1="1834.6" x2="1089.2" y2="1834.6"/>
		<line class="st48" x1="1084.6" y1="1817" x2="1063.2" y2="1852.2"/>
		<line class="st48" x1="1101" y1="1817" x2="1079.6" y2="1852.2"/>
	</g>
	<g>
		<line class="st47" x1="1073.9" y1="1947.8" x2="1089.2" y2="1947.8"/>
		<line class="st48" x1="1084.6" y1="1930.3" x2="1063.2" y2="1965.4"/>
		<line class="st48" x1="1101" y1="1930.3" x2="1079.6" y2="1965.4"/>
	</g>
	<g>
		<line class="st47" x1="1889" y1="1738.7" x2="1904.2" y2="1738.7"/>
		<line class="st48" x1="1899.7" y1="1721.1" x2="1878.3" y2="1756.3"/>
		<line class="st48" x1="1916" y1="1721.1" x2="1894.6" y2="1756.3"/>
	</g>
	<g>
		<line class="st47" x1="1889" y1="1835.2" x2="1904.2" y2="1835.2"/>
		<line class="st48" x1="1899.7" y1="1817.6" x2="1878.3" y2="1852.7"/>
		<line class="st48" x1="1916" y1="1817.6" x2="1894.6" y2="1852.7"/>
	</g>
	<g>
		<line class="st47" x1="1889" y1="1885.9" x2="1904.2" y2="1885.9"/>
		<line class="st48" x1="1899.7" y1="1868.3" x2="1878.3" y2="1903.5"/>
		<line class="st48" x1="1916" y1="1868.3" x2="1894.6" y2="1903.5"/>
	</g>
	<g>
		<line class="st49" x1="1875.9" y1="573.9" x2="1891.1" y2="573.9"/>
		<line class="st48" x1="1886.6" y1="556.3" x2="1865.2" y2="591.5"/>
		<line class="st48" x1="1902.9" y1="556.3" x2="1881.6" y2="591.5"/>
	</g>
	<g>
		<line class="st47" x1="1875.9" y1="670.4" x2="1891.1" y2="670.4"/>
		<line class="st48" x1="1886.6" y1="652.8" x2="1865.2" y2="688"/>
		<line class="st48" x1="1902.9" y1="652.8" x2="1881.6" y2="688"/>
	</g>
	<g>
		<line class="st47" x1="1875.9" y1="721.2" x2="1891.1" y2="721.2"/>
		<line class="st48" x1="1886.6" y1="703.6" x2="1865.2" y2="738.8"/>
		<line class="st48" x1="1902.9" y1="703.6" x2="1881.6" y2="738.8"/>
	</g>
	<text transform="matrix(1 0 0 1 35.086 46.1096)" class="st50 st51">Human paradigm</text>
	<text transform="matrix(1 0 0 1 34.2727 956.8701)" class="st50 st51">NHP paradigm</text>
</g>
<g id="munke" class="st0">
	<g class="st1">
		
			<linearGradient id="SVGID_00000019654612983840720150000017253313413773557426_" gradientUnits="userSpaceOnUse" x1="2444.7559" y1="1514.4771" x2="2512.7356" y2="1446.4973" gradientTransform="matrix(-1 0 0 -1 5301.1719 1978)">
			<stop  offset="0" style="stop-color:#C69C6D"/>
			<stop  offset="0.2973" style="stop-color:#C6A075"/>
			<stop  offset="0.7567" style="stop-color:#C7AB8B"/>
			<stop  offset="1" style="stop-color:#C7B299"/>
		</linearGradient>
		
			<path style="fill:url(#SVGID_00000019654612983840720150000017253313413773557426_);stroke:#000000;stroke-width:4;stroke-miterlimit:10;" d="
			M2802.6,527.8c0,31.9,10,24,22.2,24s22.2-25.9,22.2-57.8s-10-57.8-22.2-57.8C2812.6,436.1,2802.6,495.9,2802.6,527.8z"/>
		
			<linearGradient id="SVGID_00000083780400055950269290000013887964803526602416_" gradientUnits="userSpaceOnUse" x1="3086.8032" y1="1514.4764" x2="3154.783" y2="1446.4967" gradientTransform="matrix(1 0 0 -1 0 1978)">
			<stop  offset="0" style="stop-color:#C69C6D"/>
			<stop  offset="0.2973" style="stop-color:#C6A075"/>
			<stop  offset="0.7567" style="stop-color:#C7AB8B"/>
			<stop  offset="1" style="stop-color:#C7B299"/>
		</linearGradient>
		
			<path style="fill:url(#SVGID_00000083780400055950269290000013887964803526602416_);stroke:#000000;stroke-width:4;stroke-miterlimit:10;" d="
			M3140.6,527.8c0,31.9-10,24-22.2,24s-22.2-25.9-22.2-57.8s10-57.8,22.2-57.8S3140.6,495.9,3140.6,527.8z"/>
	</g>
	
		<radialGradient id="SVGID_00000096775591981944250940000000559771381106397089_" cx="2973.5059" cy="1639.4" r="105.6302" gradientTransform="matrix(0.9572 0 0 -1 125.3703 1978)" gradientUnits="userSpaceOnUse">
		<stop  offset="0" style="stop-color:#C7B299"/>
		<stop  offset="0.5304" style="stop-color:#C7B197"/>
		<stop  offset="0.7214" style="stop-color:#C7AE90"/>
		<stop  offset="0.8575" style="stop-color:#C7A885"/>
		<stop  offset="0.9668" style="stop-color:#C69F74"/>
		<stop  offset="1" style="stop-color:#C69C6D"/>
	</radialGradient>
	
		<path style="display:inline;fill:url(#SVGID_00000096775591981944250940000000559771381106397089_);stroke:#000000;stroke-width:4;stroke-miterlimit:10;" d="
		M3061.6,321.8c0,73.4-40.3,132.9-90,132.9s-90-59.5-90-132.9s40.3-99.2,90-99.2S3061.6,248.3,3061.6,321.8z"/>
	
		<radialGradient id="SVGID_00000124135588783665592320000002884848629594207904_" cx="2971.0317" cy="1501.5004" r="135.7969" gradientTransform="matrix(1 0 0 -1 0 1978)" gradientUnits="userSpaceOnUse">
		<stop  offset="0" style="stop-color:#A67C52"/>
		<stop  offset="0.2686" style="stop-color:#9F754B"/>
		<stop  offset="0.6604" style="stop-color:#8B6239"/>
		<stop  offset="1" style="stop-color:#754C24"/>
	</radialGradient>
	
		<path style="display:inline;fill:url(#SVGID_00000124135588783665592320000002884848629594207904_);stroke:#000000;stroke-width:4;stroke-miterlimit:10;" d="
		M3120.2,461.1c0,107.4-66.6,156.6-148.6,156.6S2823,568.6,2823,461.2c0-74,32.6-129.5,86.4-154.4c8.2-3.8,35.5-4.7,62.2-5
		c26.3-0.3,54.1-0.8,62.2,2.8C3081.3,325.4,3120.2,384.7,3120.2,461.1z"/>
	<g class="st1">
		<g>
			<path class="st22" d="M2945.3,337.5c0,9.5-12.4,0.1-27.8,0.1s-27.8,9.4-27.8-0.1s12.4-17.2,27.8-17.2
				C2932.9,320.3,2945.3,328,2945.3,337.5z"/>
			<circle class="st23" cx="2917.5" cy="328.4" r="8.1"/>
		</g>
		<g>
			<path class="st22" d="M3053.5,337.5c0,9.5-12.4,0.1-27.8,0.1s-27.8,9.4-27.8-0.1s12.4-17.2,27.8-17.2S3053.5,328,3053.5,337.5z"
				/>
			<ellipse class="st23" cx="3025.7" cy="328.9" rx="8.1" ry="8.6"/>
		</g>
	</g>
	<g class="st1">
		<path class="st24" d="M2952.9,237.9c-0.1,4.2,0.1,11.5-12.2,17.7"/>
		<path class="st24" d="M2990.2,237.9c0.1,4.2-0.1,11.5,12.2,17.7"/>
	</g>
</g>
</svg>
